<svg width="788" height="844" viewBox="0 0 788 844" fill="none" xmlns="http://www.w3.org/2000/svg">
<g clip-path="url(#clip0_2087_4599)">
<path d="M437.498 0.399902C438.798 0.599902 440.098 0.899901 441.298 0.999901C449.698 1.2999 458.098 1.5999 466.498 1.7999C479.898 2.1999 493.298 2.4999 506.698 2.8999C508.298 2.8999 509.798 3.1999 511.398 3.4999C514.098 3.9999 516.298 5.3999 517.998 7.4999C525.298 16.0999 532.598 24.6999 539.798 33.4999C549.198 44.9999 558.598 56.4999 567.798 68.0999C573.298 75.0999 578.598 82.2999 583.798 89.5999C591.198 99.9999 599.098 110 607.498 119.6C612.998 125.9 618.098 132.6 623.398 139.2C627.098 143.8 630.598 148.5 634.298 153.2C642.398 163.4 649.998 173.9 657.198 184.8C659.698 188.5 662.398 192.1 665.398 195.3C670.098 200.2 672.498 206.1 673.298 212.9C674.198 220.1 674.198 227.3 673.298 234.5C673.098 236.3 673.098 238.2 673.098 240C672.898 261.9 672.698 283.9 672.398 305.8C672.398 306.9 672.398 307.9 672.398 309C671.698 315.7 672.198 322.4 672.298 329.1C672.598 344.7 672.598 360.4 672.298 376C672.198 386.9 671.398 397.8 670.998 408.7C670.898 411.5 670.798 414.2 670.798 417C670.798 435.1 670.798 453.3 670.698 471.4C670.698 475.4 671.098 479.3 671.798 483.2C673.598 493.5 671.798 503.1 665.798 511.7C665.098 512.7 664.398 513.6 663.698 514.6C646.598 537.8 628.998 560.5 609.698 581.9C603.398 588.9 597.598 596.4 591.998 604C573.798 628.6 555.298 653 536.098 676.9C528.498 686.3 520.698 695.6 512.998 704.9C511.898 706.2 510.798 707.5 509.498 708.6C506.198 711.6 502.298 712.8 497.898 712.4C493.798 712.1 489.798 711.8 485.698 711.8C442.198 711.8 398.698 711.9 355.198 711.9C336.898 711.9 318.698 711.8 300.398 711.8C297.098 711.8 293.898 711.8 290.598 712.3C286.098 713 281.998 711.7 278.598 708.7C276.998 707.3 275.598 705.7 274.298 704.1C253.698 679.7 233.998 654.6 214.898 629C207.398 619 199.998 608.9 192.298 599.2C184.498 589.3 176.398 579.6 168.098 570.1C152.598 552.4 138.298 533.7 124.298 514.8C120.398 509.5 117.198 503.7 116.198 497.1C115.598 493 115.398 489 116.198 484.9C117.198 479.4 117.498 474 117.498 468.4C117.298 448.2 117.298 427.9 117.198 407.7C117.198 404.3 116.698 400.9 116.598 397.5C115.898 375.6 115.498 353.6 115.898 331.7C115.898 329.5 116.298 327.3 116.398 325C116.498 322.4 116.698 319.7 116.598 317.1C116.298 300.4 115.998 283.7 115.698 267C115.498 257.8 115.498 248.6 115.298 239.4C115.298 235.9 114.798 232.3 114.498 228.8C113.798 220.7 114.798 212.8 116.998 205C117.698 202.4 119.098 200.1 120.898 198.2C126.998 191.8 131.598 184.3 136.798 177.2C147.198 163 157.998 149.1 168.598 135C169.798 133.4 170.998 131.9 172.198 130.3C174.998 126.5 178.098 122.9 181.298 119.5C186.798 113.7 191.698 107.3 196.498 100.9C205.598 88.6999 214.698 76.4999 223.898 64.2999C224.598 63.3999 225.298 62.3999 226.098 61.4999C241.098 43.6999 255.298 25.2999 270.598 7.7999C272.998 4.9999 275.798 3.5999 279.398 3.4999C286.498 3.3999 293.598 2.9999 300.698 2.7999C323.498 2.1999 346.398 1.5999 369.198 0.999901C372.098 0.999901 374.998 0.999904 377.898 0.799904C379.098 0.799904 380.198 0.499902 381.398 0.399902C400.098 0.399902 418.698 0.399902 437.398 0.399902H437.498ZM394.498 8.3999C394.498 8.3999 394.498 8.1999 394.498 8.0999C382.298 8.3999 370.098 8.6999 357.898 8.9999C339.498 9.4999 321.098 10.0999 302.798 10.7999C295.698 11.0999 288.698 11.9999 281.698 13.1999C278.598 13.6999 276.498 15.1999 274.898 17.8999C273.098 20.8999 270.798 23.6999 268.598 26.4999C266.798 28.7999 264.798 30.8999 263.098 33.1999C251.698 47.7999 239.698 61.8999 227.898 76.1999C224.098 80.7999 220.598 85.4999 217.298 90.3999C213.898 95.4999 210.298 100.6 206.398 105.3C195.798 118.2 185.298 131.2 174.798 144.1C163.198 158.2 152.198 172.8 141.698 187.7C137.098 194.3 132.298 200.7 126.298 206.1C125.898 206.5 125.598 206.9 125.198 207.2C123.798 208.6 123.198 210.2 123.298 212.2C123.298 213.4 123.298 214.6 123.298 215.7C123.598 233.7 123.698 251.7 124.098 269.7C124.298 279.3 124.598 288.9 124.998 298.5C125.798 316.8 125.698 335 124.298 353.2C123.998 356.7 123.998 360.3 124.298 363.8C124.898 371.1 125.398 378.5 125.398 385.8C125.398 389.9 125.398 393.9 125.398 398C125.398 427.3 125.598 456.6 125.698 485.9C125.698 490.2 125.698 494.6 125.698 498.9C125.698 501.2 126.298 503.3 127.698 505.1C133.598 512.8 139.198 520.8 145.298 528.3C157.898 543.8 170.798 559 183.698 574.3C212.298 608.1 239.698 642.9 265.498 678.9C266.998 681 268.598 683.1 270.298 685.2C274.298 690.1 278.698 694.6 283.398 698.8C285.698 700.8 288.298 701.9 291.298 701.8C292.498 701.8 293.698 701.8 294.798 701.8C305.298 701.8 315.798 701.6 326.298 701.6C350.098 701.8 373.798 701.1 397.598 702C401.498 702.2 405.498 702 409.398 702C438.398 702 467.498 701.8 496.498 701.8C500.098 701.8 503.098 700.8 505.798 698.4C511.698 693.1 517.098 687.4 521.698 680.9C545.698 647.3 571.098 614.8 597.498 583.1C610.698 567.2 624.098 551.6 637.398 535.8C645.398 526.3 652.998 516.7 660.098 506.6C662.098 503.8 663.098 500.9 663.098 497.4C663.098 466.3 663.098 435.1 663.198 404C663.198 391 663.498 378 664.498 365C664.998 358.4 665.398 351.9 664.498 345.3C663.598 338 663.298 330.6 663.298 323.3C663.298 317.3 663.298 311.2 663.498 305.2C663.498 300.6 663.498 296 664.098 291.4C664.598 287.1 664.798 282.8 664.798 278.4C664.798 276.7 664.798 275 664.798 273.3C664.998 253.9 665.198 234.4 665.498 215C665.498 210.7 664.298 207.5 660.998 204.6C655.498 199.8 651.198 194 647.198 188C640.598 178.2 633.698 168.6 626.298 159.4C617.298 148.2 608.098 137.3 599.098 126.1C590.398 115.3 581.298 104.6 573.398 93.0999C566.998 83.7999 559.798 74.9999 552.698 66.2999C544.598 56.3999 536.298 46.7999 528.798 36.4999C527.598 34.8999 526.198 33.4999 524.898 32.0999C520.998 27.9999 517.298 23.6999 514.498 18.7999C514.098 18.0999 513.698 17.4999 513.198 16.7999C511.598 14.6999 509.598 13.3999 506.998 12.9999C500.298 11.8999 493.498 10.8999 486.698 10.6999C476.698 10.2999 466.698 10.0999 456.798 9.7999C451.398 9.5999 445.998 9.4999 440.698 9.2999C433.498 8.9999 426.298 8.4999 418.998 8.2999C410.898 8.0999 402.698 8.2999 394.598 8.2999L394.498 8.3999Z" fill="black"/>
<path d="M133.2 382.6C133.2 372.3 133.2 354.6 133.2 336.8C133.2 321.2 133.2 305.5 133.1 289.9C133.1 286.1 132.7 282.3 132.3 278.5C131.3 268.3 130.8 258.1 131.4 247.8C131.8 242.2 132.2 236.5 132.5 230.9C132.7 227.8 132.7 224.6 132.6 221.4C132.6 219.4 132.9 217.4 133.9 215.7C135.6 213 137.2 210.3 139.1 207.9C149 195.6 158.9 183.4 169 171.2C177.6 160.8 186 150.1 194.2 139.4C202.4 128.8 210.6 118.2 218.9 107.7C234.4 88.2998 249.2 68.3998 263.9 48.3998C266.5 44.8998 268.7 41.1998 271 37.4998C272.4 35.2998 273.7 32.9998 275.3 30.8998C276.8 28.8998 278.4 26.9998 280.1 25.1998C282.7 22.4998 285.9 21.0998 289.6 21.0998C290 21.0998 290.4 21.0998 290.8 21.0998C307.1 20.2998 323.3 19.3998 339.6 18.8998C350.5 18.4998 361.4 18.5998 372.3 18.5998C387.4 18.5998 402.5 18.2998 417.6 18.3998C428.8 18.3998 439.9 18.7998 451.1 19.1998C456.9 19.3998 462.6 19.7998 468.4 19.9998C477.6 20.3998 486.8 20.7998 496 21.0998C497 21.0998 498.1 21.0998 499.1 21.1998C502.4 21.3998 505.1 22.4998 507.6 24.8998C510.1 27.2998 512.3 29.7998 514 32.7998C519.7 42.3998 526.2 51.4998 533 60.2998C551.6 84.3998 570.3 108.5 588.9 132.7C596.4 142.4 603.8 152.1 611.3 161.7C613.4 164.4 615.6 167 617.9 169.6C624.1 176.6 629.9 183.8 635.5 191.3C638 194.7 640.6 198 643.1 201.4C645 203.9 647.1 206.3 649.4 208.4C650.4 209.2 651.3 210.3 651.9 211.4C654.2 215.6 655.7 220 656 224.8C656.9 239.9 656.4 255 656.3 270.1C656.1 285.1 655.8 300.1 655.7 315C655.5 335 655.6 354.9 655.4 374.9C655.4 380.7 655.4 386.5 654.8 392.2C654.3 397.3 654 402.4 654 407.5C653.8 426.2 653.6 444.8 653.5 463.5C653.5 473.5 653.5 483.5 653.5 493.5C653.5 496.8 652.7 499.7 651 502.4C648.2 506.9 645.3 511.2 642 515.3C604.4 562.3 566.9 609.3 529.3 656.3C520.7 667.1 512 677.8 503.4 688.6C503 689.1 502.6 689.6 502.2 690.1C501.2 691.3 500 691.9 498.4 691.9C498 691.9 497.6 691.9 497.2 691.9C483.7 691.4 470.1 692.3 456.6 692.6C427.4 693.2 398.3 693.3 369.1 693.1C347.2 692.9 325.2 692.6 303.3 692.4C299 692.4 294.6 692.1 290.3 692.1C288.3 692.1 286.9 691.3 285.7 689.7C274.5 675.5 263.2 661.3 251.9 647.1C225.3 613.4 198.4 579.9 171.2 546.6C162.3 535.7 153.6 524.6 145 513.5C142 509.7 139.5 505.5 136.8 501.4C135.2 499 134.9 496.3 134.8 493.5C134.7 486.5 134.6 479.6 134.5 472.6C134 445 133.5 417.4 132.9 382.4L133.2 382.6ZM645.7 356.8C645.7 356.8 645.7 356.8 645.6 356.8C645.8 348.5 646 340.2 646.2 332C646.4 322.1 646.7 312.3 646.6 302.4C646.4 275.2 646 248 645.8 220.8C645.8 218.4 645 216.6 643.5 214.8C638.6 209.3 633.7 203.8 629.1 198.1C611.3 176.5 593.7 154.8 576 133.1C575.2 132.1 574.3 131.1 573.6 130C568.9 122.6 563.3 115.7 557.7 108.9C554.7 105.3 552 101.4 549.1 97.5998C547.8 95.7998 546.6 93.8998 545.1 92.1998C532.1 76.6998 520.1 60.3998 509.2 43.2998C507.2 40.1998 505.1 37.1998 503 34.0998C500.6 30.5998 497.3 28.8998 493 28.7998C485 28.5998 477 28.2998 469 28.0998C447.6 27.5998 426.2 27.3998 404.8 27.5998C370.4 27.8998 336 27.7998 301.6 28.7998C299.9 28.7998 298.2 28.7998 296.5 28.7998C291.7 28.7998 287.9 30.6998 285.2 34.7998C283.5 37.2998 281.8 39.7998 280.2 42.2998C271 56.8998 261.1 70.8998 250.2 84.2998C245.7 89.7998 241.4 95.3998 237.1 101.1C229.4 111.3 221.7 121.4 214 131.5C202.7 146.3 190.9 160.8 178.6 174.9C174.5 179.6 170.5 184.5 166.5 189.5C159.9 197.8 153.2 206.1 145.7 213.7C142.7 216.7 141.2 220.4 141.2 224.7C141.2 231.7 140.9 238.6 141 245.6C141.2 269.5 141.5 293.4 141.9 317.3C142.2 338.1 142.5 358.8 142.8 379.6C142.8 382.1 142.9 384.6 143.1 387.1C143.3 390.2 143.6 393.4 143.6 396.5C143.8 404.1 143.8 411.7 144 419.4C144.2 429.4 144.7 439.4 144.8 449.3C145 464 145.1 478.7 145 493.5C145 496.8 145.9 499.6 147.6 502.4C151.5 508.8 156 514.8 161.1 520.3C174.5 535.1 187.5 550.3 200.1 565.8C212.7 581.3 225.5 596.6 238.2 612C240.9 615.2 243.5 618.5 246 621.9C260.1 640.5 274.8 658.8 289.5 676.9C291.7 679.7 294.2 681.1 297.8 681.2C304.1 681.2 310.4 681.7 316.7 682C325.5 682.4 334.3 683 343.1 683.2C355.1 683.4 367 683.4 379 683.4C394.9 683.4 410.8 683.7 426.7 683.4C447.2 683 467.7 682.2 488.1 681.5C489.4 681.5 490.7 681.2 492 681.1C495.2 680.7 497.7 679.2 499.5 676.5C500.3 675.3 501.2 674.2 502.2 673.1C508 666 513.9 658.9 519.6 651.7C530.8 637.5 541.8 623.1 553.2 608.9C563.6 596 574.3 583.4 584.8 570.6C599.5 552.7 614.1 534.8 629.7 517.7C633.3 513.7 636.4 509.2 639.5 504.8C642.4 500.7 643.8 496.3 643.7 491.2C643.7 481.3 643.9 471.5 644 461.6C644.2 443.7 644.4 425.9 644.7 408C645 390.9 645.4 373.8 645.8 356.8H645.7Z" fill="black"/>
<path d="M323.499 639C322.699 639 321.899 639 321.099 639C320.599 639 320.199 638.6 319.999 638.2C319.199 637 318.499 635.7 317.699 634.5C315.899 631.5 314.099 628.6 312.299 625.6C312.299 625.5 312.099 625.4 311.999 625.3V638.7C311.999 638.7 311.999 638.9 311.799 638.9C310.999 639 310.099 639.1 309.299 638.9C309.099 638.9 308.999 638.9 308.899 638.7C308.799 638.6 308.699 638.4 308.799 638.3C308.799 637 308.799 635.8 308.799 634.5C308.799 633.4 308.799 632.3 308.799 631.2C308.799 628.7 308.799 626.3 308.799 623.8C308.799 622.3 308.799 620.8 308.799 619.3C308.799 618.5 308.899 618.5 309.699 618.6C310.199 618.6 310.699 618.6 311.199 618.6C311.799 618.6 312.399 618.9 312.599 619.4C313.699 621.3 314.999 623.2 316.099 625.1C317.399 627.2 318.699 629.3 319.999 631.4C319.999 631.6 320.199 631.7 320.399 631.9C320.399 632 320.699 631.9 320.699 631.9C320.699 631.7 320.699 631.6 320.699 631.4C320.699 629 320.699 626.6 320.699 624.1V619.2C320.699 618.6 320.799 618.5 321.499 618.5C322.199 618.5 322.899 618.5 323.599 618.6C323.599 618.6 323.799 618.6 323.799 618.8C323.999 620.7 323.999 636.6 323.799 638.6C323.799 638.6 323.799 638.8 323.599 638.8L323.499 639Z" fill="black"/>
<path d="M348.2 618.8C348.4 618.8 348.5 619 348.5 619.1C348.5 619.9 348.5 620.7 348.5 621.4C348.5 622 348.3 622.1 347.7 622.2H347.4C344 622.2 340.7 622.2 337.3 622.3C337.1 622.3 336.9 622.3 336.7 622.3C336.6 622.3 336.4 622.4 336.4 622.6C336.2 623.9 336.2 625.1 336.2 626.4C336.2 626.5 336.2 626.6 336.4 626.7C336.6 626.8 336.5 626.7 336.6 626.7C338.5 626.7 340.3 626.7 342.2 626.7H342.5C343.2 626.7 343.4 626.9 343.4 627.6C343.4 628.2 343.4 628.8 343.4 629.4C343.4 630 343.4 629.7 343.4 629.8C343.4 629.9 343.3 630.1 343.1 630.1C342.9 630.1 342.7 630.1 342.5 630.1C340.7 630.1 338.9 630.1 337.1 630.1H336.5C336.3 630.1 336.2 630.2 336.2 630.4C336.2 630.6 336.2 630.7 336.2 630.9C336.2 632.1 336.2 633.3 336.2 634.4C336.2 635.1 336.3 635.2 337 635.2C338.6 635.2 340.2 635.2 341.9 635.2C343.8 635.2 345.7 635.2 347.6 635.2C348.3 635.2 348.5 635.4 348.5 636.1C348.5 636.8 348.5 637.5 348.5 638.3C348.5 638.5 348.4 638.6 348.2 638.6C348 638.6 347.8 638.6 347.6 638.6C343 638.6 338.4 638.6 333.8 638.6C333 638.6 333 638.6 333 637.7C333 634.3 333 630.9 333 627.5V619.5C333 618.3 333 618.3 334.1 618.3C338.5 618.3 342.9 618.3 347.3 618.3C347.5 618.3 347.8 618.3 348.1 618.3L348.2 618.8Z" fill="black"/>
<path d="M377.8 618.7C378 618.7 378.2 618.9 378.1 619.1C378.1 619.3 378.1 619.6 378.1 619.8L376.7 625.9C376.5 626.7 376.3 627.5 376.1 628.3C375.9 629.3 375.7 630.2 375.4 631.2C375.2 632.1 375 633 374.8 633.9C374.5 635.3 374.1 636.7 373.8 638C373.8 638.4 373.5 638.7 373.1 638.7C373.1 638.7 373.1 638.7 373 638.7C373 638.7 373 638.7 372.9 638.7C372.5 638.7 372.1 638.8 371.9 638.8C371.2 638.8 371.1 638.5 370.9 637.8C370.9 637.7 370.9 637.6 370.8 637.4C370.5 636.4 370.2 635.4 369.9 634.5L369.7 633.8C369.5 633.3 369.4 632.7 369.2 632.2C368.9 631.3 368.7 630.5 368.4 629.6C368.3 629.2 368.1 628.8 368 628.4C367.9 628 367.7 627.6 367.6 627.2C367.4 626.6 367.3 626 367 625.5C367 625.4 366.9 625.3 366.8 625.3C366.8 625.3 366.6 625.3 366.6 625.4C366.6 625.6 366.5 625.7 366.4 625.9C366.3 626.3 366.2 626.7 366.1 627.1C366.1 627.4 365.9 627.7 365.8 628C365.6 628.6 365.5 629.1 365.3 629.7C365.3 630 365.1 630.2 365.1 630.5C364.9 631.3 364.6 632.1 364.4 632.9C364.1 634 363.7 635.2 363.4 636.3C363.2 636.8 363 637.4 362.9 637.9L362.7 638.4C362.7 638.6 362.5 638.7 362.3 638.7H360.7C360.2 638.7 359.9 638.4 359.8 637.9C359.8 637.6 359.6 637.2 359.5 636.9C359.4 636.5 359.3 636.1 359.2 635.6C358.8 633.9 358.4 632.2 358 630.5C357.8 629.4 357.5 628.4 357.3 627.3C357.1 626.2 356.8 625.1 356.6 624.1C356.4 623.4 356.3 622.7 356.1 622C355.9 621.2 355.7 620.3 355.5 619.5C355.5 619.3 355.5 619 355.5 618.8C355.5 618.6 355.6 618.4 355.8 618.4C356.5 618.4 357.1 618.4 357.8 618.4C358 618.4 358.1 618.5 358.1 618.7L358.5 620.3C358.9 622 359.4 623.7 359.8 625.3C360.2 626.9 360.6 628.4 361.1 630C361.3 630.7 361.5 631.4 361.7 632C361.7 631.8 361.9 631.6 361.9 631.5V631.2C362.8 628.6 363.6 625.9 364.5 623.3C364.6 622.9 364.7 622.5 364.8 622.1C364.8 621.8 365 621.4 365 621.1C365 620.9 365.1 620.7 365.2 620.4C365.3 619.9 365.5 619.2 365.7 618.8C365.9 618.2 366.4 618.3 366.8 618.3C366.9 618.3 367.1 618.3 367.2 618.3C367.6 618.3 368.2 618.3 368.3 618.9C368.7 620.1 369.1 621.3 369.4 622.6C369.6 623.6 369.9 624.5 370.3 625.5C370.4 625.7 370.5 625.9 370.5 626.2C370.9 627.7 371.3 629.1 371.8 630.6C371.8 630.7 371.8 630.9 371.8 631C371.8 631.1 371.8 631.3 371.8 631.4C371.8 631.6 371.9 631.8 372 632C372.9 629.3 373.7 626.5 374.4 623.8C374.8 622.1 375.3 620.4 375.8 618.7C375.8 618.6 376 618.4 376.1 618.4C376.8 618.3 377.4 618.3 378.1 618.4L377.8 618.7Z" fill="black"/>
<path d="M406.101 638.9C405.301 638.9 404.401 639 403.601 638.9C403.401 638.9 403.301 638.7 403.301 638.6C403.301 638.3 403.301 638 403.301 637.7C403.301 635.3 403.301 632.9 403.301 630.4C403.301 629.7 403.001 628.9 402.601 628.4C401.801 627.2 401.001 626 400.201 624.8C399.501 623.8 398.901 622.8 398.201 621.7C397.701 620.9 397.301 620.2 396.801 619.4C396.801 619.4 396.801 619.2 396.801 619.1C396.901 618.8 397.201 618.7 397.501 618.7C398.201 618.7 398.801 618.7 399.501 618.7C399.901 618.7 400.301 618.9 400.501 619.3C401.201 620.4 401.901 621.6 402.701 622.7C403.501 623.8 404.001 624.9 404.801 626C404.801 626 404.901 626 405.001 626.1C405.501 625.5 405.801 625 406.201 624.3C406.401 624 406.601 623.6 406.901 623.3C407.401 622.5 407.901 621.8 408.401 621C408.801 620.4 409.101 619.9 409.501 619.3C409.701 618.9 410.101 618.7 410.601 618.7C411.201 618.7 411.801 618.7 412.401 618.7C412.701 618.7 412.801 618.7 413.101 619.1C413.101 619.1 413.201 619.3 413.101 619.5C413.101 619.6 413.101 619.7 413.001 619.8C412.101 621.2 411.201 622.5 410.301 623.9C409.501 625.2 408.601 626.5 407.801 627.9C407.701 628.1 407.601 628.3 407.401 628.5C407.001 629 406.801 629.6 406.801 630.3C406.801 633 406.801 635.6 406.701 638.3C406.701 638.4 406.701 638.6 406.701 638.8C406.701 639 406.601 639.1 406.401 639.1L406.101 638.9Z" fill="black"/>
<path d="M425.599 618.6C427.499 618.6 429.399 619.1 430.799 620.4C431.999 621.4 432.999 622.7 433.699 624.2C434.199 625.3 434.499 626.4 434.399 627.6C434.399 628.4 434.399 629.2 434.399 630C434.399 631.9 433.799 633.8 432.999 635.5C432.499 636.3 431.899 637 431.199 637.5C430.399 638.1 429.499 638.6 428.499 638.9C427.899 639.2 427.199 639.3 426.599 639.2C425.399 639.2 424.199 639 422.999 638.6C422.499 638.4 422.099 638.2 421.699 637.9C421.099 637.5 420.499 637.1 419.999 636.6C419.299 635.9 418.699 635.1 418.399 634.2C416.999 630.4 417.299 626.2 418.999 622.5C419.599 621.4 420.599 620.4 421.599 619.6C422.199 619.2 422.799 618.9 423.399 618.6C423.699 618.5 424.099 618.4 424.399 618.4C424.799 618.4 425.199 618.4 425.499 618.4L425.599 618.6ZM430.999 626.3C430.899 625.7 430.599 625.1 430.199 624.5C430.099 624.1 429.799 623.8 429.599 623.5C428.699 622.7 427.499 622.2 426.299 622C424.499 622 422.799 622.9 421.899 624.4C420.999 625.9 420.699 627.6 420.999 629.3C421.199 630.6 421.599 631.8 422.199 632.9C422.999 634.5 424.699 635.5 426.499 635.4C427.299 635.4 428.099 635.2 428.799 634.6C429.099 634.3 429.499 634 429.799 633.8C430.299 633.5 430.599 633 430.799 632.5C431.099 631.3 431.299 630.1 431.399 628.9C431.299 628 431.099 627.1 430.999 626.2V626.3Z" fill="black"/>
<path d="M458.098 639H457.298C456.598 639 455.898 639 455.198 639C454.598 639 453.898 638.7 453.698 638.1C453.098 636.8 452.398 635.6 451.798 634.3C451.298 633.3 450.698 632.3 450.198 631.3C449.898 630.6 449.098 630.2 448.298 630.3C447.598 630.3 446.998 630.3 446.298 630.3C446.098 630.3 445.998 630.4 445.998 630.6C445.798 633.3 445.698 635.9 445.798 638.6C445.798 638.8 445.798 638.9 445.498 639C445.498 639 445.498 639 445.398 639C444.598 639 443.698 639 442.898 639C442.898 639 442.798 639 442.598 638.9C442.598 638.6 442.598 638.4 442.598 638.1C442.598 633.6 442.598 629 442.598 624.5C442.598 622.9 442.598 621.3 442.598 619.7C442.598 618.9 442.598 618.8 443.498 618.8C445.898 618.8 448.298 618.8 450.698 618.8H452.698C454.198 618.8 455.698 619.6 456.598 620.9C456.998 621.4 457.298 622 457.498 622.6C457.498 622.7 457.598 622.9 457.598 623.1C457.598 624.4 457.398 625.7 457.098 626.9C456.698 628.1 455.798 629.1 454.698 629.7C453.798 630.2 453.698 630.3 454.198 631.2C454.898 632.6 455.698 633.9 456.398 635.3C456.998 636.4 457.598 637.5 458.198 638.6C458.198 638.6 458.198 638.7 458.198 638.9L458.098 639ZM445.698 625.8C445.698 626 445.698 626.2 445.898 626.4C446.098 626.6 446.298 626.6 446.498 626.6C448.398 626.6 450.298 626.6 452.198 626.6C452.698 626.6 453.198 626.3 453.398 625.9C453.798 625.2 453.898 624.3 453.698 623.5C453.598 623 453.098 622.6 452.598 622.5C450.498 622.5 448.298 622.5 446.198 622.5C446.098 622.5 445.898 622.5 445.798 622.6C445.798 623.7 445.798 624.7 445.798 625.8H445.698Z" fill="black"/>
<path d="M481.399 638.8C480.299 639 479.199 639.1 478.099 639.1C477.599 638.4 477.099 637.7 476.599 637C475.399 635.2 474.299 633.3 473.099 631.5C472.799 631.1 472.599 630.7 472.199 630.3C471.999 630.1 471.799 630 471.599 629.8C471.599 629.8 471.599 629.8 471.499 629.8C470.699 630.6 469.999 631.3 469.299 632C468.999 632.5 468.799 633.1 468.899 633.7C468.899 634.9 468.899 636.1 468.899 637.3C468.899 637.8 468.899 638.2 468.699 638.7C467.899 638.8 467.099 638.8 466.299 638.7C465.899 638.7 465.699 638.4 465.699 638C465.699 637 465.699 636 465.699 635C465.699 631.4 465.699 627.7 465.699 624.1C465.699 622.5 465.699 621 465.699 619.4C465.699 618.8 465.799 618.7 466.499 618.7C467.299 618.7 467.999 618.7 468.899 618.8C468.899 619.1 468.899 619.4 468.899 619.7C468.899 621.5 468.799 623.4 468.799 625.2C468.799 625.8 468.799 626.4 468.799 627C468.799 627 468.799 627.1 468.899 627C469.299 626.8 469.699 626.6 470.099 626.2C471.399 625 472.599 623.8 473.899 622.6C475.199 621.3 476.599 620.1 477.899 618.9C478.299 618.6 478.799 618.4 479.299 618.5C479.899 618.5 480.499 618.5 481.199 618.6C481.399 618.6 481.599 618.8 481.799 618.9C481.799 618.9 481.799 618.9 481.799 619C481.099 619.8 480.399 620.5 479.799 621.2C479.399 621.6 478.899 622 478.499 622.4C477.299 623.6 475.999 624.8 474.799 626.1C474.299 626.6 474.299 626.8 474.599 627.4C476.499 630.9 478.699 634.2 480.899 637.5C481.099 637.8 481.199 638 481.399 638.3V638.4V638.8Z" fill="black"/>
<path d="M538.199 191.6C538.899 192.8 539.499 193.8 540.099 194.9C540.499 195.8 540.599 196.8 540.399 197.8C540.199 198.9 539.799 200 539.199 201C538.699 202 537.699 202.7 536.599 202.9C535.799 203 534.899 203.1 533.999 203.1C532.399 203.1 530.699 203.1 529.099 203.1C527.999 203.1 526.899 203.1 525.799 203C525.199 203 524.499 203 523.899 203C523.299 203 523.199 203 523.199 202.4C523.199 201.9 523.199 201.5 523.199 201C523.199 196.3 523.199 191.6 523.199 186.9C523.199 185.5 523.199 184.2 523.199 182.8C523.199 182.6 523.199 182.4 523.199 182.2C523.199 181.9 523.399 181.6 523.699 181.4C523.999 181.2 524.299 181.1 524.599 181.1C526.999 181.1 529.499 181.1 531.899 181.1H534.199C535.899 181.1 537.399 182 538.399 183.4C538.799 184 539.199 184.7 539.399 185.4C539.399 185.6 539.499 185.9 539.499 186.1C539.499 187.9 539.099 189.8 538.299 191.4C538.299 191.4 538.299 191.4 538.299 191.5L538.199 191.6ZM531.099 184.5C531.099 184.5 528.899 184.5 527.799 184.5C527.099 184.5 526.699 184.8 526.699 185.4C526.699 186.4 526.699 187.5 526.699 188.5C526.699 188.8 526.699 189.1 526.899 189.3C527.099 189.5 527.399 189.6 527.599 189.6C527.899 189.6 528.199 189.6 528.599 189.6C530.699 189.6 532.799 189.6 534.799 189.5C535.499 189.5 536.099 188.9 536.299 188.3C536.499 187.5 536.499 186.7 536.099 185.9C535.899 185 534.999 184.4 534.099 184.5H531.099ZM534.099 200.1C534.899 200.1 535.699 199.8 536.099 199.1C536.999 197.9 537.099 196.3 536.399 194.9C535.999 194.1 535.199 193.5 534.299 193.5C532.699 193.5 531.099 193.5 529.599 193.5C528.099 193.5 527.899 193.5 526.899 193.5C526.699 195.6 526.699 197.8 526.899 199.9C529.399 199.9 531.699 200 533.899 200L534.099 200.1Z" fill="black"/>
<path d="M526.501 223.1C526.501 223.2 526.501 223.3 526.301 223.3C525.401 223.3 524.501 223.3 523.701 223.3C523.201 223.3 522.701 222.9 522.501 222.4C521.701 221 520.901 219.7 520.001 218.3C518.001 215.1 516.101 211.9 514.101 208.7C514.001 208.6 513.901 208.5 513.801 208.4V223C513.801 223 513.801 223.2 513.601 223.2C512.701 223.3 511.801 223.4 510.901 223.3C510.701 223.3 510.601 223.3 510.501 223.1C510.401 223 510.301 222.8 510.301 222.6C510.301 221.2 510.301 219.9 510.301 218.5C510.301 217.3 510.301 216.1 510.301 214.9C510.301 212.2 510.301 209.6 510.301 206.9C510.301 205.3 510.301 203.7 510.301 202.1C510.301 201.3 510.401 201.2 511.301 201.3C511.801 201.3 512.401 201.3 512.901 201.3C513.601 201.3 514.201 201.6 514.501 202.2C515.701 204.3 517.001 206.3 518.301 208.4C519.701 210.7 521.101 212.9 522.501 215.2C522.601 215.4 522.701 215.5 522.901 215.7C523.001 215.8 523.201 215.7 523.301 215.7C523.301 215.5 523.301 215.3 523.301 215.2C523.301 212.6 523.301 209.9 523.301 207.3V202C523.301 201.3 523.501 201.2 524.101 201.3C524.901 201.3 525.601 201.3 526.401 201.4C526.401 201.4 526.601 201.4 526.601 201.6C526.801 203.7 526.801 220.9 526.601 223.1H526.501Z" fill="black"/>
<path d="M540.6 250.8C539.7 250.9 538.8 250.9 537.9 250.8C537.7 250.8 537.6 250.6 537.6 250.4C537.6 250 537.6 249.7 537.6 249.4C537.6 246.8 537.6 244.1 537.6 241.5C537.6 240.7 537.3 239.9 536.8 239.3C535.9 238 535.1 236.7 534.2 235.4C533.5 234.3 532.7 233.2 532 232.1C531.5 231.3 531 230.4 530.5 229.6C530.5 229.6 530.5 229.4 530.5 229.3C530.6 229 530.9 228.8 531.2 228.8C531.9 228.8 532.6 228.8 533.4 228.8C533.8 228.8 534.3 229 534.5 229.4C535.3 230.6 536 231.9 536.9 233C537.8 234.1 538.3 235.4 539.2 236.5C539.2 236.5 539.3 236.5 539.5 236.6C540 236 540.4 235.4 540.8 234.7C541 234.3 541.3 234 541.5 233.6C542 232.8 542.6 232 543.1 231.1C543.5 230.5 543.9 229.9 544.3 229.3C544.6 228.9 545 228.6 545.5 228.7C546.1 228.7 546.8 228.7 547.4 228.7C547.8 228.7 547.8 228.7 548.1 229.1C548.1 229.2 548.2 229.4 548.1 229.5C548.1 229.6 548.1 229.7 547.9 229.8C546.9 231.3 546 232.7 545 234.2C544.1 235.6 543.2 237.1 542.3 238.5C542.2 238.7 542 238.9 541.9 239.1C541.5 239.6 541.2 240.3 541.3 241C541.3 243.9 541.3 246.8 541.2 249.6C541.2 249.8 541.2 249.9 541.2 250.1C541.2 250.3 541 250.4 540.9 250.4L540.6 250.8Z" fill="black"/>
<path d="M378.702 195C380.802 198.1 382.602 200.9 384.402 203.6C384.902 204.4 385.202 205.5 385.502 206.4C387.602 213.3 385.202 217.3 378.202 218.9C377.802 218.9 377.502 219.1 377.002 219.3C377.002 219.8 376.802 220.3 377.002 220.7C379.102 230.2 381.302 239.6 386.002 248.3C388.102 252.3 389.302 256.6 390.302 261.2C391.602 267.5 392.902 273.8 394.802 279.8C399.102 293.1 402.002 306.8 404.902 320.4C405.902 324.7 407.202 328.8 409.302 332.7C411.602 337 413.702 341.5 415.302 346.1C418.502 355.3 424.302 361.9 433.102 366.1C436.802 367.9 440.402 370.1 444.002 372C452.302 376.3 459.502 381.8 466.102 388.3C469.602 391.8 473.302 395.4 476.702 399C481.002 403.6 484.402 408.9 487.202 414.6C490.002 420.3 492.302 426.1 494.902 431.8C496.102 434.5 497.302 437.1 498.802 439.5C501.302 443.3 505.002 444.8 509.502 444.4C520.602 443.2 527.602 436.5 529.102 425.3C529.502 421.8 528.002 419 525.402 416.7C522.602 414.2 519.702 411.7 517.302 408.8C511.902 402.3 509.602 394.7 510.602 386.3C511.502 378.5 515.702 372.6 522.102 368.6C526.402 365.8 531.102 366.4 535.202 369.2C538.602 371.4 540.802 374.6 542.402 378.2C544.902 384 545.602 390.1 546.602 396.1C547.002 398.3 547.302 400.5 547.502 402.8C547.902 407.1 549.702 410.4 553.102 413.1C555.602 415.1 558.102 417 560.402 419.1C561.702 420.3 563.002 421.6 564.002 422.9C565.102 424.2 565.802 426.1 564.402 427.4C563.302 428.4 561.602 428.9 560.102 429.1C558.802 429.3 557.402 428.7 556.002 428.3C555.102 428.1 554.302 427.8 553.402 427.6C549.302 426.5 547.702 427.2 546.002 431.2C544.702 434.5 543.402 437.8 542.102 441C541.002 443.4 540.002 445.9 538.702 448.2C534.602 455.7 528.102 459.6 519.702 459.9C514.002 460.2 508.302 460.1 502.802 459.7C499.702 459.5 496.702 458.6 493.702 457.7C489.602 456.4 488.502 456.7 487.202 460.7C485.202 467.3 485.002 473.7 487.402 480.3C490.102 487.8 493.802 494.6 498.902 500.5C503.902 506.4 509.102 511.9 514.502 517.4C520.002 523.2 522.002 529.9 520.502 537.5C518.202 549.1 519.402 560.3 523.802 571.2C524.302 572.6 524.802 574 525.102 575.5C526.802 582.7 525.102 588.8 519.202 593.3C516.202 595.6 513.102 598 509.602 599.2C506.402 600.3 502.702 599.8 499.202 599.8C495.702 599.8 497.802 598.8 497.202 598.1C494.402 594.2 494.402 588.2 497.602 584.4C499.002 582.8 500.502 581.3 502.102 579.9C505.602 576.9 506.402 573.5 504.802 569.1C500.902 558.6 497.302 548 493.502 537.4C490.402 528.6 483.702 522.9 476.502 517.7C475.102 516.7 473.502 515.8 471.902 515C459.502 508.7 450.302 499.1 443.102 487.4C440.002 482.3 437.402 477 434.502 471.9C432.802 468.8 431.002 465.8 429.402 462.7C427.902 459.7 425.602 457.6 422.502 456.7C418.402 455.5 415.002 453.3 411.602 450.8C406.102 446.7 404.302 447.3 402.602 454C401.102 460.3 401.802 466.5 403.002 472.7C404.002 477.7 405.702 482.4 408.102 486.9C409.402 489.3 410.602 491.9 411.402 494.5C413.302 500.3 411.402 504.6 405.902 507.3C404.502 508 402.902 508.6 401.302 509C396.902 509.8 393.002 512 389.202 514.2C385.202 516.5 381.002 518.7 377.002 520.8C373.302 522.7 370.802 525.2 369.602 529.3C367.102 538.5 360.902 542.4 351.502 541.3C347.902 540.9 344.202 540.5 340.602 540.2C337.002 540 334.002 538.5 331.602 536C329.202 533.7 328.802 531.1 330.302 528.1C331.102 526.4 332.302 524.8 333.502 523.5C338.602 517.7 344.402 512.8 351.402 509.2C357.802 506 363.102 501.4 367.702 496C371.602 491.3 372.202 486.3 370.102 480.8C367.602 474.5 365.002 468.2 362.502 461.9C359.602 454.7 356.802 447.3 355.302 439.7C353.702 431.8 355.602 424.7 359.902 418.1C363.302 413 367.502 408.7 372.402 405.1C377.102 401.6 382.502 400.2 388.402 400.3H397.302C396.402 399.3 395.902 398.4 395.202 398.1C392.502 396.8 389.802 395.4 386.902 394.5C382.702 393 378.602 391.7 374.402 390.2C364.702 386.7 356.102 381.3 348.002 375C343.702 371.6 339.502 368.3 335.102 365.1C330.802 361.8 326.902 358.1 324.102 353.3C320.802 347.8 316.802 347 311.402 350.7C309.302 352.2 307.202 354 305.402 355.8C298.302 362.7 290.102 368 281.402 372.7C279.502 373.7 277.602 374.7 275.702 375.7C271.702 377.9 268.202 380.8 265.802 384.8C262.602 390.2 259.602 395.7 256.502 401.2C255.402 403.2 254.602 405.4 253.502 407.3C251.302 411.1 250.502 415.2 250.502 419.6C250.502 424 250.202 425.9 249.302 428.8C248.502 431.2 246.802 433.5 245.002 435.4C241.702 438.9 236.802 439.4 232.402 437.4C226.102 434.5 222.302 428 223.502 421.1C224.202 416.8 225.602 412.6 227.202 408.5C229.002 404 231.402 399.6 233.402 395.2C236.002 389.5 239.402 384.4 243.602 379.9C250.002 372.9 254.702 364.9 257.402 355.9C260.102 346.9 265.202 339.3 271.402 332.5C275.802 327.7 280.502 323.1 285.002 318.3C288.702 314.2 292.402 310 296.102 305.9C299.302 302.3 300.302 298.3 298.702 293.7C298.202 292.2 297.702 290.6 297.302 289C296.202 285.4 295.602 281.6 296.002 277.8C296.402 273.9 295.602 270.3 293.802 266.9C290.802 261.3 288.802 255.4 287.302 249.2C286.002 243.7 283.402 238.6 280.702 233.6C277.902 228.5 275.602 223.2 273.302 217.9C271.402 213.4 270.302 208.5 270.902 203.5C271.802 196.1 265.602 192 260.402 189.5C258.102 188.4 255.702 189.5 253.502 190.5C248.502 192.8 243.702 192.3 238.902 190C235.502 188.3 233.002 185.7 231.502 182.2C229.502 177.4 230.902 173 235.602 170.7C238.302 169.4 241.302 168.4 244.202 168.2C253.202 167.6 261.902 169.7 270.302 173.3C274.702 175.2 278.102 178.4 280.702 182.4C284.902 189.1 289.902 195 295.002 200.9C297.702 204 299.602 207.7 301.802 211.3C303.502 214 304.902 216.8 306.902 219.2C310.102 222.9 313.202 222.6 315.602 218.3C316.802 216.3 317.602 214 318.302 211.6C322.702 197.5 328.502 184 336.202 171.4C337.902 168.6 340.002 166.1 342.102 163.6C352.502 151.7 365.002 142.5 378.102 133.9C379.402 133 380.602 131.9 382.402 130.4C380.602 129.6 379.602 129 378.502 128.7C376.802 128.4 375.002 128.4 373.302 128.3C368.202 127.9 364.302 125.1 361.102 121.4C359.102 119 358.302 116.1 359.002 112.9C359.602 110.2 360.802 109.4 363.402 109.3C367.202 109.3 370.902 109.6 374.602 110.5C379.602 111.7 384.702 112.5 389.902 113C396.602 113.6 402.602 115.7 408.002 119.7C416.502 126.1 424.802 132.6 431.502 140.8C433.302 142.9 435.302 144.9 437.502 146.6C444.402 152 451.502 157.2 458.602 162.6C461.802 164.9 464.702 167.5 466.902 170.9C467.302 171.6 467.802 172.4 468.202 173.2C472.302 181.2 469.302 187.7 460.602 189.9C456.402 191 452.302 190.6 448.302 189.5C443.702 188.1 438.902 187.8 434.202 187.4C426.302 186.7 418.502 185.6 410.602 184.6C406.202 184 402.302 181.8 398.802 178.9C398.102 178.4 397.502 177.7 396.802 177.2C392.402 173.8 389.302 174.3 386.402 178.9C383.402 183.5 380.502 188.9 378.602 194.6L378.702 195ZM502.102 527.7C502.102 529.9 501.802 531.9 502.102 533.7C502.502 535.5 503.302 537.2 504.302 538.8C505.502 540.7 505.602 542.4 505.502 544.6C505.302 546.9 505.502 549.4 506.002 551.6C507.002 555.2 508.402 558.8 509.502 562.3C510.802 566.6 512.102 571 513.202 575.3C514.202 579.2 512.902 582.5 509.702 585C507.902 586.3 506.202 587.8 504.502 589.3C503.302 590.5 502.102 592 503.202 594.1C506.402 594.9 509.102 593.4 511.802 592.1C520.902 587.8 523.102 582.3 519.102 573.2C514.102 561.7 512.902 549.7 514.902 537.4C516.002 531.2 514.502 526.1 510.002 521.6C505.002 516.6 500.402 511.3 495.902 505.8C489.702 498.3 485.002 489.9 481.502 480.7C478.002 471.2 478.702 462.2 482.902 453.3C486.302 446.2 488.902 445.6 494.902 450.5C497.602 452.8 500.602 454.2 504.002 454.7C514.602 456 524.002 453.2 531.902 446.1C533.802 444.4 535.402 441.9 536.102 439.5C539.502 425.5 541.402 411.3 541.202 396.9C541.202 389.8 539.902 382.9 535.702 376.8C534.902 375.6 533.802 374.4 532.702 373.5C531.302 372.4 529.802 372.9 528.502 374C527.402 375.1 527.702 376.3 528.302 377.5C529.502 379.5 530.802 381.6 532.202 383.5C535.502 388.1 537.002 393.1 536.502 398.8C535.302 409.7 534.402 420.6 533.202 431.4C532.702 436.9 529.702 441.1 525.302 444.2C520.402 447.7 515.002 449.4 509.102 449.8C501.602 450.3 495.802 447.5 491.902 441.1C490.702 439.1 489.702 437.1 488.702 435.2C484.702 427.4 480.702 419.5 476.602 411.7C474.402 407.5 471.302 404.1 467.602 401.2C465.502 399.6 463.302 398 461.702 395.9C457.202 389.9 451.102 386 444.702 382.4C438.002 378.8 431.402 374.8 425.002 370.5C418.202 366.1 413.302 359.9 410.202 352.3C407.602 346.2 404.902 340.1 402.102 334C399.302 328.1 397.302 321.8 396.202 315.4C394.202 303.6 391.202 292.1 387.902 280.5C386.402 275.4 384.902 270.1 384.002 264.8C382.802 257.4 380.502 250.4 377.302 243.7C374.102 237 372.002 230 371.202 222.8C370.802 219.1 369.402 216.3 366.702 213.8C364.802 212 363.102 211.2 360.502 211C349.502 210.3 340.102 205.9 332.702 197.5C332.202 196.9 331.502 196.4 330.402 195.4C329.302 197.7 328.202 199.5 327.602 201.4C324.202 211 320.302 220.4 315.802 229.6C310.302 240.9 306.202 252.6 303.702 264.9C301.902 273.5 301.202 281.9 304.502 290.5C307.202 297.7 305.702 304.5 301.002 310.7C292.902 321.3 284.402 331.6 274.802 341C270.102 345.5 266.302 350.7 264.502 357.1C261.002 369.1 255.502 380.1 247.902 389.9C240.602 399.3 236.502 410.3 232.102 421.1C231.302 423.1 230.902 425.5 230.902 427.8C230.902 431.3 234.002 433.1 237.302 432.1C239.502 431.5 241.202 430.1 242.102 428.2C242.802 426.6 243.402 424.9 243.602 423.2C243.902 420.1 244.002 416.9 243.902 413.8C243.702 410 244.502 406.6 246.702 403.5C248.102 401.5 249.402 399.2 250.402 396.9C254.002 389.4 258.502 382.3 263.902 376C266.702 372.6 269.302 369.1 270.402 364.6C270.402 364.4 270.802 364.2 271.002 364H274.102V358.9C277.302 358.1 279.202 361.7 282.102 360.7C282.902 359 281.902 358.1 281.102 357.2C280.302 356.4 279.302 355.7 278.802 354.7C278.302 353.8 277.702 352.5 278.002 351.7C278.302 351.1 279.802 351 280.802 350.6C281.202 350.6 281.502 350.6 281.902 350.6C283.102 347.5 283.802 347.2 286.302 349.3C287.302 350.1 288.202 351 289.102 351.8C291.002 353.3 292.902 353.8 293.802 352.7C295.202 351 293.802 349.7 292.902 348.4C292.102 347.2 290.802 346.3 291.102 344.1C292.202 344.5 293.102 344.7 293.902 345.3C295.002 345.9 295.902 346.8 297.002 347.4C299.002 348.6 300.802 348.4 302.202 347.1C303.602 345.8 304.002 344 303.102 341.9C302.702 340.8 302.002 339.9 301.402 339C300.802 337.9 300.002 336.9 299.502 335.7C299.002 334.5 297.902 332.9 299.502 332C300.902 331.2 302.102 332.5 303.002 333.5C304.102 334.7 305.002 336.2 305.902 337.5C306.902 338.7 307.802 340.3 309.802 340.3C311.302 336.7 306.302 334.1 308.102 330.5C309.002 330.5 309.902 330.5 310.702 330.3C310.202 328.5 309.502 327 309.202 325.5C308.902 324.2 308.902 322.4 310.402 322C311.302 321.7 312.902 322.6 313.602 323.4C315.002 325.1 316.002 327.2 317.302 329.1C318.702 331.1 320.202 333.2 322.002 335C323.002 336.1 324.402 336.9 326.302 335.6C325.102 329.7 318.702 326.6 318.002 320.6C319.702 319.7 320.702 320.6 321.502 321.5C323.002 323 324.402 324.6 325.802 326.2C327.102 327.7 328.302 329.4 329.602 330.9C330.502 332 331.602 332.9 333.202 332C333.202 329.9 331.702 328.6 330.502 327.2C329.102 325.4 327.602 323.7 326.302 321.9C325.602 320.8 325.102 319.3 326.302 318.5C326.902 318.1 328.602 318.5 329.202 319.2C330.802 320.6 332.002 322.5 333.402 324C334.702 325.4 336.202 326.9 337.902 327.9C339.502 328.9 340.902 327.7 340.702 325.8C340.402 324.5 339.702 323.2 339.302 322C338.902 320.8 337.702 319.6 338.902 318.2C342.302 317.5 343.602 323 347.402 321.1C347.002 319.1 343.902 318.6 345.002 315.8C346.502 317 347.902 318 349.502 319.3C350.602 316.8 350.102 315.1 349.002 313.4C348.102 312.2 347.002 311.1 346.302 309.8C345.902 309 346.002 307.9 345.902 307C347.002 307 348.102 306.5 349.002 306.8C350.202 307.2 351.202 308.4 352.502 309C353.302 309.4 354.602 309.5 355.302 309C356.002 308.5 356.102 307.2 356.002 306.3C355.802 305 355.302 303.7 354.902 302.4C360.402 301.2 360.302 301.1 364.902 296.8C365.802 296 366.902 295.2 368.002 294.8C369.902 294.2 370.902 295.1 370.902 297C370.902 298.9 370.602 299.2 370.202 300.3C369.402 302.4 368.402 304.5 367.702 306.6C364.702 315 360.002 322.4 353.502 328.6C351.402 330.6 349.502 332.9 347.502 335C351.902 332.8 356.002 330.1 360.802 328.9C361.802 331 360.802 332.3 359.802 333.3C355.002 338.4 350.202 343.6 343.302 346.2C340.402 347.3 337.602 348.9 334.802 350.3C334.202 350.7 333.702 351.3 333.202 351.8C333.402 352.1 333.502 352.3 333.602 352.6C335.602 351.9 337.702 351.5 339.502 350.5C346.102 346.5 352.502 342.4 358.902 338.3C361.102 336.9 363.202 335.1 365.302 333.6C366.202 333 367.202 332.2 368.402 333.2C368.002 335.8 366.102 337.3 364.402 338.9C357.602 345.4 350.002 350.7 341.302 354.3C339.902 354.9 338.202 355.3 337.402 357.8C339.102 357.5 340.502 357.5 341.702 357C343.802 356.1 345.802 355.1 347.702 354C351.402 351.9 355.102 349.7 358.802 347.6C360.002 347 361.402 345.8 363.202 347.3C362.402 348.5 361.802 349.9 360.802 350.9C357.902 354.3 354.202 356.8 350.102 358.4C348.202 359.2 346.002 359.6 344.702 362.5C346.602 362.1 348.002 362.1 349.102 361.5C351.302 360.6 353.402 359.5 355.602 358.5C358.102 357.3 360.602 356.1 363.102 355C364.202 354.6 365.302 354.2 366.302 355.8C365.802 358 363.802 359.3 362.002 360.6C360.202 362 357.902 363 356.602 366C358.402 365.4 359.502 365.2 360.602 364.7C363.402 363.1 366.302 361.5 369.002 359.7C371.802 357.8 374.602 355.9 377.402 354C378.902 353 380.502 352.1 382.402 353.6C382.402 355.7 381.202 357.2 379.802 358.4C376.302 361.3 372.802 364.1 369.202 366.7C367.002 368.3 364.502 369.5 362.102 371C361.202 371.5 360.602 372.4 359.502 373.4C362.202 374.4 363.802 373.2 365.402 372.4C367.402 371.3 369.302 370.1 371.302 369.1C372.502 368.6 373.902 367.8 375.202 369.5C374.402 373.2 369.302 373.7 368.502 377.4C369.602 379.1 371.002 378.9 372.302 378.5C373.702 378.1 375.102 377.2 376.502 376.6C377.702 376.2 379.002 375.9 380.702 375.4V382C382.102 382 383.402 382 384.502 382C385.502 382 386.502 381.5 387.402 381.3C389.802 380.9 390.702 381.7 390.602 384.1V387.1C392.202 386.5 393.402 386.1 394.802 385.6C396.302 385 397.802 384.3 399.302 383.7C402.102 382.8 404.102 384.9 402.702 387.4C400.602 391.1 402.102 393.7 405.102 396.2C421.102 409.3 428.602 427.3 433.602 446.5C435.902 455.3 438.402 464 442.702 472C446.502 479 452.802 481.7 460.402 479.6C461.702 479.2 463.102 478.9 464.402 478.6C465.702 478.4 467.202 478.3 467.902 479.8C467.502 481.9 465.902 482.8 464.302 483.3C461.902 484.1 459.402 484.6 457.002 485.3C455.802 485.7 454.202 485.5 453.302 486.8C455.202 489 457.602 489.5 460.102 489.7C462.502 490 464.902 490.1 467.302 490.3C468.002 490.3 468.702 490.9 469.802 491.5C466.302 494.8 461.502 492.1 457.602 495.4C459.602 495.8 460.902 496.4 462.102 496.4C465.602 496.4 469.102 496.2 472.702 496C474.202 496 475.702 495.6 476.802 497.1C474.802 501.5 469.302 498.9 466.802 502.2C470.602 505.4 476.002 502.9 480.102 506.2C477.902 507.1 476.202 507.8 474.402 508.6C474.402 508.9 474.402 509.2 474.602 509.5C476.002 509.5 477.402 509.8 478.902 509.5C481.102 509.1 483.202 508.3 485.502 507.9C487.002 507.6 488.802 507.2 490.202 509.1C488.402 510.9 486.702 512.6 485.002 514.3C485.002 514.7 485.302 514.9 485.402 515.3C487.402 515.3 489.302 515.6 491.302 515.7C492.802 515.7 494.302 515.4 495.702 515.7C499.402 516.5 500.802 520.8 498.602 524C498.202 524.6 497.802 525.4 497.302 526.2C498.802 526.7 500.102 527 501.402 527.3L502.102 527.7ZM416.102 420.9C415.602 419.5 415.302 418.3 414.702 417.4C413.802 415.9 412.702 414.5 411.902 413C409.702 409.2 406.202 407.5 402.002 407.1C398.602 406.7 395.302 406.3 391.902 406.1C390.002 406.1 388.102 406.1 386.202 406.5C371.202 408.9 355.902 429.8 364.302 445.9C364.602 446.4 364.702 447.1 365.002 447.7C370.102 457.9 373.002 469.2 378.602 479.2C380.802 483.1 381.302 487.2 379.902 491.6C376.502 503 369.302 511.3 359.002 516.7C352.502 520.2 347.102 524.7 341.702 529.4C340.502 530.5 339.502 531.9 338.802 533.3C337.902 535.1 338.502 536.2 340.602 536.4C343.402 536.6 346.102 536.6 348.902 536.4C356.102 536.2 358.302 534.4 359.702 527.5C360.502 523.8 362.302 520.9 365.902 519.5C372.602 516.9 378.702 512.9 384.602 508.9C389.102 505.9 394.102 503.7 399.702 503.5C400.702 503.5 401.702 503.2 402.602 503C405.102 502.3 406.202 501 406.302 498.5C406.302 497.3 406.302 495.8 405.802 494.8C403.102 489.1 400.302 483.5 397.402 477.9C396.802 476.7 395.702 476.3 394.202 476.7C390.702 477.7 390.002 477.3 389.102 474C388.202 471.2 387.502 468.5 386.802 465.7C386.602 465 387.102 464.1 387.202 463.3C388.002 463.5 388.902 463.5 389.602 463.8C390.402 464.2 391.002 464.9 391.702 465.3C392.302 465.7 393.102 465.8 393.802 466.1C393.302 464.2 392.402 462.9 391.202 461.8C390.002 460.4 388.402 459.2 387.102 457.9C386.102 456.8 384.402 455.6 385.502 454.1C386.702 452.3 388.402 453.7 389.902 454.3C390.402 454.6 391.002 455 391.502 455.2C392.102 455.5 392.702 455.5 393.702 455.6C393.102 453.3 391.302 452.6 390.102 451.5C387.802 449.5 385.502 447.7 383.402 445.5C382.802 444.9 382.502 443.2 383.002 442.5C383.702 441.2 385.302 441.6 386.302 442.3C387.902 443.4 389.202 444.6 390.702 445.8C392.102 447 393.502 448.3 395.602 447.7C396.402 446 395.602 445 394.702 444.2C393.802 443.4 392.402 442.2 391.302 441.2C390.202 440.2 389.202 439.3 388.502 438.2C388.102 437.5 388.002 436.1 388.502 435.4C388.902 434.9 390.402 434.8 391.202 435C392.302 435.3 393.202 436.1 394.102 436.7C395.302 437.4 396.302 438.1 397.602 438.8C398.702 436.8 397.602 435.7 396.802 434.7C395.702 433.4 394.302 432.1 393.302 430.8C392.602 429.8 392.102 428.5 391.302 426.8H395.302C396.202 426.8 397.302 426.8 397.802 426.4C399.702 424.4 401.102 425.3 402.602 426.8C403.002 427.2 403.602 427.4 404.402 428C404.202 425.3 402.302 423.1 403.902 420.7C406.702 420.5 407.902 423.1 410.202 424.2C410.902 420.7 413.702 421.3 416.502 420.8L416.102 420.9ZM366.102 153.9C365.102 155.5 364.802 156.5 364.102 157.2C361.702 159.4 362.502 161.5 363.902 163.9C367.202 169 372.102 172.1 377.402 174.4C379.502 175.3 381.602 174.7 383.302 173.2C384.602 172 385.902 170.8 387.202 169.7C389.402 167.7 391.902 167.4 394.602 168.7C397.302 170 396.402 169.6 397.302 170.1C405.402 175.5 414.502 177.6 423.902 179.1C426.202 179.5 428.502 179.1 430.302 177.5C433.302 174.5 436.602 174.8 440.002 176.8C442.302 178.1 444.402 179.6 446.702 180.9C449.302 182.2 451.802 183.5 454.602 184.3C456.302 184.8 458.602 185.4 459.802 183.5C461.002 181.5 459.302 180 458.202 178.5C456.402 176 454.202 173.9 452.802 171.2C450.502 167.1 447.402 164 443.702 161.4C441.502 159.8 439.202 158.2 436.902 156.7C430.402 152.4 425.002 147.1 420.802 140.6C418.902 137.8 416.502 135.5 414.002 133.1C410.602 129.9 407.002 127 403.602 123.8C400.102 120.3 396.002 118.4 390.902 117.9C385.602 117.5 380.302 116.3 374.902 115.4C372.702 115 370.502 114.4 368.202 113.9C366.502 113.5 364.802 113.4 363.802 115C362.602 116.8 363.602 118.4 364.802 119.8C367.402 123.1 370.902 124.5 375.002 124.9C376.602 124.9 378.302 124.9 379.902 124.9C386.102 125.3 388.202 127.9 387.302 133.9C387.002 135.6 386.902 137.5 387.502 139C389.502 143.8 387.102 147.9 385.602 152C385.102 153.4 383.602 153.7 382.602 152.6C381.502 151.6 380.802 150.2 379.802 149.1C378.902 148.1 377.802 147.1 376.702 146.5C376.302 146.2 375.202 146.5 374.702 147C374.402 147.3 374.402 148.2 374.702 148.7C375.302 149.9 376.202 151 377.002 152.2C378.802 154.9 378.502 156.1 376.002 157.9C375.102 158.5 374.102 159.2 373.202 159.8C370.702 161.2 369.902 161 368.502 158.3C367.902 157 367.302 155.8 366.302 154L366.102 153.9ZM373.402 191.9C374.802 189 376.202 186.3 377.502 183.6C377.702 183.2 377.802 182.9 377.902 182.5C378.702 180.2 378.302 179 376.302 177.7C375.702 177.3 375.002 177 374.302 176.7C367.902 174.1 362.402 170.1 358.202 164.6C355.602 161.3 354.202 161.2 351.102 164.1C345.702 169.1 341.202 174.7 337.302 181C334.502 185.5 334.802 189.9 337.802 194C339.102 196 340.902 197.7 342.802 199.1C347.702 202.7 353.202 205.2 359.202 206.5C360.002 206.7 360.802 206.5 361.702 206.5C361.502 205.4 361.302 204.7 361.302 203.9C361.102 199.4 363.502 196.1 366.402 192.9C368.402 190.9 370.702 191.4 373.402 191.8V191.9ZM379.902 209C379.902 204.7 376.302 199.3 372.402 197.6C371.002 197 370.002 197.3 369.102 198.5C364.802 204.3 367.102 211.4 374.202 213.2C377.702 214.1 379.802 212.6 379.802 208.9L379.902 209ZM515.002 386.1C514.502 386.6 514.102 386.7 514.102 387C513.902 387.6 513.702 388.2 513.802 388.9C515.002 397.4 518.002 405.1 524.402 411.2C524.902 411.7 525.602 412.3 526.302 412.4C526.902 412.6 528.002 412.7 528.302 412.2C528.702 411.8 528.802 410.7 528.602 410.2C527.802 409 526.802 407.7 525.802 406.7C522.702 403.8 520.302 400.5 518.902 396.5C518.102 394.3 517.502 392 516.702 389.7C516.302 388.5 515.602 387.4 515.002 386.2V386.1ZM299.902 222.3C300.502 226.6 304.402 228.2 306.902 231.4C304.202 231.8 301.902 232.2 299.602 232.6C299.602 233 299.602 233.2 299.602 233.6C301.602 234.4 303.402 235.3 305.402 235.9C307.602 236.6 308.902 235.1 310.002 233.5C311.102 231.9 312.102 229.8 310.502 228.4C307.802 226 304.702 224.1 301.702 222.1C301.402 221.8 300.602 222.3 299.902 222.4V222.3ZM298.302 219.2V218C297.702 217.6 297.102 217.2 296.402 217C292.702 216.4 289.702 214.3 286.502 212.6C284.902 211.6 283.302 210.6 281.502 209.9C280.702 209.6 279.302 209.9 278.802 210.3C278.402 210.9 278.502 212.2 278.802 213.1C279.002 213.7 279.702 214.3 280.302 214.7C284.602 217.1 289.002 219.2 294.002 219.7C295.402 220 296.802 219.4 298.202 219.2H298.302ZM289.502 236.1C289.902 239.6 291.202 241.3 294.302 241.6C296.902 241.9 299.502 242 302.102 242C303.302 242 304.602 241.4 305.902 241C303.502 236.3 295.402 234.1 289.502 236.1ZM298.102 227.2C292.902 225.2 288.302 223.5 283.702 221.9C282.502 221.5 281.702 222.6 282.202 224C283.102 226.5 285.002 227.8 287.602 227.9C290.402 228.1 293.402 227.9 296.202 227.9C296.602 227.9 297.102 227.6 298.102 227.2ZM250.002 174.7C250.002 178.1 251.302 180.7 253.502 183C254.702 184.2 256.302 184.1 257.502 183C258.702 182 258.202 181 257.502 180C256.602 178.7 255.902 177.2 254.902 175.9C253.702 174.4 252.102 173.9 249.902 174.7H250.002ZM268.302 187.8C268.302 180.2 266.502 177.4 261.602 177C261.102 180.8 264.402 186 268.302 187.8ZM523.502 380.5C522.402 384.5 524.602 394.4 527.002 397.7C528.202 393.4 526.502 383.9 523.502 380.5ZM295.902 245.7C295.302 246.2 294.302 246.7 294.302 247.1C294.302 248 294.502 249.3 295.002 249.7C296.402 250.6 298.102 251.1 299.802 251.7C300.902 252.1 301.802 252 302.302 250.8C302.802 249.6 302.602 248.5 301.502 247.9C299.702 247.1 297.902 246.5 295.902 245.7ZM289.302 204.3C287.402 200.3 285.002 198.3 281.502 197.2C280.702 196.9 279.702 197.5 278.702 197.6C279.102 198.5 279.102 199.6 279.802 200.1C282.502 202.1 285.402 203.4 289.302 204.3ZM244.802 181.6C245.202 181.2 245.502 181 245.802 180.6C244.802 178.8 243.902 176.9 242.802 175.3C241.902 174.1 240.402 173.6 239.202 174.8C238.002 176 238.802 177.2 239.702 178C241.402 179.3 243.202 180.5 244.802 181.6ZM555.102 422.8C553.902 420 551.602 418.5 549.302 417C548.902 416.7 547.402 417 547.202 417.6C546.802 418.1 547.002 419.6 547.502 419.8C549.802 421.2 551.902 422.9 555.102 422.7V422.8ZM296.302 259.6C297.902 258.8 298.902 258.5 299.702 257.9C300.102 257.5 300.602 256.5 300.402 255.9C299.602 253.7 297.702 254.4 295.902 254.4C295.902 255.9 296.202 257.2 296.302 259.5V259.6ZM343.802 339.2C341.902 340.2 340.202 341.2 338.202 342.2C336.302 343.1 334.402 343.9 332.502 344.7C337.202 344.7 340.802 342.4 343.802 339.2ZM291.402 210.5C292.602 211.6 293.402 213.7 296.102 212.5C294.902 210.8 293.702 209.5 291.402 210.5ZM283.202 205.6C281.602 204.8 280.502 204.2 278.902 203.3C278.902 204.7 278.502 205.8 278.902 206.1C280.002 207.3 281.302 207.2 283.202 205.6ZM277.702 189.1C276.202 190 276.402 191.1 277.102 191.9C277.802 192.7 278.302 192.4 279.102 192.7C279.302 192.5 279.402 192.3 279.502 192.1C278.902 191.1 278.302 190.1 277.702 189.1ZM416.802 447.9C416.802 447.9 416.802 448.2 416.602 448.3C417.002 448.6 417.202 449 417.602 449.1C418.002 449.3 418.502 449.1 418.902 449.1C418.902 448.9 418.902 448.7 418.902 448.7C418.102 448.5 417.402 448.3 416.702 448L416.802 447.9Z" fill="black"/>
<path d="M315.4 281.8C311.1 279.3 309.3 275.5 308 271.2C307.8 270.6 308.2 269.7 308.4 269.1C308.9 267.7 309.6 266.4 310.3 265C311.4 262.7 313.1 262.1 315.1 263.5C316.1 264.2 317.1 265.1 317.7 266.2C318.9 268.3 320.2 270.6 321.2 272.9C322.3 275.4 322 276.1 320 277.8C318.7 279 317.3 280.3 315.5 281.9L315.4 281.8Z" fill="black"/>
<path d="M376.601 279.9C374.801 280.3 373.501 280.5 371.801 280.9C372.501 282.2 373.101 283.6 373.801 284.9C372.201 286 370.801 285.7 369.501 284.9C368.101 284.1 366.701 283.2 365.401 282.1C364.801 281.6 364.101 280.4 364.201 280C364.601 279.3 365.501 278.8 366.301 278.4C366.701 278.2 367.201 278.2 367.901 278.1C367.001 276.8 366.101 275.7 365.501 274.6C365.201 274.1 365.101 272.9 365.501 272.6C366.001 272.2 367.001 272 367.801 272C368.601 272 368.801 272.3 369.101 272.6C371.901 274.6 374.401 276.8 376.501 280L376.601 279.9Z" fill="black"/>
<path d="M370.801 262.7C371.201 262.7 371.901 262.9 372.201 263.3C374.001 265.3 375.901 267.3 377.301 269.5C377.701 270.2 377.001 271.7 376.901 272.9C375.801 272.7 374.701 272.9 373.901 272.3C371.201 270.6 369.901 267.9 368.801 265C368.401 263.8 369.201 262.8 370.801 262.7Z" fill="black"/>
<path d="M329.002 266.7C326.902 268.5 325.302 267.8 324.102 266.7C322.102 264.9 320.502 262.9 318.902 260.8C318.502 260.4 318.502 259 318.902 258.8C319.502 258.4 320.702 258.1 321.202 258.4C324.702 260.1 327.402 262.7 329.102 266.6L329.002 266.7Z" fill="black"/>
<path d="M333.902 258.6C328.502 259.7 325.702 257.1 323.202 254.3C322.002 253.1 322.702 251.5 324.402 251.3C325.302 251.1 326.502 251.3 327.202 251.8C329.402 253.8 331.402 256 334.002 258.6H333.902Z" fill="black"/>
<path d="M338.402 253.5C338.002 253.8 337.302 254.4 337.002 254.3C335.002 253.6 333.002 253 331.102 251.9C330.002 251.4 330.602 249.6 331.802 249.2C333.302 248.8 337.602 250.9 338.202 252.5C338.202 252.8 338.202 252.9 338.402 253.5Z" fill="black"/>
<path d="M417.401 149.3C421.701 149.3 424.501 151.5 424.801 155.2C425.201 158.7 422.201 161.1 418.901 159.6C416.901 158.7 415.001 157.4 413.301 156C412.001 154.9 411.301 153.3 411.901 151.7C412.501 149.9 414.101 149.5 415.901 149.5C416.401 149.5 416.901 149.5 417.401 149.5V149.3Z" fill="black"/>
<path d="M191.599 769.9C189.199 771.2 188.099 773.1 187.199 775.1C185.499 778.8 182.899 780.9 178.699 781.6C176.199 782 173.999 782.4 171.399 781.7C167.899 780.7 164.299 780.4 160.699 779.9C157.899 779.5 155.599 780.6 153.499 782.3C149.599 785.3 145.299 785.8 140.799 784.3C139.999 784.1 139.199 783.8 138.399 783.5C136.599 782.7 134.599 782 132.999 781C130.499 779.4 128.099 779.2 125.099 779.7C114.099 781.9 104.899 770.9 108.199 759.8C108.699 758.1 109.499 756.5 110.199 754.7C109.499 753.4 108.699 752.1 107.999 750.7C105.599 745.6 106.699 741.3 111.299 738.1C115.099 735.5 119.299 734.1 123.899 733.7C125.699 733.6 127.199 733 128.799 731.9C135.599 727.1 142.899 725.4 150.999 728.1C153.399 728.9 155.499 730.2 156.799 732.5C157.399 733.6 158.199 734.6 159.099 735.8C167.499 733.9 175.699 735 183.499 739.2C184.099 733.8 186.599 729.7 191.399 727.4C185.099 721 185.599 718.6 186.199 711.7C186.499 708.3 187.299 704.9 187.799 701.5C187.899 700.5 188.199 699.4 188.399 698.3C183.699 695 180.899 690.5 180.099 684.5C174.599 685 169.399 684.5 164.499 682C159.599 679.5 155.999 675.6 153.499 670.7C152.199 670.7 151.099 670.8 149.999 671C143.199 671.9 136.799 670.6 131.099 666.9C128.299 665.1 125.899 665.3 123.299 666.9C122.299 667.5 121.199 668 120.399 668.7C118.199 670.6 115.799 670.8 112.999 670.2C108.399 669.2 103.999 667.4 99.7992 665.6C96.8992 664.3 93.7992 663.1 90.7992 661.9C90.0992 661.6 89.4992 661.5 88.5992 661.3C88.1992 662.2 87.8992 662.9 87.5992 663.7C85.4992 669.1 81.4992 672.4 75.7992 673.3C72.1992 673.8 68.4992 673.8 64.8992 674C64.2992 674 63.5992 674 62.5992 674C63.9992 681.8 64.4992 689.4 62.6992 697C60.9992 704.6 58.3992 711.8 54.9992 718.9C52.6992 718.5 50.5992 718.2 47.9992 717.8C49.0992 715.7 49.7992 714 50.7992 712.4C54.4992 706.7 56.4992 700.4 57.0992 692.8C56.1992 694 55.6992 694.5 55.2992 695.1C50.7992 701.4 46.2992 707.6 41.7992 713.9C40.6992 715.5 39.3992 716.1 37.5992 715.3C36.3992 714.8 35.0992 714.5 33.2992 713.9C34.4992 712.5 35.1992 711.5 36.0992 710.5C38.9992 707.5 42.0992 704.6 44.6992 701.5C47.4992 698.2 49.0992 694.2 48.7992 689.5C48.3992 690.2 47.7992 690.8 47.3992 691.6C42.5992 699.2 36.2992 705.1 28.2992 709.3C27.5992 709.7 26.7992 710.1 25.9992 710.3C22.0992 711.3 19.2992 708.8 19.1992 704.5C19.2992 704.4 19.3992 704.1 19.5992 704.1C24.7992 702.6 29.0992 699.4 33.3992 696.2C38.6992 692.3 43.9992 688.4 49.1992 684.4C50.6992 683.2 52.1992 681.8 53.4992 680.3C55.3992 677.9 54.9992 676 52.5992 673.5C52.3992 673.7 52.1992 673.9 52.0992 674.2C50.4992 679.5 46.9992 683.2 42.3992 686C34.0992 691 25.2992 694.8 15.7992 696.7C14.9992 696.8 14.0992 697 13.3992 696.8C11.9992 696.5 10.6992 695 10.6992 693.7C10.6992 692 11.6992 691.1 13.0992 690.4C13.6992 690.1 14.2992 690 14.8992 690C23.8992 688.6 31.9992 685 40.1992 681.2C40.5992 681.1 40.8992 680.7 41.6992 680C40.1992 680 39.3992 679.9 38.5992 680C31.5992 681.3 24.5992 682.5 17.5992 683.7C14.9992 684.1 12.4992 684.4 9.89922 684.8C8.09922 685.2 6.89922 684.8 6.19922 682.9C5.89922 682.2 5.49922 681.4 5.19922 680.8C18.0992 677.1 30.6992 673.1 43.9992 672.2C43.9992 672 43.9992 671.7 43.9992 671.5C43.2992 671.3 42.6992 671.1 41.8992 671C33.5992 670 25.1992 670.5 16.8992 671.4C11.4992 672 5.99922 672.7 0.199219 673.4C0.599219 671.7 0.899217 670.2 1.29922 668.5C16.8992 665.7 32.3992 664.2 48.1992 667.5C48.7992 666.7 49.2992 666 49.7992 665.4C52.6992 662 55.5992 658.6 58.7992 655.4C65.0992 649.3 72.6992 647.6 81.0992 649.4C82.7992 649.8 84.0992 649.4 85.4992 648.7C88.2992 646.9 91.1992 645.2 94.0992 643.6C100.399 640.1 106.899 639.8 113.199 643.7C116.199 645.6 119.199 645.6 122.499 645.2C127.899 644.6 133.399 644.5 138.699 646C141.399 646.8 143.999 647.9 146.599 649C148.799 649.9 150.399 651.5 151.399 653.7C152.699 656.8 155.299 658 158.499 657.8C160.999 657.7 163.499 657.4 165.899 657C172.199 656 176.799 658.7 180.299 663.6C180.699 664.1 180.999 664.6 181.299 665.2C182.999 668.6 185.399 670.9 189.199 672.2C196.799 674.8 202.499 679.8 206.299 686.9C207.399 689 207.999 691.2 207.599 693.5C207.299 695.5 206.999 697.4 206.499 699.3C205.699 702.4 205.899 705.3 207.499 708.1C208.699 710.2 209.599 712.4 210.399 714.6C212.499 720.4 211.399 724.1 206.399 727.6C202.599 730.3 201.899 732.7 203.999 737C205.399 740 207.199 742.9 207.199 746.5C217.499 750 224.899 756.5 228.199 766.8C230.699 767.3 232.999 767.7 235.199 768.3C240.099 769.8 243.999 772.7 246.699 777C248.099 779.2 249.699 779.6 251.899 779.2C252.199 779.2 252.499 779.2 252.799 779C260.499 776.3 266.099 779.7 271.299 784.8C272.299 785.8 273.099 787.1 273.899 788.2C277.099 787.6 280.099 786.9 283.199 786.5C284.499 786.3 285.899 786.4 287.199 786.3C289.599 786.3 291.699 787.3 293.199 789.1C294.299 790.4 295.299 791.7 296.299 793C298.099 795.4 300.599 796.2 303.499 795.9C304.799 795.8 305.999 795.5 307.199 795.2C312.899 793.4 318.199 794.5 323.499 797.3C324.899 798 326.999 798.1 328.599 797.7C331.799 796.8 334.899 795.4 337.899 794.2C337.099 792 336.099 790 335.599 787.9C333.499 779.5 338.199 772.9 346.699 771.6C346.999 771.6 347.299 771.5 347.899 771.4C349.699 765.6 352.799 760.7 358.899 758.5C364.899 756.3 370.599 757.5 376.099 760.6C376.799 760.2 377.399 759.9 377.999 759.6C385.099 755.4 392.099 755.6 398.899 760.1C400.799 761.4 402.399 761.8 404.599 761.1C408.399 759.8 412.299 759.7 415.899 761.3C417.199 761.8 418.099 761.4 419.199 761.1C423.199 759.8 427.399 759.6 431.599 760.4C436.999 761.6 441.199 764.4 443.699 769.4C445.399 772.8 447.799 775.6 450.299 778.4C453.699 782.2 456.299 786.5 455.999 791.9C455.699 796.5 457.799 797.4 461.899 797.4C465.999 797.4 464.199 797 465.099 796.6C469.699 794.2 474.399 793.1 479.599 794.5C481.099 794.9 482.599 795.3 484.199 795.5C487.299 795.9 489.999 795.1 491.899 792.5C492.599 791.5 493.399 790.5 494.199 789.6C495.999 787.2 498.399 785.8 501.499 786.1C505.599 786.5 509.699 787.1 514.399 787.6C514.499 787.5 515.099 786.7 515.699 786C519.099 781.4 523.699 778.8 529.199 777.7C530.399 777.5 531.599 777.8 532.899 778.1C534.399 778.4 535.899 778.9 537.499 779.1C538.899 779.3 540.099 779.1 540.999 777.6C545.399 770.8 551.799 767.4 560.099 766.8C563.499 756.4 570.799 749.7 580.499 746.5C581.799 743.1 582.899 740.2 584.199 737.4C586.599 732.2 586.199 730.4 581.599 727.1C577.199 723.9 575.899 720.3 577.699 715.1C578.699 712.2 579.999 709.5 581.299 706.8C582.299 704.8 582.599 702.9 582.099 700.8C581.699 698.9 581.199 696.9 580.899 695C580.299 691.8 580.799 689 582.399 686C586.599 678.6 592.999 674 600.799 671.3C602.899 670.6 604.499 669.4 605.599 667.5C606.299 666.3 606.999 665.1 607.699 664C610.999 658.6 615.699 655.9 622.099 656.6C624.699 656.9 627.199 657.3 629.899 657.4C633.199 657.6 635.799 656.3 637.199 653.1C638.099 651 639.799 649.6 641.799 648.5C647.499 645.3 653.699 644.2 660.199 644.3C661.399 644.3 662.499 644.3 663.699 644.5C668.399 645.1 672.799 644.7 677.199 642.1C682.599 638.9 688.299 639.7 693.699 642.5C696.699 644.1 699.699 646 702.499 647.8C704.099 648.8 705.599 649.1 707.499 648.8C715.999 647.2 723.799 649 729.999 655.3C732.899 658.2 735.799 661.3 738.199 664.6C739.599 666.4 740.899 666.7 742.899 666.4C746.699 665.9 750.599 665.4 754.399 665.1C761.799 664.5 768.999 665.2 776.199 666.2C779.699 666.6 783.199 667.2 786.899 667.7C787.199 669.4 787.399 670.9 787.799 672.7C773.099 671.1 758.699 668.5 744.199 671.3C750.699 672.5 757.299 673.4 763.799 674.9C770.299 676.4 776.599 678.4 783.399 680.3C782.599 681.8 781.899 683.1 781.099 684.6C769.799 683.9 758.999 680.3 747.399 679.4C747.999 681.1 749.299 681.3 750.299 681.8C756.499 684.7 762.999 686.5 769.599 687.8C772.499 688.4 775.499 688.8 778.399 689.3C779.099 691.1 778.799 692.5 777.999 693.9C776.999 695.7 775.099 696.7 772.999 696.3C762.299 694 752.499 689.9 743.499 683.8C739.699 681.2 737.199 677.4 735.999 672.9C733.099 675.3 732.899 677.2 734.999 679.8C735.199 680 735.399 680.3 735.699 680.5C744.299 687.9 752.499 695.8 762.499 701.5C763.199 701.9 763.799 702.2 764.399 702.5C766.999 704 767.699 705.3 766.799 707.1C765.799 709.2 763.099 710.2 760.899 709.3C759.999 708.9 759.199 708.5 758.399 708C751.699 704.2 746.299 699.2 741.899 692.9C741.499 692.2 740.899 691.5 740.399 690.8C740.399 690.8 740.299 690.7 740.199 690.7C740.199 693.3 741.899 698.1 745.199 702.9C747.799 706.7 750.799 710.1 753.699 713.7C753.299 713.8 752.899 714.1 752.399 714.3C748.199 715.8 748.099 715.9 745.399 712.3C741.299 706.7 737.199 700.9 733.199 695.2C732.699 694.5 732.199 693.7 731.699 693C731.499 693 731.299 693.1 731.099 693.1C731.299 694.6 731.499 696.3 731.799 697.8C732.799 702.7 734.499 707.4 737.299 711.7C738.299 713.2 739.099 714.5 737.999 716.3C736.899 718 735.399 718.6 733.099 718.1C726.599 704 721.999 689.5 725.799 673.2C724.799 673.2 724.099 673.2 723.399 673.2C719.499 673.7 715.699 673.2 711.899 672.4C706.299 671.2 702.599 668.1 700.599 662.7C700.399 662 700.099 661.4 699.699 660.3C698.099 660.9 696.499 661.4 694.999 662C691.299 663.5 687.799 665.2 683.999 666.6C680.899 667.8 677.699 668.6 674.399 669.5C672.299 670.1 670.299 669.6 668.499 668.3C666.999 667.2 665.299 666.2 663.699 665.4C661.699 664.4 659.799 664.4 657.799 665.7C651.199 669.9 643.999 671.4 636.199 669.9C635.799 669.9 635.399 669.9 634.699 669.9C632.199 674.6 628.699 678.5 623.799 681C618.899 683.6 613.699 684.1 608.199 683.5C607.999 684.4 607.799 685 607.599 685.8C606.699 689.9 604.699 693.4 601.299 696C599.999 697 599.599 698.1 599.999 699.8C600.799 703.7 601.499 707.6 601.999 711.5C602.199 713.1 602.199 714.8 602.099 716.5C601.999 720.5 599.899 723.6 596.699 726C598.499 727.8 600.599 729.2 601.999 731.1C603.299 733 603.899 735.4 604.899 737.9C612.299 734.1 620.299 732.7 628.799 734.9C629.799 733.4 630.899 732.2 631.699 730.7C632.599 729.2 633.899 728.3 635.499 727.6C643.699 724.3 651.499 725.6 658.699 730.5C660.399 731.7 661.999 732.3 664.099 732.6C667.299 733.1 670.399 734.2 673.399 735.2C674.599 735.6 675.699 736.3 676.599 737C681.199 740.3 682.499 744.5 679.799 749.5C678.299 752.3 677.999 754.5 679.299 757.5C681.699 762.9 680.599 768.2 677.099 772.9C673.299 778 667.899 779.6 661.799 778.3C659.699 777.9 657.999 778.2 656.199 779.1C652.999 780.7 649.799 782.1 646.399 783.2C642.299 784.5 638.299 784 634.899 781.3C631.599 778.7 628.099 777.8 624.099 779.5C623.099 779.9 621.999 779.9 620.999 780C619.699 780.1 618.399 780 617.199 780.4C614.199 781.4 611.399 781 608.399 780.2C605.199 779.4 602.899 777.9 601.399 775.1C600.799 774 600.299 772.8 599.599 771.9C598.799 770.8 597.799 769.8 596.799 768.7C587.299 773.8 586.899 774.2 574.999 775.3C574.599 776.2 574.299 777.1 573.799 778.1C569.299 788 561.899 793.7 550.899 794.5C549.399 794.5 548.299 795.1 547.099 796.3C540.299 804 531.599 806.5 521.599 804.7C519.199 804.3 517.499 804.7 515.699 806.3C512.999 808.7 509.999 810.9 507.099 813.1C505.299 814.4 503.399 814.9 501.199 814.5C499.899 814.3 498.699 814.2 497.399 814.1C493.599 813.6 490.299 814 486.699 815.9C480.399 819.3 473.799 819.1 467.599 815.4C467.199 815.2 466.899 815.1 466.299 814.9C459.799 820 452.599 820.5 444.699 817.3C441.499 825.1 435.399 828.6 427.299 829.4C426.599 830.6 426.099 831.8 425.499 832.8C422.499 837.9 418.099 841.2 412.199 842.4C406.299 843.5 400.399 844 394.699 841.6C393.299 841 391.899 840.2 390.199 839.3C386.099 843.2 380.999 844.2 375.599 842.8C370.199 841.5 366.299 838.2 363.799 833.2C361.999 834.1 360.499 834.9 358.899 835.6C354.499 837.4 350.099 837.4 345.999 835C341.999 832.8 339.799 829.5 340.099 824.8C340.099 824.2 340.099 823.5 340.099 823C340.099 822.5 339.999 822.9 339.999 822.9C336.499 822 332.999 821.4 329.699 820.1C326.499 818.9 323.399 817.2 320.699 815.9C317.499 816.9 314.699 818.1 311.599 818.6C306.599 819.4 301.799 818 297.499 815.4C296.199 814.6 294.899 814.2 293.399 814.4C290.699 814.7 287.999 814.8 285.299 815.2C283.299 815.6 281.499 815.2 279.999 814C276.899 811.7 273.799 809.4 270.899 806.9C269.299 805.6 267.899 804.9 265.599 805.4C255.299 807.5 246.399 804.7 239.299 796.7C238.799 796.1 237.799 795.5 236.899 795.4C224.699 794.7 216.699 788.3 212.299 777.2C212.199 776.8 211.999 776.5 211.699 775.9C204.499 776.2 197.399 774.1 190.999 769.6L191.599 769.9ZM361.299 814.1C363.399 815.5 365.799 816.7 367.699 818.4C369.099 819.6 370.299 820.1 372.099 820C378.999 819.6 384.999 821.9 389.999 826.7C390.499 827.1 390.999 827.6 391.699 828.2C397.099 821.2 404.099 818.8 412.699 819.5C411.599 811.8 414.599 806.6 421.799 803.5C411.899 800.3 403.699 795.4 396.199 788.1C395.599 788.9 395.199 789.7 394.699 790.3C391.099 794.3 386.599 796.9 381.399 798.1C379.599 798.5 378.799 799.4 378.199 801C375.899 806.7 371.699 810.6 365.899 812.7C364.399 813.4 362.799 813.8 361.299 814.2V814.1ZM653.899 746.4C646.899 746.8 639.899 745.7 632.899 743.5C629.999 749.3 625.799 753.3 619.499 755.9C625.499 757.9 629.599 761.2 632.399 766.3C637.199 762.5 642.299 761.9 647.399 763.4C650.299 759.6 653.099 756.1 655.699 752.7C655.099 750.7 654.499 748.7 653.899 746.5V746.4ZM168.599 756C162.599 753.5 158.499 749.3 155.799 743.9C148.699 746.3 141.699 747.2 134.799 747C134.099 749.3 133.499 751.2 132.999 753C135.699 756.5 138.399 760 141.199 763.7C146.399 762.2 151.499 763 155.899 766.3C157.799 764.2 159.299 762 161.299 760.4C163.399 758.8 165.899 757.6 168.499 756H168.599ZM577.899 770.6C578.399 770.6 578.899 770.6 579.399 770.6C583.899 770.6 588.399 769.9 592.399 767.8C594.899 766.5 595.899 764.6 595.299 762.2C594.599 759 591.399 756.1 588.199 755.7C586.399 755.4 584.399 755.3 582.699 754.7C576.399 753 570.599 755.1 566.999 760.6C563.899 765.3 565.499 769.3 570.999 770.2C573.299 770.5 575.599 770.6 577.799 770.7L577.899 770.6ZM679.799 646C677.999 645.8 675.999 647 674.099 648.4C670.599 650.9 668.699 654.7 666.399 658.2C665.399 659.8 666.099 661.7 667.699 662.8C670.299 664.8 673.299 665.5 676.499 665.2C682.999 664.5 688.599 661.4 693.899 657.9C694.499 657.5 694.899 656.4 694.899 655.5C694.899 652.5 693.099 650.4 690.799 649C687.599 646.9 683.999 646.1 679.699 646H679.799ZM113.299 665.9C116.199 665.7 118.699 665 120.999 663.3C122.799 661.9 123.399 660.1 122.199 658.2C120.299 655.3 118.399 652.5 115.999 650C114.499 648.5 112.199 647 110.199 646.7C105.299 646 100.699 647.3 96.6992 650.5C95.1992 651.7 94.2992 653.3 93.8992 655.2C93.5992 656.8 93.8992 658.1 95.4992 658.9C98.9992 660.7 102.299 662.7 105.799 664.1C108.099 665.1 110.699 665.4 113.199 666L113.299 665.9ZM210.399 770.8H215.099C215.499 770.8 215.899 770.8 216.399 770.8C217.699 770.6 218.899 770.4 219.999 770C222.899 768.9 223.899 766.7 223.199 763.7C221.699 757.9 213.599 753.2 207.799 754.6C205.599 755.1 203.299 755.7 201.099 755.9C198.199 756.2 196.199 757.7 194.699 759.9C192.199 763.5 193.099 766.6 197.099 768.6C201.399 770.7 205.899 771.1 210.499 770.9L210.399 770.8ZM353.699 771.8C359.099 775.2 364.499 778.5 369.799 781.9C372.899 783.8 375.899 783.5 378.899 781.9C379.899 781.4 380.799 780.6 381.699 780C383.699 778.5 383.999 777.7 383.099 775.5C382.499 774.2 381.699 772.9 380.699 771.9C379.499 770.6 377.999 769.5 376.899 768.2C373.399 764.1 368.999 762.8 363.799 762.9C358.499 763 354.999 765.8 353.599 771.7L353.699 771.8ZM640.399 666.1C642.899 665.8 645.399 665.3 647.899 665.1C655.599 664.7 660.599 660.4 664.499 654.3C665.199 653.3 664.999 652.4 664.499 651.4C662.499 648.4 659.599 647.1 656.199 647.4C647.299 648.3 641.299 653.7 636.899 660.9C634.899 664.2 636.699 666.3 639.899 666C640.099 666 640.299 666 640.499 666L640.399 666.1ZM365.799 784.4C360.599 783 355.999 780.4 351.699 777C349.299 775.1 346.999 775.2 344.499 777C342.099 778.7 340.699 781 340.099 783.9C339.399 787.1 339.699 790.2 342.299 792.5C344.999 794.9 348.299 794.9 351.399 793.5C355.799 791.6 360.099 789.5 364.499 787.5C365.999 786.9 366.299 786 365.799 784.3V784.4ZM131.099 649.4C130.499 649.4 129.699 649.5 128.799 649.6C125.099 650 124.399 650.9 125.399 654.5C125.799 656 126.599 657.7 127.599 658.9C129.699 661.5 132.299 663.9 135.599 664.6C140.199 665.6 144.999 666 149.699 666.6C149.999 666.6 150.299 666.6 150.699 666.5C152.099 666.1 152.999 665.2 152.499 663.8C151.999 662.3 151.499 660.5 150.399 659.4C147.999 657 145.299 654.8 142.599 652.8C139.099 650.4 135.299 649.6 131.099 649.5V649.4ZM554.099 773.2C548.399 773.2 544.999 776.1 543.999 780.5C543.599 782.3 543.999 783.7 545.799 784.7C547.899 785.9 549.799 787.3 551.799 788.7C555.299 791.3 558.799 791.3 561.999 788.3C563.999 786.4 565.799 784.2 567.399 781.8C569.599 778.6 568.799 776.3 564.999 775.3C561.099 774.3 557.099 773.8 554.299 773.3L554.099 773.2ZM428.299 824.1C429.199 823.9 431.099 823.7 432.899 823.1C436.199 821.9 438.299 819.6 439.499 816.1C441.599 809.8 435.199 805.9 430.799 807.1C427.299 808.1 423.899 809.5 420.599 810.9C419.499 811.3 418.399 812.3 417.799 813.3C415.599 816.9 415.999 819.2 418.999 821.5C421.399 823.5 424.299 824.1 428.299 824.2V824.1ZM234.399 773.6C231.699 774.1 227.299 774.7 223.099 775.9C220.099 776.7 219.299 778.8 220.999 781.4C222.799 784.1 224.999 786.8 227.299 789.1C229.699 791.5 232.999 791.5 235.699 789.8C238.299 788.2 240.799 786.3 243.399 784.6C244.399 783.9 244.799 783.2 244.699 782C244.399 777.2 240.699 773.6 234.299 773.6H234.399ZM608.299 674.9C608.599 678.4 609.699 679.5 612.999 679.8C613.699 679.8 614.499 679.8 615.099 679.6C616.599 679.2 618.099 678.7 619.599 678.3C625.799 676.9 628.899 672.4 631.099 667C631.699 665.5 631.099 664.5 630.099 663.8C629.199 663.3 628.199 663.1 627.199 662.9C625.399 662.6 623.699 662.6 621.999 662.2C616.899 661.1 612.699 662.9 610.599 667.5C609.599 669.8 609.099 672.4 608.399 674.9H608.299ZM180.299 674.7C180.299 667.6 175.399 662.1 168.999 662.3C166.099 662.3 163.199 662.9 160.399 663.5C157.699 664 157.099 665.5 157.999 668.1C160.799 676 166.999 679.3 174.799 680.1C178.899 680.5 180.399 679 180.399 674.7H180.299ZM661.499 755.7C658.799 758.9 656.399 761.7 653.999 764.6C657.799 766.7 661.099 769.4 663.699 773C663.999 773.4 664.399 773.7 664.999 773.9C668.799 775.4 673.999 773.5 675.799 769.8C677.899 765.3 676.999 761 674.999 756.6C669.999 758.2 665.599 757.6 661.499 755.8V755.7ZM135.299 764.9C133.799 763.5 132.399 762.3 131.099 760.9C129.799 759.4 128.899 757.7 127.699 756C123.199 758.3 118.699 758.4 113.999 757.1C112.299 760 111.899 762.8 111.899 765.8C112.099 772.1 116.999 775.8 123.199 774.6C123.899 774.5 124.699 774.1 124.999 773.6C127.699 769.9 131.099 767.1 135.199 765L135.299 764.9ZM202.199 699.9C203.199 696.4 203.199 693.1 202.399 689.8C200.699 682.8 196.099 678.8 189.199 677C185.999 676.2 183.999 677.7 184.199 681C184.199 682.7 184.999 684.4 185.599 686.1C186.099 687.6 186.999 688.9 187.599 690.4C189.699 696.1 195.699 700 202.199 699.9ZM505.599 809C506.599 809 506.999 809 507.299 809C510.499 808.3 513.199 806.7 514.299 803.5C515.399 800.2 513.599 797.8 511.199 795.9C507.599 793 503.299 791.7 498.699 791.6C495.799 791.6 494.099 793.1 492.799 795.5C491.699 797.6 492.099 799.8 493.699 801.2C496.299 803.6 499.099 805.8 501.899 807.7C503.099 808.6 504.799 808.7 505.599 809ZM290.599 791.9C285.399 792.2 281.399 793.5 277.899 796.2C277.099 796.8 276.399 797.6 275.699 798.4C273.699 801 273.999 804.2 276.399 806.6C279.299 809.5 282.699 810.2 286.399 808.6C289.999 807.1 292.899 804.4 295.399 801.5C297.199 799.4 297.199 796.9 295.399 794.7C293.899 792.9 292.199 791.6 290.599 791.9ZM184.899 763.3C180.199 763 175.699 762.4 171.099 762.4C165.799 762.4 160.999 768.3 161.199 773.7C161.199 775.1 161.799 775.8 162.999 776.3C168.099 778.4 173.199 777.4 178.299 776.2C178.499 776.2 178.699 776 178.799 775.8C182.299 772.5 184.899 768.7 184.799 763.4L184.899 763.3ZM603.899 762.8C603.799 768.3 606.399 772.1 610.099 775.5C610.499 775.9 611.299 776 611.899 776.1C614.499 776.5 617.299 776.9 619.999 777C621.599 777 623.299 776.6 624.899 776.2C627.299 775.5 627.499 775.1 627.499 772.7C627.499 769.6 625.799 767.2 623.899 764.9C622.399 763.1 620.299 762 617.899 762C613.299 762.1 608.799 762.6 603.999 762.9L603.899 762.8ZM447.199 804.9C447.399 805 447.599 805 447.799 805C451.799 805 453.199 803.6 452.699 799.6C452.599 798.6 452.599 797.5 452.399 796.5C451.899 793.1 451.699 789.7 449.899 786.6C447.699 783 442.599 782.8 440.299 786.2C437.899 789.7 436.699 793.5 436.899 797.7C436.899 800.3 437.899 802.6 439.799 804.3C440.899 805.3 442.099 806 443.799 805.3C444.799 804.9 445.999 805 447.199 804.9ZM190.699 753.8C190.699 753.5 190.699 753.2 190.499 753C185.599 744.5 172.599 738.4 162.999 740.1C161.999 740.3 160.999 740.9 159.699 741.4C160.499 742.4 160.899 743.2 161.499 743.7C165.999 747.3 170.499 750.9 174.999 754.4C178.499 757 186.899 757.1 190.699 753.8ZM532.899 799.5C532.899 799.5 532.899 799.6 532.899 799.7C535.799 799 538.899 798.5 541.699 797.6C544.099 796.9 544.399 795.8 543.299 793.6C542.799 792.5 541.999 791.3 540.999 790.7C536.899 788.1 532.499 785.7 528.299 783.3C527.999 783.2 527.699 783.1 527.399 783C524.499 782.2 519.599 784.6 518.599 787.4C518.399 788 518.499 788.9 518.699 789.5C521.099 795.2 525.699 798 531.399 799.5C531.799 799.5 532.199 799.5 532.599 799.5H532.899ZM255.199 800C258.299 799.9 260.799 799 262.899 797.5C263.899 796.8 264.899 796 265.899 795.3C268.099 793.9 268.999 791.7 269.899 789.5C270.099 788.9 269.899 787.7 269.499 787.2C266.499 783.7 263.299 781.9 259.199 784.3C255.699 786.3 252.099 788.3 248.699 790.5C247.399 791.4 246.099 792.7 245.399 794.1C244.099 796.4 244.599 797.6 247.099 798.4C249.899 799.1 252.799 799.6 255.199 800.1V800ZM629.099 741.2C620.599 736.1 603.399 743.1 598.099 753.3C602.899 756.6 609.899 756.8 614.399 753.3C618.699 750.1 622.799 746.8 626.899 743.4C627.599 742.9 628.199 742 628.999 741L629.099 741.2ZM587.599 699.4C593.299 699 597.699 696.5 600.499 691.7C601.799 689.3 602.899 686.8 603.899 684.4C604.599 682.6 604.999 680.9 604.299 679C603.899 677.5 602.899 676.7 601.399 676.6C600.399 676.6 599.499 676.6 598.599 676.9C589.299 679.3 583.999 689.8 587.599 699.4ZM422.399 769.7C422.999 774.3 425.399 777.9 428.699 781.1C430.799 783.2 433.399 783.4 435.899 781.9C437.799 780.7 439.499 779.1 441.299 777.7C442.699 776.6 442.699 775.3 442.199 773.8C440.499 768.9 437.099 766.1 432.199 764.9C429.599 764.2 427.099 764.6 424.699 765.9C423.099 766.7 422.099 767.8 422.399 769.7ZM334.499 816.8C339.599 816.7 345.199 812.8 346.899 808.1C347.099 807.6 347.299 807.1 347.299 806.6C348.199 802.6 345.599 799.5 341.499 800.1C336.599 800.8 332.199 802.7 328.499 806.3C327.799 807 327.099 807.8 326.599 808.7C324.799 811.8 325.599 814.5 328.999 815.7C330.799 816.4 332.699 816.5 334.499 816.8ZM190.199 713.7C189.799 717.2 191.299 719.6 193.899 721.6C194.899 722.3 195.699 723.4 196.599 724.2C199.999 727.1 201.799 726.8 203.799 722.9C204.499 721.6 204.799 720.2 204.999 718.7C205.199 717.4 205.099 716.2 205.099 714.9C205.099 708.6 201.899 704.9 195.799 704.1C193.399 703.8 192.599 704.1 191.799 706.5C190.999 708.8 190.699 711.3 190.299 713.7H190.199ZM598.299 714.2C598.299 710.7 598.299 707.9 596.899 705.4C596.299 704.4 595.699 703.5 594.299 703.6C590.799 703.7 587.799 704.9 585.499 707.7C582.499 711.5 582.999 720.9 586.299 724.5C587.799 726 588.699 726.3 590.399 725.1C591.999 724 593.299 722.5 594.899 721.3C597.299 719.2 598.899 717 598.199 714.3L598.299 714.2ZM352.899 809.1C363.099 809.1 371.399 807.2 374.199 797.4C372.299 795.3 370.199 793.1 368.099 790.8C363.199 795.1 357.699 797.5 351.299 798.6C353.899 801.8 355.099 805.1 352.999 809.1H352.899ZM56.5992 665.6C58.6992 666.3 60.0992 667 61.6992 667.4C68.8992 668.8 75.1992 666.1 81.2992 662.8C81.7992 662.5 82.2992 662 82.5992 661.5C84.0992 659.1 83.2992 655.8 80.5992 655C77.0992 653.9 73.1992 653.7 69.8992 655C64.5992 656.8 60.3992 660.5 56.5992 665.7V665.6ZM731.899 664.9C729.499 661.3 726.499 659 723.399 656.7C718.899 653.3 713.899 653.5 708.799 654.2C706.899 654.4 705.899 655.7 705.599 657.6C705.199 659.7 705.999 661.6 708.199 662.7C712.199 664.9 716.499 666.7 721.099 667.2C724.799 667.6 728.299 667.2 731.899 664.9ZM381.899 763.8C383.799 771.4 389.899 775.5 395.399 780.8C397.199 775.9 400.699 773.2 404.799 771.2C398.799 763.3 389.099 760.1 381.799 763.8H381.899ZM364.199 824.8C364.799 822.5 363.799 821.2 361.799 820.3C359.999 819.5 358.299 818.4 356.499 817.7C355.199 817.2 353.599 816.9 352.199 816.9C347.099 817.1 342.799 822.1 346.199 828.2C347.799 831 351.299 832.6 354.499 831.9C356.699 831.4 358.799 830.6 360.999 829.8C363.399 828.9 364.799 827.5 364.099 824.9L364.199 824.8ZM650.799 742.4C652.099 742.1 654.299 741.8 656.399 740.9C659.699 739.5 660.099 736.9 657.399 734.6C655.599 733.1 653.399 732.1 651.299 730.9C646.399 728.1 641.799 729.8 637.499 732.4C634.499 734.2 634.599 736.5 637.499 738.5C641.299 741.1 645.399 742.1 650.999 742.4H650.799ZM138.899 743.2C143.599 742.8 147.899 741.5 151.699 738.9C154.399 737 154.299 734.9 151.699 732.9C145.499 728.5 135.899 729.7 130.999 735.6C129.199 737.7 129.499 739.9 131.899 741C134.099 742 136.599 742.5 138.999 743.1L138.899 743.2ZM473.899 798.1C471.499 798.1 469.899 798.4 468.799 800.2C467.699 802 468.599 803.7 469.599 805.1C471.999 808.4 474.999 811.2 478.799 812.8C480.899 813.7 482.999 814.2 485.199 813.2C490.399 810.9 490.699 808.3 486.999 805.2C483.799 802.6 479.999 800.7 476.499 798.7C475.599 798.2 474.399 798.2 473.899 798.1ZM305.699 814.1C310.799 814.1 318.599 808.3 320.099 803.7C320.799 801.4 319.999 799.4 317.599 798.8C316.099 798.5 314.099 798.3 312.699 798.8C308.399 800.5 304.499 802.7 301.199 806C300.799 806.4 300.399 807 300.099 807.5C298.999 809.4 299.199 810.4 300.799 811.9C302.299 813.3 303.999 814 305.699 814V814.1ZM417.999 787.4C417.599 786 417.599 784.1 416.699 783.1C414.299 780.7 411.599 778.5 408.799 776.4C407.499 775.4 406.099 775.4 404.699 776.2C401.799 777.8 400.399 781.8 402.299 784.6C404.899 788.6 408.299 791.8 412.199 794.5C414.199 795.8 415.799 795.2 416.699 793C417.399 791.4 417.599 789.5 417.999 787.5V787.4ZM408.799 826V826.2C407.799 826.2 406.699 826.3 405.699 826.2C403.599 825.9 401.899 826.9 400.299 828.1C396.799 830.7 397.099 833.5 400.899 835.6C405.899 838.3 414.899 837.4 419.299 833.8C421.099 832.3 421.199 829.5 419.099 828C417.999 827.2 416.499 826.7 415.099 826.4C412.999 826.1 410.899 826.1 408.799 826ZM110.499 747.9C110.499 751.4 113.099 753.9 116.599 753.3C121.199 752.4 125.199 750.1 127.799 746C129.099 743.9 128.799 742.2 127.299 740.3C124.999 737.5 123.199 737.1 119.999 738.8C117.799 740 115.799 741.6 113.599 742.7C111.199 743.7 110.499 745.5 110.499 747.9ZM678.699 747.3C677.999 745.8 677.699 743.9 676.599 743C673.799 740.9 670.599 739.2 667.599 737.6C666.899 737.2 665.799 736.9 664.999 737.2C660.699 738.4 659.099 743.2 661.899 746.6C664.499 749.8 667.899 751.7 671.799 752.7C675.399 753.7 678.299 751.2 678.799 747.3H678.699ZM141.899 780.1C145.999 780.1 149.299 778.7 151.699 775.3C153.899 772.4 152.599 768.2 148.999 767.6C147.499 767.3 145.799 767.3 144.399 767.8C140.899 769 137.599 770.4 134.299 772C132.599 772.8 132.399 773.8 132.999 775.6C133.399 777.1 134.499 778.2 135.899 778.6C137.899 779.3 139.899 779.6 141.899 780.1ZM646.799 779.6C648.599 779.3 650.299 779.1 651.999 778.6C653.799 778.2 655.199 777.1 655.799 775.2C656.399 773.4 656.199 772.6 654.499 771.5C651.099 769.4 647.499 767.7 643.499 767.2C641.899 767 640.099 767.1 638.599 767.6C635.799 768.6 635.099 772.2 636.799 774.6C639.199 778.1 642.399 779.7 646.699 779.6H646.799ZM421.799 783.4C421.399 787.5 420.899 791.4 420.499 795.4C420.199 798.3 421.799 800 425.299 800.9C428.799 801.8 431.799 800.8 432.999 798.3C432.999 798.1 433.099 797.9 433.199 797.7C434.699 789.4 429.699 783.2 421.799 783.4ZM591.499 750.1C593.899 746.1 597.399 743.6 601.699 741.9C600.799 739.8 600.199 737.9 599.299 736.1C598.799 735 598.099 733.9 597.199 733C595.099 730.8 593.799 730.6 591.699 732.9C588.199 736.6 586.799 741.1 587.899 746.1C588.299 747.9 589.399 749.3 591.399 750.1H591.499ZM197.299 750.7C199.299 749.7 200.299 748.3 200.799 746.6C201.999 741.7 200.599 737.3 197.299 733.7C195.099 731.3 193.499 731.3 191.299 733.8C189.199 736.3 188.399 739.4 187.299 742.6C191.599 744.2 194.899 746.9 197.399 750.8L197.299 750.7ZM381.399 838.2C381.799 838.2 382.099 838.2 382.399 838.2C383.999 837.8 385.399 837.1 385.899 835.5C386.499 833.8 385.199 832.9 384.099 831.9C382.599 830.7 381.299 829.4 379.799 828.2C378.299 827.1 376.799 826 375.199 825.1C373.399 824.1 371.599 824.4 369.899 825.6C368.399 826.7 368.099 827.3 368.999 829C369.999 830.8 371.199 832.5 372.599 834.1C374.899 836.6 377.999 837.9 381.399 838.3V838.2ZM373.799 786.3C374.799 789.5 375.899 791.2 377.999 792.3C378.999 792.8 380.499 793.3 381.499 793C386.199 791.7 389.599 788.7 392.299 784.5C390.899 783.2 389.699 782.2 388.399 781C384.599 785.7 379.599 787.1 373.799 786.3ZM456.399 803.3C455.299 805.9 454.899 808.1 453.699 809.6C452.499 811.1 450.499 812 448.299 813.4C452.199 813.7 455.599 814.1 458.999 814.2C460.399 814.2 462.099 814.1 462.799 812.5C463.499 811 462.499 809.6 461.499 808.6C459.999 806.9 458.399 805.3 456.399 803.2V803.3ZM405.899 765.4C407.999 768.4 409.099 771.7 412.799 772.6C413.799 772.9 414.699 773.8 415.699 774.4C416.399 774.8 416.999 775.2 417.599 775.7C418.999 772.7 418.899 770.8 417.199 768.8C414.299 765.4 410.699 764.6 405.899 765.4Z" fill="black"/>
</g>
<defs>
<clipPath id="clip0_2087_4599">
<rect width="788" height="844" fill="white"/>
</clipPath>
</defs>
</svg>
