<svg width="342" height="84" viewBox="0 0 342 84" fill="none" xmlns="http://www.w3.org/2000/svg">
<g clip-path="url(#clip0_2087_4590)">
<path d="M63.0986 57.4999C63.0986 73.2999 49.4986 82.6998 26.5986 82.6998C3.69865 82.6998 6.09865 82.0998 2.19865 81.1998C1.59865 81.0998 0.598634 80.2998 0.898634 80.1998C2.59863 79.5998 5.19865 77.9999 5.19865 75.4999V9.69983C5.19865 7.19983 2.59863 4.89993 0.898634 4.29993C0.598634 4.19993 1.59865 3.39993 2.19865 3.29993C9.59865 2.19993 19.8986 1.3999 27.7986 1.3999C43.8986 1.3999 53.2986 7.99985 53.2986 19.0999C53.2986 30.1999 49.0986 30.5999 41.9986 34.8999C55.1986 38.7999 62.9986 47.1999 62.9986 57.4999H63.0986ZM16.6987 10.9999V37.7999C34.0987 35.9999 42.2986 29.4999 42.2986 20.4999C42.2986 11.4999 36.6986 6.29985 26.5986 6.09985C20.9986 6.09985 16.6987 7.89988 16.6987 10.9999ZM52.1987 60.3999C52.1987 49.4999 43.0986 42.5999 27.5986 42.4999C24.9986 42.4999 20.1987 42.7999 16.6987 43.2999V73.9999C16.6987 75.8999 18.7986 77.5999 24.2986 77.7999C41.6986 77.9999 52.1987 71.0999 52.1987 60.4999V60.3999Z" fill="black"/>
<path d="M97.4994 81.1999C94.1994 81.8999 89.1994 82.1999 86.0994 82.6999C85.0994 82.7999 82.9994 80.4 82.9994 77.9V9.69992C82.9994 7.19992 80.3994 4.90002 78.6994 4.30002C78.3994 4.20002 79.3994 3.40002 79.9994 3.30002C83.2994 2.60002 87.7994 1.79999 91.3994 1.39999C92.3994 1.29999 94.4994 3.69992 94.4994 6.19992V74.4C94.4994 76.9 97.0994 79.5999 98.7994 80.1999C99.0994 80.2999 98.0994 81.0999 97.4994 81.1999Z" fill="black"/>
<path d="M179.899 58.8999C174.699 75.8999 164.999 83.7999 148.999 83.7999C132.999 83.7999 116.699 68.7999 116.699 46.2999C116.699 23.7999 130.699 0.399902 151.699 0.399902C172.699 0.399902 174.699 7.89993 179.399 20.7999L167.899 24.8999C163.699 12.6999 157.499 7.09985 148.399 7.09985C139.299 7.09985 128.099 19.1999 128.099 37.2999C128.099 55.3999 137.699 77.9999 151.099 77.9999C164.499 77.9999 165.999 71.1998 169.199 56.1998L179.799 58.8999H179.899Z" fill="black"/>
<path d="M258.799 6.19992V81.1999L247.399 82.6999V43C238.899 43.5 221.299 44.8 213.099 46.3V81.1999L201.699 82.6999V9.69992C201.699 7.19992 199.099 4.90002 197.399 4.30002C197.099 4.20002 198.099 3.40002 198.699 3.30002C201.999 2.60002 206.499 1.79999 210.099 1.39999C211.099 1.29999 213.199 3.69992 213.199 6.19992V38.6999C218.599 38.4999 238.799 38.5999 247.499 38.5999V9.80002C247.499 7.30002 244.899 4.99999 243.199 4.39999C242.899 4.29999 243.899 3.49999 244.499 3.39999C247.799 2.69999 252.299 1.89997 255.899 1.49997C256.899 1.39997 258.999 3.80002 258.999 6.30002L258.799 6.19992Z" fill="black"/>
<path d="M341.497 58.8999C336.297 75.8999 326.597 83.7999 310.597 83.7999C294.597 83.7999 278.297 68.7999 278.297 46.2999C278.297 23.7999 292.297 0.399902 313.297 0.399902C334.297 0.399902 335.897 6.99985 340.997 19.5999L329.497 23.6998C325.297 12.8998 318.597 7.19983 309.997 7.19983C301.397 7.19983 289.897 18.8998 289.697 36.6998C297.997 36.7998 317.697 37.6999 325.797 36.7999C323.197 38.6999 316.797 41.8998 314.097 42.1998C309.297 42.3998 299.297 42.8998 289.897 43.1998C291.297 64.2998 300.397 78.0999 312.697 78.0999C324.997 78.0999 327.997 71.2999 331.197 56.2999L341.497 58.9999V58.8999Z" fill="black"/>
</g>
<defs>
<clipPath id="clip0_2087_4590">
<rect width="342" height="84" fill="white"/>
</clipPath>
</defs>
</svg>
