<?xml version="1.0" encoding="UTF-8"?>
<svg id="Layer_1" xmlns="http://www.w3.org/2000/svg" xmlns:xlink="http://www.w3.org/1999/xlink" version="1.1" viewBox="0 0 904.5 1336">
  <!-- Generator: Adobe Illustrator 29.5.1, SVG Export Plug-In . SVG Version: 2.1.0 Build 141)  -->
  <defs>
    <style>
      .st0 {
        display: none;
        opacity: .4;
      }
    </style>
  </defs>
  <g id="xD6lEh.tif" class="st0">
    <image id="Layer_0" width="1112" height="1586" transform="translate(-27.7 -71.6) scale(.9)" xlink:href="01_Primary-Full-1.png"/>
  </g>
  <g>
    <path d="M493.5,68.4c1.3.2,2.6.5,3.8.6,8.4.3,16.8.6,25.2.8,13.4.4,26.8.7,40.2,1.1,1.6,0,3.1.3,4.7.6,2.7.5,4.9,1.9,6.6,4,7.3,8.6,14.6,17.2,21.8,26,9.4,11.5,18.8,23,28,34.6,5.5,7,10.8,14.2,16,21.5,7.4,10.4,15.3,20.4,23.7,30,5.5,6.3,10.6,13,15.9,19.6,3.7,4.6,7.2,9.3,10.9,14,8.1,10.2,15.7,20.7,22.9,31.6,2.5,3.7,5.2,7.3,8.2,10.5,4.7,4.9,7.1,10.8,7.9,17.6.9,7.2.9,14.4,0,21.6-.2,1.8-.2,3.7-.2,5.5-.2,21.9-.4,43.9-.7,65.8,0,1.1,0,2.1,0,3.2-.7,6.7-.2,13.4-.1,20.1.3,15.6.3,31.3,0,46.9-.1,10.9-.9,21.8-1.3,32.7-.1,2.8-.2,5.5-.2,8.3,0,18.1,0,36.3-.1,54.4,0,4,.4,7.9,1.1,11.8,1.8,10.3,0,19.9-6,28.5-.7,1-1.4,1.9-2.1,2.9-17.1,23.2-34.7,45.9-54,67.3-6.3,7-12.1,14.5-17.7,22.1-18.2,24.6-36.7,49-55.9,72.9-7.6,9.4-15.4,18.7-23.1,28-1.1,1.3-2.2,2.6-3.5,3.7-3.3,3-7.2,4.2-11.6,3.8-4.1-.3-8.1-.6-12.2-.6-43.5,0-87,.1-130.5.1-18.3,0-36.5-.1-54.8-.1-3.3,0-6.5,0-9.8.5-4.5.7-8.6-.6-12-3.6-1.6-1.4-3-3-4.3-4.6-20.6-24.4-40.3-49.5-59.4-75.1-7.5-10-14.9-20.1-22.6-29.8-7.8-9.9-15.9-19.6-24.2-29.1-15.5-17.7-29.8-36.4-43.8-55.3-3.9-5.3-7.1-11.1-8.1-17.7-.6-4.1-.8-8.1,0-12.2,1-5.5,1.3-10.9,1.3-16.5-.2-20.2-.2-40.5-.3-60.7,0-3.4-.5-6.8-.6-10.2-.7-21.9-1.1-43.9-.7-65.8,0-2.2.4-4.4.5-6.7.1-2.6.3-5.3.2-7.9-.3-16.7-.6-33.4-.9-50.1-.2-9.2-.2-18.4-.4-27.6,0-3.5-.5-7.1-.8-10.6-.7-8.1.3-16,2.5-23.8.7-2.6,2.1-4.9,3.9-6.8,6.1-6.4,10.7-13.9,15.9-21,10.4-14.2,21.2-28.1,31.8-42.2,1.2-1.6,2.4-3.1,3.6-4.7,2.8-3.8,5.9-7.4,9.1-10.8,5.5-5.8,10.4-12.2,15.2-18.6,9.1-12.2,18.2-24.4,27.4-36.6.7-.9,1.4-1.9,2.2-2.8,15-17.8,29.2-36.2,44.5-53.7,2.4-2.8,5.2-4.2,8.8-4.3,7.1-.1,14.2-.5,21.3-.7,22.8-.6,45.7-1.2,68.5-1.8,2.9,0,5.8,0,8.7-.2,1.2,0,2.3-.3,3.5-.4,18.7,0,37.3,0,56,0ZM450.5,76.4c0,0,0-.2,0-.3-12.2.3-24.4.6-36.6.9-18.4.5-36.8,1.1-55.1,1.8-7.1.3-14.1,1.2-21.1,2.4-3.1.5-5.2,2-6.8,4.7-1.8,3-4.1,5.8-6.3,8.6-1.8,2.3-3.8,4.4-5.5,6.7-11.4,14.6-23.4,28.7-35.2,43-3.8,4.6-7.3,9.3-10.6,14.2-3.4,5.1-7,10.2-10.9,14.9-10.6,12.9-21.1,25.9-31.6,38.8-11.6,14.1-22.6,28.7-33.1,43.6-4.6,6.6-9.4,13-15.4,18.4-.4.4-.7.8-1.1,1.1-1.4,1.4-2,3-1.9,5,0,1.2,0,2.4,0,3.5.3,18,.4,36,.8,54,.2,9.6.5,19.2.9,28.8.8,18.3.7,36.5-.7,54.7-.3,3.5-.3,7.1,0,10.6.6,7.3,1.1,14.7,1.1,22,0,4.1,0,8.1,0,12.2,0,29.3.2,58.6.3,87.9,0,4.3,0,8.7,0,13,0,2.3.6,4.4,2,6.2,5.9,7.7,11.5,15.7,17.6,23.2,12.6,15.5,25.5,30.7,38.4,46,28.6,33.8,56,68.6,81.8,104.6,1.5,2.1,3.1,4.2,4.8,6.3,4,4.9,8.4,9.4,13.1,13.6,2.3,2,4.9,3.1,7.9,3,1.2,0,2.4,0,3.5,0,10.5,0,21-.2,31.5-.2,23.8.2,47.5-.5,71.3.4,3.9.2,7.9,0,11.8,0,29,0,58.1-.2,87.1-.2,3.6,0,6.6-1,9.3-3.4,5.9-5.3,11.3-11,15.9-17.5,24-33.6,49.4-66.1,75.8-97.8,13.2-15.9,26.6-31.5,39.9-47.3,8-9.5,15.6-19.1,22.7-29.2,2-2.8,3-5.7,3-9.2,0-31.1,0-62.3.1-93.4,0-13,.3-26,1.3-39,.5-6.6.9-13.1,0-19.7-.9-7.3-1.2-14.7-1.2-22,0-6,0-12.1.2-18.1,0-4.6,0-9.2.6-13.8.5-4.3.7-8.6.7-13,0-1.7,0-3.4,0-5.1.2-19.4.4-38.9.7-58.3,0-4.3-1.2-7.5-4.5-10.4-5.5-4.8-9.8-10.6-13.8-16.6-6.6-9.8-13.5-19.4-20.9-28.6-9-11.2-18.2-22.1-27.2-33.3-8.7-10.8-17.8-21.5-25.7-33-6.4-9.3-13.6-18.1-20.7-26.8-8.1-9.9-16.4-19.5-23.9-29.8-1.2-1.6-2.6-3-3.9-4.4-3.9-4.1-7.6-8.4-10.4-13.3-.4-.7-.8-1.3-1.3-2-1.6-2.1-3.6-3.4-6.2-3.8-6.7-1.1-13.5-2.1-20.3-2.3-10-.4-20-.6-29.9-.9-5.4-.2-10.8-.3-16.1-.5-7.2-.3-14.4-.8-21.7-1-8.1-.2-16.3,0-24.4,0Z"/>
    <path d="M189.2,450.6c0-10.3,0-28,0-45.8,0-15.6,0-31.3-.1-46.9,0-3.8-.4-7.6-.8-11.4-1-10.2-1.5-20.4-.9-30.7.4-5.6.8-11.3,1.1-16.9.2-3.1.2-6.3.1-9.5,0-2,.3-4,1.3-5.7,1.7-2.7,3.3-5.4,5.2-7.8,9.9-12.3,19.8-24.5,29.9-36.7,8.6-10.4,17-21.1,25.2-31.8,8.2-10.6,16.4-21.2,24.7-31.7,15.5-19.4,30.3-39.3,45-59.3,2.6-3.5,4.8-7.2,7.1-10.9,1.4-2.2,2.7-4.5,4.3-6.6,1.5-2,3.1-3.9,4.8-5.7,2.6-2.7,5.8-4.1,9.5-4.1.4,0,.8,0,1.2,0,16.3-.8,32.5-1.7,48.8-2.2,10.9-.4,21.8-.3,32.7-.3,15.1,0,30.2-.3,45.3-.2,11.2,0,22.3.4,33.5.8,5.8.2,11.5.6,17.3.8,9.2.4,18.4.8,27.6,1.1,1,0,2.1,0,3.1.1,3.3.2,6,1.3,8.5,3.7,2.5,2.4,4.7,4.9,6.4,7.9,5.7,9.6,12.2,18.7,19,27.5,18.6,24.1,37.3,48.2,55.9,72.4,7.5,9.7,14.9,19.4,22.4,29,2.1,2.7,4.3,5.3,6.6,7.9,6.2,7,12,14.2,17.6,21.7,2.5,3.4,5.1,6.7,7.6,10.1,1.9,2.5,4,4.9,6.3,7,1,.8,1.9,1.9,2.5,3,2.3,4.2,3.8,8.6,4.1,13.4.9,15.1.4,30.2.3,45.3-.2,15-.5,30-.6,44.9-.2,20-.1,39.9-.3,59.9,0,5.8,0,11.6-.6,17.3-.5,5.1-.8,10.2-.8,15.3-.2,18.7-.4,37.3-.5,56,0,10,0,20,0,30,0,3.3-.8,6.2-2.5,8.9-2.8,4.5-5.7,8.8-9,12.9-37.6,47-75.1,94-112.7,141-8.6,10.8-17.3,21.5-25.9,32.3-.4.5-.8,1-1.2,1.5-1,1.2-2.2,1.8-3.8,1.8-.4,0-.8,0-1.2,0-13.5-.5-27.1.4-40.6.7-29.2.6-58.3.7-87.5.5-21.9-.2-43.9-.5-65.8-.7-4.3,0-8.7-.3-13-.3-2,0-3.4-.8-4.6-2.4-11.2-14.2-22.5-28.4-33.8-42.6-26.6-33.7-53.5-67.2-80.7-100.5-8.9-10.9-17.6-22-26.2-33.1-3-3.8-5.5-8-8.2-12.1-1.6-2.4-1.9-5.1-2-7.9-.1-7-.2-13.9-.3-20.9-.5-27.6-1-55.2-1.6-90.2ZM701.7,424.8s0,0-.1,0c.2-8.3.4-16.6.6-24.8.2-9.9.5-19.7.4-29.6-.2-27.2-.6-54.4-.8-81.6,0-2.4-.8-4.2-2.3-6-4.9-5.5-9.8-11-14.4-16.7-17.8-21.6-35.4-43.3-53.1-65-.8-1-1.7-2-2.4-3.1-4.7-7.4-10.3-14.3-15.9-21.1-3-3.6-5.7-7.5-8.6-11.3-1.3-1.8-2.5-3.7-4-5.4-13-15.5-25-31.8-35.9-48.9-2-3.1-4.1-6.1-6.2-9.2-2.4-3.5-5.7-5.2-10-5.3-8-.2-16-.5-24-.7-21.4-.5-42.8-.7-64.2-.5-34.4.3-68.8.2-103.2,1.2-1.7,0-3.4,0-5.1,0-4.8,0-8.6,1.9-11.3,6-1.7,2.5-3.4,5-5,7.5-9.2,14.6-19.1,28.6-30,42-4.5,5.5-8.8,11.1-13.1,16.8-7.7,10.2-15.4,20.3-23.1,30.4-11.3,14.8-23.1,29.3-35.4,43.4-4.1,4.7-8.1,9.6-12.1,14.6-6.6,8.3-13.3,16.6-20.8,24.2-3,3-4.5,6.7-4.5,11,0,7-.3,13.9-.2,20.9.2,23.9.5,47.8.9,71.7.3,20.8.6,41.5.9,62.3,0,2.5.1,5,.3,7.5.2,3.1.5,6.3.5,9.4.2,7.6.2,15.2.4,22.9.2,10,.7,20,.8,29.9.2,14.7.3,29.4.2,44.2,0,3.3.9,6.1,2.6,8.9,3.9,6.4,8.4,12.4,13.5,17.9,13.4,14.8,26.4,30,39,45.5,12.6,15.5,25.4,30.8,38.1,46.2,2.7,3.2,5.3,6.5,7.8,9.9,14.1,18.6,28.8,36.9,43.5,55,2.2,2.8,4.7,4.2,8.3,4.3,6.3,0,12.6.5,18.9.8,8.8.4,17.6,1,26.4,1.2,12,.2,23.9.2,35.9.2,15.9,0,31.8.3,47.7,0,20.5-.4,41-1.2,61.4-1.9,1.3,0,2.6-.3,3.9-.4,3.2-.4,5.7-1.9,7.5-4.6.8-1.2,1.7-2.3,2.7-3.4,5.8-7.1,11.7-14.2,17.4-21.4,11.2-14.2,22.2-28.6,33.6-42.8,10.4-12.9,21.1-25.5,31.6-38.3,14.7-17.9,29.3-35.8,44.9-52.9,3.6-4,6.7-8.5,9.8-12.9,2.9-4.1,4.3-8.5,4.2-13.6,0-9.9.2-19.7.3-29.6.2-17.9.4-35.7.7-53.6.3-17.1.7-34.2,1.1-51.2Z"/>
  </g>
  <g>
    <path d="M343.1,1168.5c0,15.8-13.6,25.2-36.5,25.2s-20.5-.6-24.4-1.5c-.6-.1-1.6-.9-1.3-1,1.7-.6,4.3-2.2,4.3-4.7v-65.8c0-2.5-2.6-4.8-4.3-5.4-.3-.1.7-.9,1.3-1,7.4-1.1,17.7-1.9,25.6-1.9,16.1,0,25.5,6.6,25.5,17.7s-4.2,11.5-11.3,15.8c13.2,3.9,21,12.3,21,22.6ZM296.7,1122v26.8c17.4-1.8,25.6-8.3,25.6-17.3s-5.6-14.2-15.7-14.4c-5.6,0-9.9,1.8-9.9,4.9ZM332.2,1171.4c0-10.9-9.1-17.8-24.6-17.9-2.6,0-7.4.3-10.9.8v30.7c0,1.9,2.1,3.6,7.6,3.8,17.4.2,27.9-6.7,27.9-17.3Z"/>
    <path d="M377.5,1192.2c-3.3.7-8.3,1-11.4,1.5-1,.1-3.1-2.3-3.1-4.8v-68.2c0-2.5-2.6-4.8-4.3-5.4-.3-.1.7-.9,1.3-1,3.3-.7,7.8-1.5,11.4-1.9,1-.1,3.1,2.3,3.1,4.8v68.2c0,2.5,2.6,5.2,4.3,5.8.3.1-.7.9-1.3,1Z"/>
    <path d="M459.9,1169.9c-5.2,17-14.9,24.9-30.9,24.9s-32.3-15-32.3-37.5,14-45.9,35-45.9,23,7.5,27.7,20.4l-11.5,4.1c-4.2-12.2-10.4-17.8-19.5-17.8s-20.3,12.1-20.3,30.2,9.6,40.7,23,40.7,14.9-6.8,18.1-21.8l10.6,2.7Z"/>
    <path d="M538.8,1117.2v75l-11.4,1.5v-39.7c-8.5.5-26.1,1.8-34.3,3.3v34.9l-11.4,1.5v-73c0-2.5-2.6-4.8-4.3-5.4-.3-.1.7-.9,1.3-1,3.3-.7,7.8-1.5,11.4-1.9,1-.1,3.1,2.3,3.1,4.8v32.5c5.4-.2,25.6-.1,34.3-.1v-28.8c0-2.5-2.6-4.8-4.3-5.4-.3-.1.7-.9,1.3-1,3.3-.7,7.8-1.5,11.4-1.9,1-.1,3.1,2.3,3.1,4.8Z"/>
    <path d="M621.5,1169.9c-5.2,17-14.9,24.9-30.9,24.9s-32.3-15-32.3-37.5,14-45.9,35-45.9,22.6,6.6,27.7,19.2l-11.5,4.1c-4.2-10.8-10.9-16.5-19.5-16.5s-20.1,11.7-20.3,29.5c8.3.1,28,1,36.1.1-2.6,1.9-9,5.1-11.7,5.4-4.8.2-14.8.7-24.2,1,1.4,21.1,10.5,34.9,22.8,34.9s15.3-6.8,18.5-21.8l10.3,2.7Z"/>
  </g>
  <g>
    <path d="M379.5,707c-.8,0-1.6,0-2.4,0-.5,0-.9-.4-1.1-.8-.8-1.2-1.5-2.5-2.3-3.7-1.8-3-3.6-5.9-5.4-8.9,0,0,0,0,0,0,0-.1-.2-.2-.3-.3v13.4c0,0,0,.2-.2.2-.8.1-1.7.2-2.5,0-.2,0-.3,0-.4-.2-.1-.1-.2-.3-.1-.4,0-1.3,0-2.5,0-3.8,0-1.1,0-2.2,0-3.3,0-2.5,0-4.9,0-7.4,0-1.5,0-3,0-4.5,0-.8.1-.8.9-.7.5,0,1,0,1.5,0,.6,0,1.2.3,1.4.8,1.1,1.9,2.4,3.8,3.5,5.7,1.3,2.1,2.6,4.2,3.9,6.3,0,.2.2.3.4.5,0,.1.3,0,.3,0,0-.2,0-.3,0-.5h0c0-2.4,0-4.8,0-7.3v-4.9c0-.6.1-.7.8-.7.7,0,1.4,0,2.1.1,0,0,.2,0,.2.2.2,1.9.2,17.8,0,19.8,0,0,0,.2-.2.2Z"/>
    <path d="M404.2,686.8c.2,0,.3.2.3.3,0,.8,0,1.6,0,2.3,0,.6-.2.7-.8.8h-.3c-3.4,0-6.7,0-10.1.1-.2,0-.4,0-.6,0-.1,0-.3.1-.3.3-.2,1.3-.2,2.5-.2,3.8,0,.1,0,.2.2.3s.1,0,.2,0c0,0,0,0,0,0,1.9,0,3.7,0,5.6,0h.3c.7,0,.9.2.9.9,0,.6,0,1.2,0,1.8s0,.3,0,.4c0,.1-.1.3-.3.3-.2,0-.4,0-.6,0-1.8,0-3.6,0-5.4,0h-.6c-.2,0-.3.1-.3.3,0,.2,0,.3,0,.5,0,0,0,0,0,0,0,1.2,0,2.4,0,3.5,0,.7.1.8.8.8,1.6,0,3.2,0,4.9,0,1.9,0,3.8,0,5.7,0,.7,0,.9.2.9.9,0,.7,0,1.4,0,2.2,0,.2-.1.3-.3.3-.2,0-.4,0-.6,0,0,0,0,0,0,0-4.6,0-9.2,0-13.8,0-.8,0-.8,0-.8-.9,0-3.4,0-6.8,0-10.2v-8c0-1.2,0-1.2,1.1-1.2,4.4,0,8.8,0,13.2,0,.2,0,.5,0,.8,0Z"/>
    <path d="M433.8,686.7c.2,0,.4.2.3.4,0,.2,0,.5,0,.7,0,0,0,0,0,0l-1.4,6.1c-.2.8-.4,1.6-.6,2.4-.2,1-.4,1.9-.7,2.9-.2.9-.4,1.8-.6,2.7-.3,1.4-.7,2.8-1,4.1,0,.4-.3.7-.7.7,0,0,0,0-.1,0,0,0,0,0-.1,0-.4,0-.8.1-1,.1-.7,0-.8-.3-1-1,0-.1,0-.2-.1-.4-.3-1-.6-2-.9-2.9l-.2-.7c-.2-.5-.3-1.1-.5-1.6-.3-.9-.5-1.7-.8-2.6-.1-.4-.3-.8-.4-1.2-.1-.4-.3-.8-.4-1.2-.2-.6-.3-1.2-.6-1.7,0-.1-.1-.2-.2-.2,0,0-.2,0-.2.1,0,.2-.1.3-.2.5-.1.4-.2.8-.3,1.2,0,.3-.2.6-.3.9-.2.6-.3,1.1-.5,1.7,0,.3-.2.5-.2.8-.2.8-.5,1.6-.7,2.4-.3,1.1-.7,2.3-1,3.4-.2.5-.4,1.1-.5,1.6l-.2.5c0,.2-.2.3-.4.3h-1.6c-.5,0-.8-.3-.9-.8,0-.3-.2-.7-.3-1-.1-.4-.2-.8-.3-1.3-.4-1.7-.8-3.4-1.2-5.1-.2-1.1-.5-2.1-.7-3.2-.2-1.1-.5-2.2-.7-3.2-.2-.7-.3-1.4-.5-2.1-.2-.8-.4-1.7-.6-2.5,0-.2,0-.5,0-.7,0-.2.1-.4.3-.4.7,0,1.3,0,2,0,.2,0,.3.1.3.3l.4,1.6c.4,1.7.9,3.4,1.3,5,.4,1.6.8,3.1,1.3,4.7.2.7.4,1.4.6,2,0-.2.2-.4.2-.5,0,0,0,0,0,0v-.3c.9-2.6,1.7-5.3,2.6-7.9.1-.4.2-.8.3-1.2,0-.3.2-.7.2-1,0-.2.1-.4.2-.7.1-.5.3-1.2.5-1.6.2-.6.7-.5,1.1-.5.1,0,.3,0,.4,0,.4,0,1,0,1.1.6.4,1.2.8,2.4,1.1,3.7.2,1,.5,1.9.9,2.9.1.2.2.4.2.7.4,1.5.8,2.9,1.3,4.4,0,0,0,0,0,0,0,.1,0,.3,0,.4,0,.1,0,.3,0,.4,0,.2.1.4.2.6.9-2.7,1.7-5.5,2.4-8.2.4-1.7.9-3.4,1.4-5.1,0-.1.2-.3.3-.3.7-.1,1.3-.1,2,0h0Z"/>
    <path d="M462.1,706.9c-.8,0-1.7.1-2.5,0-.2,0-.3-.2-.3-.3,0-.3,0-.6,0-.9,0-2.4,0-4.8,0-7.3,0-.7-.3-1.5-.7-2-.8-1.2-1.6-2.4-2.4-3.6-.7-1-1.3-2-2-3.1-.5-.8-.9-1.5-1.4-2.3,0,0,0-.2,0-.3.1-.3.4-.4.7-.4.7,0,1.3,0,2,0,.4,0,.8.2,1,.6.7,1.1,1.4,2.3,2.2,3.4s1.3,2.2,2.1,3.3c0,0,.1,0,.2.1.5-.6.8-1.1,1.2-1.8.2-.3.4-.7.7-1,.5-.8,1-1.5,1.5-2.3.4-.6.7-1.1,1.1-1.7.2-.4.6-.6,1.1-.6.6,0,1.2,0,1.8,0,.3,0,.4,0,.7.4,0,0,.1.2,0,.4,0,.1,0,.2-.1.3,0,0,0,0,0,0-.9,1.4-1.8,2.7-2.7,4.1-.8,1.3-1.7,2.6-2.5,4-.1.2-.2.4-.4.6-.4.5-.6,1.1-.6,1.8,0,2.7,0,5.3-.1,8,0,.1,0,.3,0,.5,0,.2-.1.3-.3.3h0Z"/>
    <path d="M481.6,686.6c1.9,0,3.8.5,5.2,1.8,1.2,1,2.2,2.3,2.9,3.8.5,1.1.8,2.2.7,3.4,0,.8,0,1.6,0,2.4,0,1.9-.6,3.8-1.4,5.5-.5.8-1.1,1.5-1.8,2-.8.6-1.7,1.1-2.7,1.4-.6.3-1.3.4-1.9.3-1.2,0-2.4-.2-3.6-.6-.5-.2-.9-.4-1.3-.7-.6-.4-1.2-.8-1.7-1.3-.7-.7-1.3-1.5-1.6-2.4-1.4-3.8-1.1-8,.6-11.7.6-1.1,1.6-2.1,2.6-2.9.6-.4,1.2-.7,1.8-1,.3-.1.7-.2,1-.2.4,0,.8,0,1.1,0h0ZM487,694.3c-.1-.6-.4-1.2-.8-1.8-.1-.4-.4-.7-.6-1-.9-.8-2.1-1.3-3.3-1.5,0,0,0,0,0,0-1.8,0-3.5.9-4.4,2.4-.9,1.5-1.2,3.2-.9,4.9.2,1.3.6,2.5,1.2,3.6.8,1.6,2.5,2.6,4.3,2.5.8,0,1.6-.2,2.3-.8.3-.3.7-.6,1-.8.5-.3.8-.8,1-1.3.3-1.2.5-2.4.6-3.6-.1-.9-.3-1.8-.4-2.7Z"/>
    <path d="M514.1,707h-.8c-.7,0-1.4,0-2.1,0-.6,0-1.3-.3-1.5-.9-.6-1.3-1.3-2.5-1.9-3.8-.5-1-1.1-2-1.6-3-.3-.7-1.1-1.1-1.9-1-.7,0-1.3,0-2,0-.2,0-.3.1-.3.3-.2,2.7-.3,5.3-.2,8,0,.2,0,.3-.3.4,0,0,0,0-.1,0,0,0,0,0,0,0-.8,0-1.7,0-2.5,0,0,0-.1,0-.3-.1,0-.3,0-.5,0-.8,0-4.5,0-9.1,0-13.6,0-1.6,0-3.2,0-4.8,0-.8,0-.9.9-.9,2.4,0,4.8,0,7.2,0h2c1.5,0,3,.8,3.9,2.1.4.5.7,1.1.9,1.7,0,.1.1.3.1.5,0,1.3-.2,2.6-.5,3.8,0,0,0,0,0,0-.4,1.2-1.3,2.2-2.4,2.8-.9.5-1,.6-.5,1.5.7,1.4,1.5,2.7,2.2,4.1.6,1.1,1.2,2.2,1.8,3.3,0,0,0,.1,0,.3h0ZM501.7,693.8c0,.2,0,.4.2.6.2.2.4.2.6.2,1.9,0,3.8,0,5.7,0,.5,0,1-.3,1.2-.7.4-.7.5-1.6.3-2.4-.1-.5-.6-.9-1.1-1-2.1,0-4.3,0-6.4,0-.1,0-.3,0-.4.1,0,1.1,0,2.1,0,3.2Z"/>
    <path d="M537.4,706.8c-1.1.2-2.2.3-3.3.3,0,0,0,0,0,0-.5-.7-1-1.4-1.5-2.1-1.2-1.8-2.3-3.7-3.5-5.5-.3-.4-.5-.8-.9-1.2,0,0,0,0,0,0-.2-.2-.4-.3-.6-.5,0,0,0,0-.1,0-.8.8-1.5,1.5-2.2,2.2,0,0,0,0,0,0-.3.5-.5,1.1-.4,1.7,0,1.2,0,2.4,0,3.6,0,.5,0,.9-.2,1.4,0,0,0,0,0,0-.8.1-1.6.1-2.4,0-.4,0-.6-.3-.6-.7,0-1,0-2,0-3,0-3.6,0-7.3,0-10.9,0-1.6,0-3.1,0-4.7,0-.6.1-.7.8-.7.8,0,1.5,0,2.4.1,0,0,0,0,0,0,0,.3,0,.6,0,.9,0,1.8-.1,3.7-.1,5.5,0,.6,0,1.2,0,1.8,0,0,0,.1.1,0,.4-.2.8-.4,1.2-.8,1.3-1.2,2.5-2.4,3.8-3.6,1.3-1.3,2.7-2.5,4-3.7.4-.3.9-.5,1.4-.4.6,0,1.2,0,1.9.1,0,0,0,0,0,0,.2,0,.4.2.6.3,0,0,0,0,0,.1-.7.8-1.4,1.5-2,2.2-.4.4-.9.8-1.3,1.2-1.2,1.2-2.5,2.4-3.7,3.7-.5.5-.5.7-.2,1.3,1.9,3.5,4.1,6.8,6.3,10.1.2.3.3.5.5.8,0,0,0,.1,0,.1h0Z"/>
  </g>
  <g>
    <path d="M594.2,259.6c.7,1.2,1.3,2.2,1.9,3.3.4.9.5,1.9.3,2.9-.2,1.1-.6,2.2-1.2,3.2-.5,1-1.5,1.7-2.6,1.9-.8.1-1.7.2-2.6.2-1.6,0-3.3,0-4.9,0-1.1,0-2.2,0-3.3-.1-.6,0-1.3,0-1.9,0-.6,0-.7,0-.7-.6,0-.5,0-.9,0-1.4,0-4.7,0-9.4,0-14.1,0-1.4,0-2.7,0-4.1,0-.2,0-.4,0-.6,0-.3.2-.6.5-.8.3-.2.6-.3.9-.3,2.4,0,4.9,0,7.3,0h2.3c1.7,0,3.2.9,4.2,2.3.4.6.8,1.3,1,2,0,.2.1.5.1.7,0,1.8-.4,3.7-1.2,5.3,0,0,0,0,0,.1ZM587.1,252.5s-2.2,0-3.3,0c-.7,0-1.1.3-1.1.9,0,1,0,2.1,0,3.1,0,.3,0,.6.2.8.2.2.5.3.7.3.3,0,.6,0,1,0,2.1,0,4.2,0,6.2-.1.7,0,1.3-.6,1.5-1.2.2-.8.2-1.6-.2-2.4-.2-.9-1.1-1.5-2-1.4h-3ZM590.1,268.1c.8,0,1.6-.3,2-1,.9-1.2,1-2.8.3-4.2-.4-.8-1.2-1.4-2.1-1.4-1.6,0-3.2,0-4.7,0s-1.7,0-2.7,0c-.2,2.1-.2,4.3,0,6.4h0c2.5,0,4.8.1,7,.1Z"/>
    <path d="M582.5,291.1c0,.1,0,.2-.2.2-.9,0-1.8,0-2.6,0-.5,0-1-.4-1.2-.9-.8-1.4-1.6-2.7-2.5-4.1-2-3.2-3.9-6.4-5.9-9.6,0,0,0,0,0,0-.1-.1-.2-.2-.3-.3v14.6c0,0,0,.2-.2.2-.9.1-1.8.2-2.7.1-.2,0-.3,0-.4-.2-.1-.1-.2-.3-.2-.5,0-1.4,0-2.7,0-4.1,0-1.2,0-2.4,0-3.6,0-2.7,0-5.3,0-8,0-1.6,0-3.2,0-4.8,0-.8.1-.9,1-.8.5,0,1.1,0,1.6,0,.7,0,1.3.3,1.6.9,1.2,2.1,2.5,4.1,3.8,6.2,1.4,2.3,2.8,4.5,4.2,6.8.1.2.2.3.4.5.1.1.3,0,.4,0,0-.2,0-.4,0-.5h0c0-2.6,0-5.3,0-7.9v-5.3c0-.7.2-.8.8-.7.8,0,1.5,0,2.3.1,0,0,.2,0,.2.2.2,2.1.2,19.3,0,21.5h0Z"/>
    <path d="M596.6,318.8c-.9.1-1.8.1-2.7,0-.2,0-.3-.2-.3-.4,0-.4,0-.7,0-1,0-2.6,0-5.3,0-7.9,0-.8-.3-1.6-.8-2.2-.9-1.3-1.7-2.6-2.6-3.9-.7-1.1-1.5-2.2-2.2-3.3-.5-.8-1-1.7-1.5-2.5,0,0,0-.2,0-.3.1-.3.4-.5.7-.5.7,0,1.4,0,2.2,0,.4,0,.9.2,1.1.6.8,1.2,1.5,2.5,2.4,3.6s1.4,2.4,2.3,3.5c0,0,.1,0,.3.1.5-.6.9-1.2,1.3-1.9.2-.4.5-.7.7-1.1.5-.8,1.1-1.6,1.6-2.5.4-.6.8-1.2,1.2-1.8.3-.4.7-.7,1.2-.6.6,0,1.3,0,1.9,0,.4,0,.4,0,.7.4,0,.1.1.3,0,.4,0,.1,0,.2-.2.3,0,0,0,0,0,0-1,1.5-1.9,2.9-2.9,4.4-.9,1.4-1.8,2.9-2.7,4.3-.1.2-.3.4-.4.6-.4.5-.7,1.2-.6,1.9,0,2.9,0,5.8-.1,8.6,0,.2,0,.3,0,.5,0,.2-.2.3-.3.3h0Z"/>
  </g>
  <g>
    <path d="M434.7,263c2.1,3.1,3.9,5.9,5.7,8.6.5.8.8,1.9,1.1,2.8,2.1,6.9-.3,10.9-7.3,12.5-.4,0-.7.2-1.2.4,0,.5-.2,1,0,1.4,2.1,9.5,4.3,18.9,9,27.6,2.1,4,3.3,8.3,4.3,12.9,1.3,6.3,2.6,12.6,4.5,18.6,4.3,13.3,7.2,27,10.1,40.6,1,4.3,2.3,8.4,4.4,12.3,2.3,4.3,4.4,8.8,6,13.4,3.2,9.2,9,15.8,17.8,20,3.7,1.8,7.3,4,10.9,5.9,8.3,4.3,15.5,9.8,22.1,16.3,3.5,3.5,7.2,7.1,10.6,10.7,4.3,4.6,7.7,9.9,10.5,15.6,2.8,5.7,5.1,11.5,7.7,17.2,1.2,2.7,2.4,5.3,3.9,7.7,2.5,3.8,6.2,5.3,10.7,4.9,11.1-1.2,18.1-7.9,19.6-19.1.4-3.5-1.1-6.3-3.7-8.6-2.8-2.5-5.7-5-8.1-7.9-5.4-6.5-7.7-14.1-6.7-22.5.9-7.8,5.1-13.7,11.5-17.7,4.3-2.8,9-2.2,13.1.6,3.4,2.2,5.6,5.4,7.2,9,2.5,5.8,3.2,11.9,4.2,17.9.4,2.2.7,4.4.9,6.7.4,4.3,2.2,7.6,5.6,10.3,2.5,2,5,3.9,7.3,6,1.3,1.2,2.6,2.5,3.6,3.8,1.1,1.3,1.8,3.2.4,4.5-1.1,1-2.8,1.5-4.3,1.7-1.3.2-2.7-.4-4.1-.8-.9-.2-1.7-.5-2.6-.7-4.1-1.1-5.7-.4-7.4,3.6-1.3,3.3-2.6,6.6-3.9,9.8-1.1,2.4-2.1,4.9-3.4,7.2-4.1,7.5-10.6,11.4-19,11.7-5.7.3-11.4.2-16.9-.2-3.1-.2-6.1-1.1-9.1-2-4.1-1.3-5.2-1-6.5,3-2,6.6-2.2,13,.2,19.6,2.7,7.5,6.4,14.3,11.5,20.2,5,5.9,10.2,11.4,15.6,16.9,5.5,5.8,7.5,12.5,6,20.1-2.3,11.6-1.1,22.8,3.3,33.7.5,1.4,1,2.8,1.3,4.3,1.7,7.2,0,13.3-5.9,17.8-3,2.3-6.1,4.7-9.6,5.9-3.2,1.1-6.9.6-10.4.6s-1.4-1-2-1.7c-2.8-3.9-2.8-9.9.4-13.7,1.4-1.6,2.9-3.1,4.5-4.5,3.5-3,4.3-6.4,2.7-10.8-3.9-10.5-7.5-21.1-11.3-31.7-3.1-8.8-9.8-14.5-17-19.7-1.4-1-3-1.9-4.6-2.7-12.4-6.3-21.6-15.9-28.8-27.6-3.1-5.1-5.7-10.4-8.6-15.5-1.7-3.1-3.5-6.1-5.1-9.2-1.5-3-3.8-5.1-6.9-6-4.1-1.2-7.5-3.4-10.9-5.9-5.5-4.1-7.3-3.5-9,3.2-1.5,6.3-.8,12.5.4,18.7,1,5,2.7,9.7,5.1,14.2,1.3,2.4,2.5,5,3.3,7.6,1.9,5.8,0,10.1-5.5,12.8-1.4.7-3,1.3-4.6,1.7-4.4.8-8.3,3-12.1,5.2-4,2.3-8.2,4.5-12.2,6.6-3.7,1.9-6.2,4.4-7.4,8.5-2.5,9.2-8.7,13.1-18.1,12-3.6-.4-7.3-.8-10.9-1.1-3.6-.2-6.6-1.7-9-4.2-2.4-2.3-2.8-4.9-1.3-7.9.8-1.7,2-3.3,3.2-4.6,5.1-5.8,10.9-10.7,17.9-14.3,6.4-3.2,11.7-7.8,16.3-13.2,3.9-4.7,4.5-9.7,2.4-15.2-2.5-6.3-5.1-12.6-7.6-18.9-2.9-7.2-5.7-14.6-7.2-22.2-1.6-7.9.3-15,4.6-21.6,3.4-5.1,7.6-9.4,12.5-13,4.7-3.5,10.1-4.9,16-4.8h8.9c-.9-1-1.4-1.9-2.1-2.2-2.7-1.3-5.4-2.7-8.3-3.6-4.2-1.5-8.3-2.8-12.5-4.3-9.7-3.5-18.3-8.9-26.4-15.2-4.3-3.4-8.5-6.7-12.9-9.9-4.3-3.3-8.2-7-11-11.8-3.3-5.5-7.3-6.3-12.7-2.6-2.1,1.5-4.2,3.3-6,5.1-7.1,6.9-15.3,12.2-24,16.9-1.9,1-3.8,2-5.7,3-4,2.2-7.5,5.1-9.9,9.1-3.2,5.4-6.2,10.9-9.3,16.4-1.1,2-1.9,4.2-3,6.1-2.2,3.8-3,7.9-3,12.3s-.3,6.3-1.2,9.2c-.8,2.4-2.5,4.7-4.3,6.6-3.3,3.5-8.2,4-12.6,2-6.3-2.9-10.1-9.4-8.9-16.3.7-4.3,2.1-8.5,3.7-12.6,1.8-4.5,4.2-8.9,6.2-13.3,2.6-5.7,6-10.8,10.2-15.3,6.4-7,11.1-15,13.8-24,2.7-9,7.8-16.6,14-23.4,4.4-4.8,9.1-9.4,13.6-14.2,3.7-4.1,7.4-8.3,11.1-12.4,3.2-3.6,4.2-7.6,2.6-12.2-.5-1.5-1-3.1-1.4-4.7-1.1-3.6-1.7-7.4-1.3-11.2.4-3.9-.4-7.5-2.2-10.9-3-5.6-5-11.5-6.5-17.7-1.3-5.5-3.9-10.6-6.6-15.6-2.8-5.1-5.1-10.4-7.4-15.7-1.9-4.5-3-9.4-2.4-14.4.9-7.4-5.3-11.5-10.5-14-2.3-1.1-4.7,0-6.9,1-5,2.3-9.8,1.8-14.6-.5-3.4-1.7-5.9-4.3-7.4-7.8-2-4.8-.6-9.2,4.1-11.5,2.7-1.3,5.7-2.3,8.6-2.5,9-.6,17.7,1.5,26.1,5.1,4.4,1.9,7.8,5.1,10.4,9.1,4.2,6.7,9.2,12.6,14.3,18.5,2.7,3.1,4.6,6.8,6.8,10.4,1.7,2.7,3.1,5.5,5.1,7.9,3.2,3.7,6.3,3.4,8.7-.9,1.2-2,2-4.3,2.7-6.7,4.4-14.1,10.2-27.6,17.9-40.2,1.7-2.8,3.8-5.3,5.9-7.8,10.4-11.9,22.9-21.1,36-29.7,1.3-.9,2.5-2,4.3-3.5-1.8-.8-2.8-1.4-3.9-1.7-1.7-.3-3.5-.3-5.2-.4-5.1-.4-9-3.2-12.2-6.9-2-2.4-2.8-5.3-2.1-8.5.6-2.7,1.8-3.5,4.4-3.6,3.8,0,7.5.3,11.2,1.2,5,1.2,10.1,2,15.3,2.5,6.7.6,12.7,2.7,18.1,6.7,8.5,6.4,16.8,12.9,23.5,21.1,1.8,2.1,3.8,4.1,6,5.8,6.9,5.4,14,10.6,21.1,16,3.2,2.3,6.1,4.9,8.3,8.3.4.7.9,1.5,1.3,2.3,4.1,8,1.1,14.5-7.6,16.7-4.2,1.1-8.3.7-12.3-.4-4.6-1.4-9.4-1.7-14.1-2.1-7.9-.7-15.7-1.8-23.6-2.8-4.4-.6-8.3-2.8-11.8-5.7-.7-.5-1.3-1.2-2-1.7-4.4-3.4-7.5-2.9-10.4,1.7-3,4.6-5.9,10-7.8,15.7ZM558.1,595.7c0,2.2-.3,4.2,0,6,.4,1.8,1.2,3.5,2.2,5.1,1.2,1.9,1.3,3.6,1.2,5.8-.2,2.3,0,4.8.5,7,1,3.6,2.4,7.2,3.5,10.7,1.3,4.3,2.6,8.7,3.7,13,1,3.9-.3,7.2-3.5,9.7-1.8,1.3-3.5,2.8-5.2,4.3-1.2,1.2-2.4,2.7-1.3,4.8,3.2.8,5.9-.7,8.6-2,9.1-4.3,11.3-9.8,7.3-18.9-5-11.5-6.2-23.5-4.2-35.8,1.1-6.2-.4-11.3-4.9-15.8-5-5-9.6-10.3-14.1-15.8-6.2-7.5-10.9-15.9-14.4-25.1-3.5-9.5-2.8-18.5,1.4-27.4,3.4-7.1,6-7.7,12-2.8,2.7,2.3,5.7,3.7,9.1,4.2,10.6,1.3,20-1.5,27.9-8.6,1.9-1.7,3.5-4.2,4.2-6.6,3.4-14,5.3-28.2,5.1-42.6,0-7.1-1.3-14-5.5-20.1-.8-1.2-1.9-2.4-3-3.3-1.4-1.1-2.9-.6-4.2.5-1.1,1.1-.8,2.3-.2,3.5,1.2,2,2.5,4.1,3.9,6,3.3,4.6,4.8,9.6,4.3,15.3-1.2,10.9-2.1,21.8-3.3,32.6-.5,5.5-3.5,9.7-7.9,12.8-4.9,3.5-10.3,5.2-16.2,5.6-7.5.5-13.3-2.3-17.2-8.7-1.2-2-2.2-4-3.2-5.9-4-7.8-8-15.7-12.1-23.5-2.2-4.2-5.3-7.6-9-10.5-2.1-1.6-4.3-3.2-5.9-5.3-4.5-6-10.6-9.9-17-13.5-6.7-3.6-13.3-7.6-19.7-11.9-6.8-4.4-11.7-10.6-14.8-18.2-2.6-6.1-5.3-12.2-8.1-18.3-2.8-5.9-4.8-12.2-5.9-18.6-2-11.8-5-23.3-8.3-34.9-1.5-5.1-3-10.4-3.9-15.7-1.2-7.4-3.5-14.4-6.7-21.1-3.2-6.7-5.3-13.7-6.1-20.9-.4-3.7-1.8-6.5-4.5-9-1.9-1.8-3.6-2.6-6.2-2.8-11-.7-20.4-5.1-27.8-13.5-.5-.6-1.2-1.1-2.3-2.1-1.1,2.3-2.2,4.1-2.8,6-3.4,9.6-7.3,19-11.8,28.2-5.5,11.3-9.6,23-12.1,35.3-1.8,8.6-2.5,17,.8,25.6,2.7,7.2,1.2,14-3.5,20.2-8.1,10.6-16.6,20.9-26.2,30.3-4.7,4.5-8.5,9.7-10.3,16.1-3.5,12-9,23-16.6,32.8-7.3,9.4-11.4,20.4-15.8,31.2-.8,2-1.2,4.4-1.2,6.7,0,3.5,3.1,5.3,6.4,4.3,2.2-.6,3.9-2,4.8-3.9.7-1.6,1.3-3.3,1.5-5,.3-3.1.4-6.3.3-9.4-.2-3.8.6-7.2,2.8-10.3,1.4-2,2.7-4.3,3.7-6.6,3.6-7.5,8.1-14.6,13.5-20.9,2.8-3.4,5.4-6.9,6.5-11.4,0-.2.4-.4.6-.6h3.1v-5.1c3.2-.8,5.1,2.8,8,1.8.8-1.7-.2-2.6-1-3.5-.8-.8-1.8-1.5-2.3-2.5-.5-.9-1.1-2.2-.8-3,.3-.6,1.8-.7,2.8-1.1.4,0,.7,0,1.1,0,1.2-3.1,1.9-3.4,4.4-1.3,1,.8,1.9,1.7,2.8,2.5,1.9,1.5,3.8,2,4.7.9,1.4-1.7,0-3-.9-4.3-.8-1.2-2.1-2.1-1.8-4.3,1.1.4,2,.6,2.8,1.2,1.1.6,2,1.5,3.1,2.1,2,1.2,3.8,1,5.2-.3s1.8-3.1.9-5.2c-.4-1.1-1.1-2-1.7-2.9-.6-1.1-1.4-2.1-1.9-3.3-.5-1.2-1.6-2.8,0-3.7,1.4-.8,2.6.5,3.5,1.5,1.1,1.2,2,2.7,2.9,4,1,1.2,1.9,2.8,3.9,2.8,1.5-3.6-3.5-6.2-1.7-9.8.9,0,1.8,0,2.6-.2-.5-1.8-1.2-3.3-1.5-4.8-.3-1.3-.3-3.1,1.2-3.5.9-.3,2.5.6,3.2,1.4,1.4,1.7,2.4,3.8,3.7,5.7,1.4,2,2.9,4.1,4.7,5.9,1,1.1,2.4,1.9,4.3.6-1.2-5.9-7.6-9-8.3-15,1.7-.9,2.7,0,3.5.9,1.5,1.5,2.9,3.1,4.3,4.7,1.3,1.5,2.5,3.2,3.8,4.7.9,1.1,2,2,3.6,1.1,0-2.1-1.5-3.4-2.7-4.8-1.4-1.8-2.9-3.5-4.2-5.3-.7-1.1-1.2-2.6,0-3.4.6-.4,2.3,0,2.9.7,1.6,1.4,2.8,3.3,4.2,4.8,1.3,1.4,2.8,2.9,4.5,3.9,1.6,1,3-.2,2.8-2.1-.3-1.3-1-2.6-1.4-3.8s-1.6-2.4-.4-3.8c3.4-.7,4.7,4.8,8.5,2.9-.4-2-3.5-2.5-2.4-5.3,1.5,1.2,2.9,2.2,4.5,3.5,1.1-2.5.6-4.2-.5-5.9-.9-1.2-2-2.3-2.7-3.6-.4-.8-.3-1.9-.4-2.8,1.1,0,2.2-.5,3.1-.2,1.2.4,2.2,1.6,3.5,2.2.8.4,2.1.5,2.8,0s.8-1.8.7-2.7c-.2-1.3-.7-2.6-1.1-3.9,5.5-1.2,5.4-1.3,10-5.6.9-.8,2-1.6,3.1-2,1.9-.6,2.9.3,2.9,2.2s-.3,2.2-.7,3.3c-.8,2.1-1.8,4.2-2.5,6.3-3,8.4-7.7,15.8-14.2,22-2.1,2-4,4.3-6,6.4,4.4-2.2,8.5-4.9,13.3-6.1,1,2.1,0,3.4-1,4.4-4.8,5.1-9.6,10.3-16.5,12.9-2.9,1.1-5.7,2.7-8.5,4.1-.6.4-1.1,1-1.6,1.5.2.3.3.5.4.8,2-.7,4.1-1.1,5.9-2.1,6.6-4,13-8.1,19.4-12.2,2.2-1.4,4.3-3.2,6.4-4.7.9-.6,1.9-1.4,3.1-.4-.4,2.6-2.3,4.1-4,5.7-6.8,6.5-14.4,11.8-23.1,15.4-1.4.6-3.1,1-3.9,3.5,1.7-.3,3.1-.3,4.3-.8,2.1-.9,4.1-1.9,6-3,3.7-2.1,7.4-4.3,11.1-6.4,1.2-.6,2.6-1.8,4.4-.3-.8,1.2-1.4,2.6-2.4,3.6-2.9,3.4-6.6,5.9-10.7,7.5-1.9.8-4.1,1.2-5.4,4.1,1.9-.4,3.3-.4,4.4-1,2.2-.9,4.3-2,6.5-3,2.5-1.2,5-2.4,7.5-3.5,1.1-.4,2.2-.8,3.2.8-.5,2.2-2.5,3.5-4.3,4.8-1.8,1.4-4.1,2.4-5.4,5.4,1.8-.6,2.9-.8,4-1.3,2.8-1.6,5.7-3.2,8.4-5,2.8-1.9,5.6-3.8,8.4-5.7,1.5-1,3.1-1.9,5-.4,0,2.1-1.2,3.6-2.6,4.8-3.5,2.9-7,5.7-10.6,8.3-2.2,1.6-4.7,2.8-7.1,4.3-.9.5-1.5,1.4-2.6,2.4,2.7,1,4.3-.2,5.9-1,2-1.1,3.9-2.3,5.9-3.3,1.2-.5,2.6-1.3,3.9.4-.8,3.7-5.9,4.2-6.7,7.9,1.1,1.7,2.5,1.5,3.8,1.1,1.4-.4,2.8-1.3,4.2-1.9,1.2-.4,2.5-.7,4.2-1.2v6.6c1.4,0,2.7,0,3.8,0,1,0,2-.5,2.9-.7,2.4-.4,3.3.4,3.2,2.8v3c1.6-.6,2.8-1,4.2-1.5,1.5-.6,3-1.3,4.5-1.9,2.8-.9,4.8,1.2,3.4,3.7-2.1,3.7-.6,6.3,2.4,8.8,16,13.1,23.5,31.1,28.5,50.3,2.3,8.8,4.8,17.5,9.1,25.5,3.8,7,10.1,9.7,17.7,7.6,1.3-.4,2.7-.7,4-1,1.3-.2,2.8-.3,3.5,1.2-.4,2.1-2,3-3.6,3.5-2.4.8-4.9,1.3-7.3,2-1.2.4-2.8.2-3.7,1.5,1.9,2.2,4.3,2.7,6.8,2.9,2.4.3,4.8.4,7.2.6.7,0,1.4.6,2.5,1.2-3.5,3.3-8.3.6-12.2,3.9,2,.4,3.3,1,4.5,1,3.5,0,7-.2,10.6-.4,1.5,0,3-.4,4.1,1.1-2,4.4-7.5,1.8-10,5.1,3.8,3.2,9.2.7,13.3,4-2.2.9-3.9,1.6-5.7,2.4,0,.3,0,.6.2.9,1.4,0,2.8.3,4.3,0,2.2-.4,4.3-1.2,6.6-1.6,1.5-.3,3.3-.7,4.7,1.2-1.8,1.8-3.5,3.5-5.2,5.2,0,.4.3.6.4,1,2,0,3.9.3,5.9.4,1.5,0,3-.3,4.4,0,3.7.8,5.1,5.1,2.9,8.3-.4.6-.8,1.4-1.3,2.2,1.5.5,2.8.8,4.1,1.1ZM472.1,488.9c-.5-1.4-.8-2.6-1.4-3.5-.9-1.5-2-2.9-2.8-4.4-2.2-3.8-5.7-5.5-9.9-5.9-3.4-.4-6.7-.8-10.1-1-1.9,0-3.8,0-5.7.4-15,2.4-30.3,23.3-21.9,39.4.3.5.4,1.2.7,1.8,5.1,10.2,8,21.5,13.6,31.5,2.2,3.9,2.7,8,1.3,12.4-3.4,11.4-10.6,19.7-20.9,25.1-6.5,3.5-11.9,8-17.3,12.7-1.2,1.1-2.2,2.5-2.9,3.9-.9,1.8-.3,2.9,1.8,3.1,2.8.2,5.5.2,8.3,0,7.2-.2,9.4-2,10.8-8.9.8-3.7,2.6-6.6,6.2-8,6.7-2.6,12.8-6.6,18.7-10.6,4.5-3,9.5-5.2,15.1-5.4,1,0,2-.3,2.9-.5,2.5-.7,3.6-2,3.7-4.5,0-1.2,0-2.7-.5-3.7-2.7-5.7-5.5-11.3-8.4-16.9-.6-1.2-1.7-1.6-3.2-1.2-3.5,1-4.2.6-5.1-2.7-.9-2.8-1.6-5.5-2.3-8.3-.2-.7.3-1.6.4-2.4.8.2,1.7.2,2.4.5.8.4,1.4,1.1,2.1,1.5.6.4,1.4.5,2.1.8-.5-1.9-1.4-3.2-2.6-4.3-1.2-1.4-2.8-2.6-4.1-3.9-1-1.1-2.7-2.3-1.6-3.8,1.2-1.8,2.9-.4,4.4.2.5.3,1.1.7,1.6.9.6.3,1.2.3,2.2.4-.6-2.3-2.4-3-3.6-4.1-2.3-2-4.6-3.8-6.7-6-.6-.6-.9-2.3-.4-3,.7-1.3,2.3-.9,3.3-.2,1.6,1.1,2.9,2.3,4.4,3.5,1.4,1.2,2.8,2.5,4.9,1.9.8-1.7,0-2.7-.9-3.5s-2.3-2-3.4-3-2.1-1.9-2.8-3c-.4-.7-.5-2.1,0-2.8.4-.5,1.9-.6,2.7-.4,1.1.3,2,1.1,2.9,1.7,1.2.7,2.2,1.4,3.5,2.1,1.1-2,0-3.1-.8-4.1-1.1-1.3-2.5-2.6-3.5-3.9-.7-1-1.2-2.3-2-4h4c.9,0,2,0,2.5-.4,1.9-2,3.3-1.1,4.8.4.4.4,1,.6,1.8,1.2-.2-2.7-2.1-4.9-.5-7.3,2.8-.2,4,2.4,6.3,3.5.7-3.5,3.5-2.9,6.3-3.4ZM422.1,221.9c-1,1.6-1.3,2.6-2,3.3-2.4,2.2-1.6,4.3-.2,6.7,3.3,5.1,8.2,8.2,13.5,10.5,2.1.9,4.2.3,5.9-1.2,1.3-1.2,2.6-2.4,3.9-3.5,2.2-2,4.7-2.3,7.4-1s1.8.9,2.7,1.4c8.1,5.4,17.2,7.5,26.6,9,2.3.4,4.6,0,6.4-1.6,3-3,6.3-2.7,9.7-.7,2.3,1.3,4.4,2.8,6.7,4.1,2.6,1.3,5.1,2.6,7.9,3.4,1.7.5,4,1.1,5.2-.8,1.2-2-.5-3.5-1.6-5-1.8-2.5-4-4.6-5.4-7.3-2.3-4.1-5.4-7.2-9.1-9.8-2.2-1.6-4.5-3.2-6.8-4.7-6.5-4.3-11.9-9.6-16.1-16.1-1.9-2.8-4.3-5.1-6.8-7.5-3.4-3.2-7-6.1-10.4-9.3-3.5-3.5-7.6-5.4-12.7-5.9-5.3-.4-10.6-1.6-16-2.5-2.2-.4-4.4-1-6.7-1.5-1.7-.4-3.4-.5-4.4,1.1-1.2,1.8-.2,3.4,1,4.8,2.6,3.3,6.1,4.7,10.2,5.1,1.6,0,3.3,0,4.9,0,6.2.4,8.3,3,7.4,9-.3,1.7-.4,3.6.2,5.1,2,4.8-.4,8.9-1.9,13-.5,1.4-2,1.7-3,.6-1.1-1-1.8-2.4-2.8-3.5-.9-1-2-2-3.1-2.6-.4-.3-1.5,0-2,.5-.3.3-.3,1.2,0,1.7.6,1.2,1.5,2.3,2.3,3.5,1.8,2.7,1.5,3.9-1,5.7-.9.6-1.9,1.3-2.8,1.9-2.5,1.4-3.3,1.2-4.7-1.5-.6-1.3-1.2-2.5-2.2-4.3ZM429.4,259.9c1.4-2.9,2.8-5.6,4.1-8.3.2-.4.3-.7.4-1.1.8-2.3.4-3.5-1.6-4.8-.6-.4-1.3-.7-2-1-6.4-2.6-11.9-6.6-16.1-12.1-2.6-3.3-4-3.4-7.1-.5-5.4,5-9.9,10.6-13.8,16.9-2.8,4.5-2.5,8.9.5,13,1.3,2,3.1,3.7,5,5.1,4.9,3.6,10.4,6.1,16.4,7.4.8.2,1.6,0,2.5,0-.2-1.1-.4-1.8-.4-2.6-.2-4.5,2.2-7.8,5.1-11,2-2,4.3-1.5,7-1.1ZM435.9,277c0-4.3-3.6-9.7-7.5-11.4-1.4-.6-2.4-.3-3.3.9-4.3,5.8-2,12.9,5.1,14.7,3.5.9,5.6-.6,5.6-4.3ZM571,454.1c-.5.5-.9.6-.9.9-.2.6-.4,1.2-.3,1.9,1.2,8.5,4.2,16.2,10.6,22.3.5.5,1.2,1.1,1.9,1.2.6.2,1.7.3,2-.2.4-.4.5-1.5.3-2-.8-1.2-1.8-2.5-2.8-3.5-3.1-2.9-5.5-6.2-6.9-10.2-.8-2.2-1.4-4.5-2.2-6.8-.4-1.2-1.1-2.3-1.7-3.5ZM355.9,290.3c.6,4.3,4.5,5.9,7,9.1-2.7.4-5,.8-7.3,1.2,0,.4,0,.6,0,1,2,.8,3.8,1.7,5.8,2.3,2.2.7,3.5-.8,4.6-2.4,1.1-1.6,2.1-3.7.5-5.1-2.7-2.4-5.8-4.3-8.8-6.3-.3-.3-1.1.2-1.8.3ZM354.3,287.2v-1.2c-.6-.4-1.2-.8-1.9-1-3.7-.6-6.7-2.7-9.9-4.4-1.6-1-3.2-2-5-2.7-.8-.3-2.2,0-2.7.4-.4.6-.3,1.9,0,2.8.2.6.9,1.2,1.5,1.6,4.3,2.4,8.7,4.5,13.7,5,1.4.3,2.8-.3,4.2-.5ZM345.5,304.1c.4,3.5,1.7,5.2,4.8,5.5,2.6.3,5.2.4,7.8.4,1.2,0,2.5-.6,3.8-1-2.4-4.7-10.5-6.9-16.4-4.9ZM354.1,295.2c-5.2-2-9.8-3.7-14.4-5.3-1.2-.4-2,.7-1.5,2.1.9,2.5,2.8,3.8,5.4,3.9,2.8.2,5.8,0,8.6,0,.4,0,.9-.3,1.9-.7ZM306,242.7c0,3.4,1.3,6,3.5,8.3,1.2,1.2,2.8,1.1,4,0,1.2-1,.7-2,0-3-.9-1.3-1.6-2.8-2.6-4.1-1.2-1.5-2.8-2-5-1.2ZM324.3,255.8c0-7.6-1.8-10.4-6.7-10.8-.5,3.8,2.8,9,6.7,10.8ZM579.5,448.5c-1.1,4,1.1,13.9,3.5,17.2,1.2-4.3-.5-13.8-3.5-17.2ZM351.9,313.7c-.6.5-1.6,1-1.6,1.4,0,.9.2,2.2.7,2.6,1.4.9,3.1,1.4,4.8,2,1.1.4,2,.3,2.5-.9.5-1.2.3-2.3-.8-2.9-1.8-.8-3.6-1.4-5.6-2.2ZM345.3,272.3c-1.9-4-4.3-6-7.8-7.1-.8-.3-1.8.3-2.8.4.4.9.4,2,1.1,2.5,2.7,2,5.6,3.3,9.5,4.2ZM300.8,249.6c.4-.4.7-.6,1-1-1-1.8-1.9-3.7-3-5.3-.9-1.2-2.4-1.7-3.6-.5s-.4,2.4.5,3.2c1.7,1.3,3.5,2.5,5.1,3.6ZM611.1,490.8c-1.2-2.8-3.5-4.3-5.8-5.8-.4-.3-1.9,0-2.1.6-.4.5-.2,2,.3,2.2,2.3,1.4,4.4,3.1,7.6,2.9ZM352.3,327.6c1.6-.8,2.6-1.1,3.4-1.7.4-.4.9-1.4.7-2-.8-2.2-2.7-1.5-4.5-1.5,0,1.5.3,2.8.4,5.1ZM399.8,407.2c-1.9,1-3.6,2-5.6,3-1.9.9-3.8,1.7-5.7,2.5,4.7,0,8.3-2.3,11.3-5.5ZM347.4,278.5c1.2,1.1,2,3.2,4.7,2-1.2-1.7-2.4-3-4.7-2ZM339.2,273.6c-1.6-.8-2.7-1.4-4.3-2.3,0,1.4-.4,2.5,0,2.8,1.1,1.2,2.4,1.1,4.3-.5ZM333.7,257.1c-1.5.9-1.3,2-.6,2.8s1.2.5,2,.8c.2-.2.3-.4.4-.6-.6-1-1.2-2-1.8-3ZM472.8,515.9c0,0,0,.3-.2.4.4.3.6.7,1,.8.4.2.9,0,1.3,0,0-.2,0-.4,0-.4-.8-.2-1.5-.4-2.2-.7Z"/>
    <path d="M371.4,349.8c-4.3-2.5-6.1-6.3-7.4-10.6-.2-.6.2-1.5.4-2.1.5-1.4,1.2-2.7,1.9-4.1,1.1-2.3,2.8-2.9,4.8-1.5,1,.7,2,1.6,2.6,2.7,1.2,2.1,2.5,4.4,3.5,6.7,1.1,2.5.8,3.2-1.2,4.9-1.3,1.2-2.7,2.5-4.5,4.1Z"/>
    <path d="M432.6,347.9c-1.8.4-3.1.6-4.8,1,.7,1.3,1.3,2.7,2,4-1.6,1.1-3,.8-4.3,0-1.4-.8-2.8-1.7-4.1-2.8-.6-.5-1.3-1.7-1.2-2.1.4-.7,1.3-1.2,2.1-1.6.4-.2.9-.2,1.6-.3-.9-1.3-1.8-2.4-2.4-3.5-.3-.5-.4-1.7,0-2,.5-.4,1.5-.6,2.3-.6s1,.3,1.3.6c2.8,2,5.3,4.2,7.4,7.4Z"/>
    <path d="M426.8,330.7c.4,0,1.1.2,1.4.6,1.8,2,3.7,4,5.1,6.2.4.7-.3,2.2-.4,3.4-1.1-.2-2.2,0-3-.6-2.7-1.7-4-4.4-5.1-7.3-.4-1.2.4-2.2,2-2.3Z"/>
    <path d="M385,334.7c-2.1,1.8-3.7,1.1-4.9,0-2-1.8-3.6-3.8-5.2-5.9-.4-.4-.4-1.8,0-2,.6-.4,1.8-.7,2.3-.4,3.5,1.7,6.2,4.3,7.9,8.2Z"/>
    <path d="M389.9,326.6c-5.4,1.1-8.2-1.5-10.7-4.3-1.2-1.2-.5-2.8,1.2-3,.9-.2,2.1,0,2.8.5,2.2,2,4.2,4.2,6.8,6.8Z"/>
    <path d="M394.4,321.5c-.4.3-1.1.9-1.4.8-2-.7-4-1.3-5.9-2.4-1.1-.5-.5-2.3.7-2.7,1.5-.4,5.8,1.7,6.4,3.3,0,.3,0,.4.2,1Z"/>
    <path d="M473.4,217.3c4.3,0,7.1,2.2,7.4,5.9.4,3.5-2.6,5.9-5.9,4.4-2-.9-3.9-2.2-5.6-3.6-1.3-1.1-2-2.7-1.4-4.3.6-1.8,2.2-2.2,4-2.2.5,0,1,0,1.5,0Z"/>
  </g>
  <path d="M247.6,837.9c-2.4,1.3-3.5,3.2-4.4,5.2-1.7,3.7-4.3,5.8-8.5,6.5-2.5.4-4.7.8-7.3.1-3.5-1-7.1-1.3-10.7-1.8-2.8-.4-5.1.7-7.2,2.4-3.9,3-8.2,3.5-12.7,2-.8-.2-1.6-.5-2.4-.8-1.8-.8-3.8-1.5-5.4-2.5-2.5-1.6-4.9-1.8-7.9-1.3-11,2.2-20.2-8.8-16.9-19.9.5-1.7,1.3-3.3,2-5.1-.7-1.3-1.5-2.6-2.2-4-2.4-5.1-1.3-9.4,3.3-12.6,3.8-2.6,8-4,12.6-4.4,1.8-.1,3.3-.7,4.9-1.8,6.8-4.8,14.1-6.5,22.2-3.8,2.4.8,4.5,2.1,5.8,4.4.6,1.1,1.4,2.1,2.3,3.3,8.4-1.9,16.6-.8,24.4,3.4.6-5.4,3.1-9.5,7.9-11.8-6.3-6.4-5.8-8.8-5.2-15.7.3-3.4,1.1-6.8,1.6-10.2.1-1,.4-2.1.6-3.2-4.7-3.3-7.5-7.8-8.3-13.8-5.5.5-10.7,0-15.6-2.5-4.9-2.5-8.5-6.4-11-11.3-1.3,0-2.4.1-3.5.3-6.8.9-13.2-.4-18.9-4.1-2.8-1.8-5.2-1.6-7.8,0-1,.6-2.1,1.1-2.9,1.8-2.2,1.9-4.6,2.1-7.4,1.5-4.6-1-9-2.8-13.2-4.6-2.9-1.3-6-2.5-9-3.7-.7-.3-1.3-.4-2.2-.6-.4.9-.7,1.6-1,2.4-2.1,5.4-6.1,8.7-11.8,9.6-3.6.5-7.3.5-10.9.7-.6,0-1.3,0-2.3,0,1.4,7.8,1.9,15.4.1,23-1.7,7.6-4.3,14.8-7.7,21.9-2.3-.4-4.4-.7-7-1.1,1.1-2.1,1.8-3.8,2.8-5.4,3.7-5.7,5.7-12,6.3-19.6-.9,1.2-1.4,1.7-1.8,2.3-4.5,6.3-9,12.5-13.5,18.8-1.1,1.6-2.4,2.2-4.2,1.4-1.2-.5-2.5-.8-4.3-1.4,1.2-1.4,1.9-2.4,2.8-3.4,2.9-3,6-5.9,8.6-9,2.8-3.3,4.4-7.3,4.1-12-.4.7-1,1.3-1.4,2.1-4.8,7.6-11.1,13.5-19.1,17.7-.7.4-1.5.8-2.3,1-3.9,1-6.7-1.5-6.8-5.8.1-.1.2-.4.4-.4,5.2-1.5,9.5-4.7,13.8-7.9,5.3-3.9,10.6-7.8,15.8-11.8,1.5-1.2,3-2.6,4.3-4.1,1.9-2.4,1.5-4.3-.9-6.8-.2.2-.4.4-.5.7-1.6,5.3-5.1,9-9.7,11.8-8.3,5-17.1,8.8-26.6,10.7-.8.1-1.7.3-2.4.1-1.4-.3-2.7-1.8-2.7-3.1,0-1.7,1-2.6,2.4-3.3.6-.3,1.2-.4,1.8-.4,9-1.4,17.1-5,25.3-8.8.4-.1.7-.5,1.5-1.2-1.5,0-2.3-.1-3.1,0-7,1.3-14,2.5-21,3.7-2.6.4-5.1.7-7.7,1.1-1.8.4-3,0-3.7-1.9-.3-.7-.7-1.5-1-2.1,12.9-3.7,25.5-7.7,38.8-8.6,0-.2,0-.5,0-.7-.7-.2-1.3-.4-2.1-.5-8.3-1-16.7-.5-25,.4-5.4.6-10.9,1.3-16.7,2,.4-1.7.7-3.2,1.1-4.9,15.6-2.8,31.1-4.3,46.9-1,.6-.8,1.1-1.5,1.6-2.1,2.9-3.4,5.8-6.8,9-10,6.3-6.1,13.9-7.8,22.3-6,1.7.4,3,0,4.4-.7,2.8-1.8,5.7-3.5,8.6-5.1,6.3-3.5,12.8-3.8,19.1.1,3,1.9,6,1.9,9.3,1.5,5.4-.6,10.9-.7,16.2.8,2.7.8,5.3,1.9,7.9,3,2.2.9,3.8,2.5,4.8,4.7,1.3,3.1,3.9,4.3,7.1,4.1,2.5-.1,5-.4,7.4-.8,6.3-1,10.9,1.7,14.4,6.6.4.5.7,1,1,1.6,1.7,3.4,4.1,5.7,7.9,7,7.6,2.6,13.3,7.6,17.1,14.7,1.1,2.1,1.7,4.3,1.3,6.6-.3,2-.6,3.9-1.1,5.8-.8,3.1-.6,6,1,8.8,1.2,2.1,2.1,4.3,2.9,6.5,2.1,5.8,1,9.5-4,13-3.8,2.7-4.5,5.1-2.4,9.4,1.4,3,3.2,5.9,3.2,9.5,10.3,3.5,17.7,10,21,20.3,2.5.5,4.8.9,7,1.5,4.9,1.5,8.8,4.4,11.5,8.7,1.4,2.2,3,2.6,5.2,2.2.3,0,.6,0,.9-.2,7.7-2.7,13.3.7,18.5,5.8,1,1,1.8,2.3,2.6,3.4,3.2-.6,6.2-1.3,9.3-1.7,1.3-.2,2.7-.1,4-.2,2.4,0,4.5,1,6,2.8,1.1,1.3,2.1,2.6,3.1,3.9,1.8,2.4,4.3,3.2,7.2,2.9,1.3-.1,2.5-.4,3.7-.7,5.7-1.8,11-.7,16.3,2.1,1.4.7,3.5.8,5.1.4,3.2-.9,6.3-2.3,9.3-3.5-.8-2.2-1.8-4.2-2.3-6.3-2.1-8.4,2.6-15,11.1-16.3.3,0,.6-.1,1.2-.2,1.8-5.8,4.9-10.7,11-12.9,6-2.2,11.7-1,17.2,2.1.7-.4,1.3-.7,1.9-1,7.1-4.2,14.1-4,20.9.5,1.9,1.3,3.5,1.7,5.7,1,3.8-1.3,7.7-1.4,11.3.2,1.3.5,2.2.1,3.3-.2,4-1.3,8.2-1.5,12.4-.7,5.4,1.2,9.6,4,12.1,9,1.7,3.4,4.1,6.2,6.6,9,3.4,3.8,6,8.1,5.7,13.5-.3,4.6,1.8,5.5,5.9,5.5s2.3-.4,3.2-.8c4.6-2.4,9.3-3.5,14.5-2.1,1.5.4,3,.8,4.6,1,3.1.4,5.8-.4,7.7-3,.7-1,1.5-2,2.3-2.9,1.8-2.4,4.2-3.8,7.3-3.5,4.1.4,8.2,1,12.9,1.5.1-.1.7-.9,1.3-1.6,3.4-4.6,8-7.2,13.5-8.3,1.2-.2,2.4.1,3.7.4,1.5.3,3,.8,4.6,1,1.4.2,2.6,0,3.5-1.5,4.4-6.8,10.8-10.2,19.1-10.8,3.4-10.4,10.7-17.1,20.4-20.3,1.3-3.4,2.4-6.3,3.7-9.1,2.4-5.2,2-7-2.6-10.3-4.4-3.2-5.7-6.8-3.9-12,1-2.9,2.3-5.6,3.6-8.3,1-2,1.3-3.9.8-6-.4-1.9-.9-3.9-1.2-5.8-.6-3.2-.1-6,1.5-9,4.2-7.4,10.6-12,18.4-14.7,2.1-.7,3.7-1.9,4.8-3.8.7-1.2,1.4-2.4,2.1-3.5,3.3-5.4,8-8.1,14.4-7.4,2.6.3,5.1.7,7.8.8,3.3.2,5.9-1.1,7.3-4.3.9-2.1,2.6-3.5,4.6-4.6,5.7-3.2,11.9-4.3,18.4-4.2,1.2,0,2.3,0,3.5.2,4.7.6,9.1.2,13.5-2.4,5.4-3.2,11.1-2.4,16.5.4,3,1.6,6,3.5,8.8,5.3,1.6,1,3.1,1.3,5,1,8.5-1.6,16.3.2,22.5,6.5,2.9,2.9,5.8,6,8.2,9.3,1.4,1.8,2.7,2.1,4.7,1.8,3.8-.5,7.7-1,11.5-1.3,7.4-.6,14.6.1,21.8,1.1,3.5.4,7,1,10.7,1.5.3,1.7.5,3.2.9,5-14.7-1.6-29.1-4.2-43.6-1.4,6.5,1.2,13.1,2.1,19.6,3.6,6.5,1.5,12.8,3.5,19.6,5.4-.8,1.5-1.5,2.8-2.3,4.3-11.3-.7-22.1-4.3-33.7-5.2.6,1.7,1.9,1.9,2.9,2.4,6.2,2.9,12.7,4.7,19.3,6,2.9.6,5.9,1,8.8,1.5.7,1.8.4,3.2-.4,4.6-1,1.8-2.9,2.8-5,2.4-10.7-2.3-20.5-6.4-29.5-12.5-3.8-2.6-6.3-6.4-7.5-10.9-2.9,2.4-3.1,4.3-1,6.9.2.2.4.5.7.7,8.6,7.4,16.8,15.3,26.8,21,.7.4,1.3.7,1.9,1,2.6,1.5,3.3,2.8,2.4,4.6-1,2.1-3.7,3.1-5.9,2.2-.9-.4-1.7-.8-2.5-1.3-6.7-3.8-12.1-8.8-16.5-15.1-.4-.7-1-1.4-1.5-2.1,0,0-.1-.1-.2-.1,0,2.6,1.7,7.4,5,12.2,2.6,3.8,5.6,7.2,8.5,10.8-.4.1-.8.4-1.3.6-4.2,1.5-4.3,1.6-7-2-4.1-5.6-8.2-11.4-12.2-17.1-.5-.7-1-1.5-1.5-2.2-.2,0-.4.1-.6.1.2,1.5.4,3.2.7,4.7,1,4.9,2.7,9.6,5.5,13.9,1,1.5,1.8,2.8.7,4.6-1.1,1.7-2.6,2.3-4.9,1.8-6.5-14.1-11.1-28.6-7.3-44.9-1,0-1.7,0-2.4,0-3.9.5-7.7,0-11.5-.8-5.6-1.2-9.3-4.3-11.3-9.7-.2-.7-.5-1.3-.9-2.4-1.6.6-3.2,1.1-4.7,1.7-3.7,1.5-7.2,3.2-11,4.6-3.1,1.2-6.3,2-9.6,2.9-2.1.6-4.1.1-5.9-1.2-1.5-1.1-3.2-2.1-4.8-2.9-2-1-3.9-1-5.9.3-6.6,4.2-13.8,5.7-21.6,4.2-.4,0-.8,0-1.5,0-2.5,4.7-6,8.6-10.9,11.1-4.9,2.6-10.1,3.1-15.6,2.5-.2.9-.4,1.5-.6,2.3-.9,4.1-2.9,7.6-6.3,10.2-1.3,1-1.7,2.1-1.3,3.8.8,3.9,1.5,7.8,2,11.7.2,1.6.2,3.3.1,5-.1,4-2.2,7.1-5.4,9.5,1.8,1.8,3.9,3.2,5.3,5.1,1.3,1.9,1.9,4.3,2.9,6.8,7.4-3.8,15.4-5.2,23.9-3,1-1.5,2.1-2.7,2.9-4.2.9-1.5,2.2-2.4,3.8-3.1,8.2-3.3,16-2,23.2,2.9,1.7,1.2,3.3,1.8,5.4,2.1,3.2.5,6.3,1.6,9.3,2.6,1.2.4,2.3,1.1,3.2,1.8,4.6,3.3,5.9,7.5,3.2,12.5-1.5,2.8-1.8,5-.5,8,2.4,5.4,1.3,10.7-2.2,15.4-3.8,5.1-9.2,6.7-15.3,5.4-2.1-.4-3.8-.1-5.6.8-3.2,1.6-6.4,3-9.8,4.1-4.1,1.3-8.1.8-11.5-1.9-3.3-2.6-6.8-3.5-10.8-1.8-1,.4-2.1.4-3.1.5-1.3.1-2.6,0-3.8.4-3,1-5.8.6-8.8-.2-3.2-.8-5.5-2.3-7-5.1-.6-1.1-1.1-2.3-1.8-3.2-.8-1.1-1.8-2.1-2.8-3.2-9.5,5.1-9.9,5.5-21.8,6.6-.4.9-.7,1.8-1.2,2.8-4.5,9.9-11.9,15.6-22.9,16.4-1.5,0-2.6.6-3.8,1.8-6.8,7.7-15.5,10.2-25.5,8.4-2.4-.4-4.1,0-5.9,1.6-2.7,2.4-5.7,4.6-8.6,6.8-1.8,1.3-3.7,1.8-5.9,1.4-1.3-.2-2.5-.3-3.8-.4-3.8-.5-7.1-.1-10.7,1.8-6.3,3.4-12.9,3.2-19.1-.5-.4-.2-.7-.3-1.3-.5-6.5,5.1-13.7,5.6-21.6,2.4-3.2,7.8-9.3,11.3-17.4,12.1-.7,1.2-1.2,2.4-1.8,3.4-3,5.1-7.4,8.4-13.3,9.6-5.9,1.1-11.8,1.6-17.5-.8-1.4-.6-2.8-1.4-4.5-2.3-4.1,3.9-9.2,4.9-14.6,3.5-5.4-1.3-9.3-4.6-11.8-9.6-1.8.9-3.3,1.7-4.9,2.4-4.4,1.8-8.8,1.8-12.9-.6-4-2.2-6.2-5.5-5.9-10.2,0-.6,0-1.3,0-1.8s-.1-.1-.1-.1c-3.5-.9-7-1.5-10.3-2.8-3.2-1.2-6.3-2.9-9-4.2-3.2,1-6,2.2-9.1,2.7-5,.8-9.8-.6-14.1-3.2-1.3-.8-2.6-1.2-4.1-1-2.7.3-5.4.4-8.1.8-2,.4-3.8,0-5.3-1.2-3.1-2.3-6.2-4.6-9.1-7.1-1.6-1.3-3-2-5.3-1.5-10.3,2.1-19.2-.7-26.3-8.7-.5-.6-1.5-1.2-2.4-1.3-12.2-.7-20.2-7.1-24.6-18.2-.1-.4-.3-.7-.6-1.3-7.2.3-14.3-1.8-20.7-6.3ZM417.3,882.1c2.1,1.4,4.5,2.6,6.4,4.3,1.4,1.2,2.6,1.7,4.4,1.6,6.9-.4,12.9,1.9,17.9,6.7.5.4,1,.9,1.7,1.5,5.4-7,12.4-9.4,21-8.7-1.1-7.7,1.9-12.9,9.1-16-9.9-3.2-18.1-8.1-25.6-15.4-.6.8-1,1.6-1.5,2.2-3.6,4-8.1,6.6-13.3,7.8-1.8.4-2.6,1.3-3.2,2.9-2.3,5.7-6.5,9.6-12.3,11.7-1.5.7-3.1,1.1-4.6,1.5ZM709.9,814.4c-7,.4-14-.7-21-2.9-2.9,5.8-7.1,9.8-13.4,12.4,6,2,10.1,5.3,12.9,10.4,4.8-3.8,9.9-4.4,15-2.9,2.9-3.8,5.7-7.3,8.3-10.7-.6-2-1.2-4-1.8-6.2ZM224.6,824c-6-2.5-10.1-6.7-12.8-12.1-7.1,2.4-14.1,3.3-21,3.1-.7,2.3-1.3,4.2-1.8,6,2.7,3.5,5.4,7,8.2,10.7,5.2-1.5,10.3-.7,14.7,2.6,1.9-2.1,3.4-4.3,5.4-5.9,2.1-1.6,4.6-2.8,7.2-4.4ZM633.9,838.6h0c.5,0,1,0,1.5,0,4.5,0,9-.7,13-2.8,2.5-1.3,3.5-3.2,2.9-5.6-.7-3.2-3.9-6.1-7.1-6.5-1.8-.3-3.8-.4-5.5-1-6.3-1.7-12.1.4-15.7,5.9-3.1,4.7-1.5,8.7,4,9.6,2.3.3,4.6.4,6.8.5ZM735.8,714c-1.8-.2-3.8,1-5.7,2.4-3.5,2.5-5.4,6.3-7.7,9.8-1,1.6-.3,3.5,1.3,4.6,2.6,2,5.6,2.7,8.8,2.4,6.5-.7,12.1-3.8,17.4-7.3.6-.4,1-1.5,1-2.4,0-3-1.8-5.1-4.1-6.5-3.2-2.1-6.8-2.9-11.1-3ZM169.3,733.9c2.9-.2,5.4-.9,7.7-2.6,1.8-1.4,2.4-3.2,1.2-5.1-1.9-2.9-3.8-5.7-6.2-8.2-1.5-1.5-3.8-3-5.8-3.3-4.9-.7-9.5.6-13.5,3.8-1.5,1.2-2.4,2.8-2.8,4.7-.3,1.6,0,2.9,1.6,3.7,3.5,1.8,6.8,3.8,10.3,5.2,2.3,1,4.9,1.3,7.4,1.9ZM266.4,838.8h4.7c.4,0,.8,0,1.3,0,1.3-.2,2.5-.4,3.6-.8,2.9-1.1,3.9-3.3,3.2-6.3-1.5-5.8-9.6-10.5-15.4-9.1-2.2.5-4.5,1.1-6.7,1.3-2.9.3-4.9,1.8-6.4,4-2.5,3.6-1.6,6.7,2.4,8.7,4.3,2.1,8.8,2.5,13.4,2.3ZM409.7,839.8c5.4,3.4,10.8,6.7,16.1,10.1,3.1,1.9,6.1,1.6,9.1,0,1-.5,1.9-1.3,2.8-1.9,2-1.5,2.3-2.3,1.4-4.5-.6-1.3-1.4-2.6-2.4-3.6-1.2-1.3-2.7-2.4-3.8-3.7-3.5-4.1-7.9-5.4-13.1-5.3-5.3.1-8.8,2.9-10.2,8.8ZM696.4,734.1c2.5-.3,5-.8,7.5-1,7.7-.4,12.7-4.7,16.6-10.8.7-1,.5-1.9,0-2.9-2-3-4.9-4.3-8.3-4-8.9.9-14.9,6.3-19.3,13.5-2,3.3-.2,5.4,3,5.1.2,0,.4,0,.6,0ZM421.8,852.4c-5.2-1.4-9.8-4-14.1-7.4-2.4-1.9-4.7-1.8-7.2,0-2.4,1.7-3.8,4-4.4,6.9-.7,3.2-.4,6.3,2.2,8.6,2.7,2.4,6,2.4,9.1,1,4.4-1.9,8.7-4,13.1-6,1.5-.6,1.8-1.5,1.3-3.2ZM187.1,717.4c-.6,0-1.4.1-2.3.2-3.7.4-4.4,1.3-3.4,4.9.4,1.5,1.2,3.2,2.2,4.4,2.1,2.6,4.7,5,8,5.7,4.6,1,9.4,1.4,14.1,2,.3,0,.6,0,1-.1,1.4-.4,2.3-1.3,1.8-2.7-.5-1.5-1-3.3-2.1-4.4-2.4-2.4-5.1-4.6-7.8-6.6-3.5-2.4-7.3-3.2-11.5-3.3ZM610.1,841.2c-5.7,0-9.1,2.9-10.1,7.3-.4,1.8,0,3.2,1.8,4.2,2.1,1.2,4,2.6,6,4,3.5,2.6,7,2.6,10.2-.4,2-1.9,3.8-4.1,5.4-6.5,2.2-3.2,1.4-5.5-2.4-6.5-3.9-1-7.9-1.5-10.7-2ZM484.3,892.1c.9-.2,2.8-.4,4.6-1,3.3-1.2,5.4-3.5,6.6-7,2.1-6.3-4.3-10.2-8.7-9-3.5,1-6.9,2.4-10.2,3.8-1.1.4-2.2,1.4-2.8,2.4-2.2,3.6-1.8,5.9,1.2,8.2,2.4,2,5.3,2.6,9.3,2.7ZM290.4,841.6c-2.7.5-7.1,1.1-11.3,2.3-3,.8-3.8,2.9-2.1,5.5,1.8,2.7,4,5.4,6.3,7.7,2.4,2.4,5.7,2.4,8.4.7,2.6-1.6,5.1-3.5,7.7-5.2,1-.7,1.4-1.4,1.3-2.6-.3-4.8-4-8.4-10.4-8.4ZM664.3,742.9c.3,3.5,1.4,4.6,4.7,4.9.7,0,1.5,0,2.1-.2,1.5-.4,3-.9,4.5-1.3,6.2-1.4,9.3-5.9,11.5-11.3.6-1.5,0-2.5-1-3.2-.9-.5-1.9-.7-2.9-.9-1.8-.3-3.5-.3-5.2-.7-5.1-1.1-9.3.7-11.4,5.3-1,2.3-1.5,4.9-2.2,7.4ZM236.3,742.7c0-7.1-4.9-12.6-11.3-12.4-2.9,0-5.8.6-8.6,1.2-2.7.5-3.3,2-2.4,4.6,2.8,7.9,9,11.2,16.8,12,4.1.4,5.6-1.1,5.6-5.4ZM717.5,823.7c-2.7,3.2-5.1,6-7.5,8.9,3.8,2.1,7.1,4.8,9.7,8.4.3.4.7.7,1.3.9,3.8,1.5,9-.4,10.8-4.1,2.1-4.5,1.2-8.8-.8-13.2-5,1.6-9.4,1-13.5-.8ZM191.3,832.9c-1.5-1.4-2.9-2.6-4.2-4-1.3-1.5-2.2-3.2-3.4-4.9-4.5,2.3-9,2.4-13.7,1.1-1.7,2.9-2.1,5.7-2.1,8.7.2,6.3,5.1,10,11.3,8.8.7-.1,1.5-.5,1.8-1,2.7-3.7,6.1-6.5,10.2-8.6ZM258.2,767.9c1-3.5,1-6.8.2-10.1-1.7-7-6.3-11-13.2-12.8-3.2-.8-5.2.7-5,4,0,1.7.8,3.4,1.4,5.1.5,1.5,1.4,2.8,2,4.3,2.1,5.7,8.1,9.6,14.6,9.5ZM561.6,877c1,0,1.4,0,1.7,0,3.2-.7,5.9-2.3,7-5.5,1.1-3.3-.7-5.7-3.1-7.6-3.6-2.9-7.9-4.2-12.5-4.3-2.9,0-4.6,1.5-5.9,3.9-1.1,2.1-.7,4.3.9,5.7,2.6,2.4,5.4,4.6,8.2,6.5,1.2.9,2.9,1,3.7,1.3ZM346.6,859.9c-5.2.3-9.2,1.6-12.7,4.3-.8.6-1.5,1.4-2.2,2.2-2,2.6-1.7,5.8.7,8.2,2.9,2.9,6.3,3.6,10,2,3.6-1.5,6.5-4.2,9-7.1,1.8-2.1,1.8-4.6,0-6.8-1.5-1.8-3.2-3.1-4.8-2.8ZM240.9,831.3c-4.7-.3-9.2-.9-13.8-.9-5.3,0-10.1,5.9-9.9,11.3,0,1.4.6,2.1,1.8,2.6,5.1,2.1,10.2,1.1,15.3-.1.2,0,.4-.2.5-.4,3.5-3.3,6.1-7.1,6-12.4ZM659.9,830.8c-.1,5.5,2.5,9.3,6.2,12.7.4.4,1.2.5,1.8.6,2.6.4,5.4.8,8.1.9,1.6,0,3.3-.4,4.9-.8,2.4-.7,2.6-1.1,2.6-3.5,0-3.1-1.7-5.5-3.6-7.8-1.5-1.8-3.6-2.9-6-2.9-4.6.1-9.1.6-13.9.9ZM503.2,872.9h0c.2.1.4.1.6.1,4,0,5.4-1.4,4.9-5.4-.1-1-.1-2.1-.3-3.1-.5-3.4-.7-6.8-2.5-9.9-2.2-3.6-7.3-3.8-9.6-.4-2.4,3.5-3.6,7.3-3.4,11.5,0,2.6,1,4.9,2.9,6.6,1.1,1,2.3,1.7,4,1,1-.4,2.2-.3,3.4-.4ZM246.7,821.8c0-.3,0-.6-.2-.8-4.9-8.5-17.9-14.6-27.5-12.9-1,.2-2,.8-3.3,1.3.8,1,1.2,1.8,1.8,2.3,4.5,3.6,9,7.2,13.5,10.7,3.5,2.6,11.9,2.7,15.7-.6ZM588.9,867.5c0,0,0,.1,0,.2,2.9-.7,6-1.2,8.8-2.1,2.4-.7,2.7-1.8,1.6-4-.5-1.1-1.3-2.3-2.3-2.9-4.1-2.6-8.5-5-12.7-7.4-.3-.1-.6-.2-.9-.3-2.9-.8-7.8,1.6-8.8,4.4-.2.6-.1,1.5.1,2.1,2.4,5.7,7,8.5,12.7,10,.4,0,.8,0,1.2,0ZM311.2,868c3.1-.1,5.6-1,7.7-2.5,1-.7,2-1.5,3-2.2,2.2-1.4,3.1-3.6,4-5.8.2-.6,0-1.8-.4-2.3-3-3.5-6.2-5.3-10.3-2.9-3.5,2-7.1,4-10.5,6.2-1.3.9-2.6,2.2-3.3,3.6-1.3,2.3-.8,3.5,1.7,4.3,2.8.7,5.7,1.2,8.1,1.7ZM685.1,809.2c-8.5-5.1-25.7,1.9-31,12.1,4.8,3.3,11.8,3.5,16.3,0,4.3-3.2,8.4-6.5,12.5-9.9.7-.5,1.3-1.4,2.1-2.4ZM643.6,767.4c5.7-.4,10.1-2.9,12.9-7.7,1.3-2.4,2.4-4.9,3.4-7.3.7-1.8,1.1-3.5.4-5.4-.4-1.5-1.4-2.3-2.9-2.4-1,0-1.9,0-2.8.3-9.3,2.4-14.6,12.9-11,22.5ZM478.4,837.7c.6,4.6,3,8.2,6.3,11.4,2.1,2.1,4.7,2.3,7.2.8,1.9-1.2,3.6-2.8,5.4-4.2,1.4-1.1,1.4-2.4.9-3.9-1.7-4.9-5.1-7.7-10-8.9-2.6-.7-5.1-.3-7.5,1-1.6.8-2.6,1.9-2.3,3.8ZM390.5,884.8c5.1-.1,10.7-4,12.4-8.7.2-.5.4-1,.4-1.5.9-4-1.7-7.1-5.8-6.5-4.9.7-9.3,2.6-13,6.2-.7.7-1.4,1.5-1.9,2.4-1.8,3.1-1,5.8,2.4,7,1.8.7,3.7.8,5.5,1.1ZM246.2,781.7c-.4,3.5,1.1,5.9,3.7,7.9,1,.7,1.8,1.8,2.7,2.6,3.4,2.9,5.2,2.6,7.2-1.3.7-1.3,1-2.7,1.2-4.2.2-1.3.1-2.5.1-3.8,0-6.3-3.2-10-9.3-10.8-2.4-.3-3.2,0-4,2.4-.8,2.3-1.1,4.8-1.5,7.2ZM654.3,782.2c0-3.5,0-6.3-1.4-8.8-.6-1-1.2-1.9-2.6-1.8-3.5.1-6.5,1.3-8.8,4.1-3,3.8-2.5,13.2.8,16.8,1.5,1.5,2.4,1.8,4.1.6,1.6-1.1,2.9-2.6,4.5-3.8,2.4-2.1,4-4.3,3.3-7ZM408.9,877.1c10.2,0,18.5-1.9,21.3-11.7-1.9-2.1-4-4.3-6.1-6.6-4.9,4.3-10.4,6.7-16.8,7.8,2.6,3.2,3.8,6.5,1.7,10.5ZM112.6,733.6c2.1.7,3.5,1.4,5.1,1.8,7.2,1.4,13.5-1.3,19.6-4.6.5-.3,1-.8,1.3-1.3,1.5-2.4.7-5.7-2-6.5-3.5-1.1-7.4-1.3-10.7,0-5.3,1.8-9.5,5.5-13.3,10.7ZM787.9,732.9c-2.4-3.6-5.4-5.9-8.5-8.2-4.5-3.4-9.5-3.2-14.6-2.5-1.9.2-2.9,1.5-3.2,3.4-.4,2.1.4,4,2.6,5.1,4,2.2,8.3,4,12.9,4.5,3.7.4,7.2,0,10.8-2.3ZM437.9,831.8c1.9,7.6,8,11.7,13.5,17,1.8-4.9,5.3-7.6,9.4-9.6-6-7.9-15.7-11.1-23-7.4ZM420.2,892.8c.6-2.3-.4-3.6-2.4-4.5-1.8-.8-3.5-1.9-5.3-2.6-1.3-.5-2.9-.8-4.3-.8-5.1.2-9.4,5.2-6,11.3,1.6,2.8,5.1,4.4,8.3,3.7,2.2-.5,4.3-1.3,6.5-2.1,2.4-.9,3.8-2.3,3.1-4.9ZM706.8,810.4c1.3-.3,3.5-.6,5.6-1.5,3.3-1.4,3.7-4,1-6.3-1.8-1.5-4-2.5-6.1-3.7-4.9-2.8-9.5-1.1-13.8,1.5-3,1.8-2.9,4.1,0,6.1,3.8,2.6,7.9,3.6,13.5,3.9ZM194.9,811.2c4.7-.4,9-1.7,12.8-4.3,2.7-1.9,2.6-4,0-6-6.2-4.4-15.8-3.2-20.7,2.7-1.8,2.1-1.5,4.3.9,5.4,2.2,1,4.7,1.5,7.1,2.1ZM529.9,866.1c-2.4,0-4,.3-5.1,2.1-1.1,1.8-.2,3.5.8,4.9,2.4,3.3,5.4,6.1,9.2,7.7,2.1.9,4.2,1.4,6.4.4,5.2-2.3,5.5-4.9,1.8-8-3.2-2.6-7-4.5-10.5-6.5-.9-.5-2.1-.5-2.6-.6ZM361.7,882.1c5.1,0,12.9-5.8,14.4-10.4.7-2.3-.1-4.3-2.5-4.9-1.5-.3-3.5-.5-4.9,0-4.3,1.7-8.2,3.9-11.5,7.2-.4.4-.8,1-1.1,1.5-1.1,1.9-.9,2.9.7,4.4,1.5,1.4,3.2,2.1,4.9,2.1ZM474,855.4c-.4-1.4-.4-3.3-1.3-4.3-2.4-2.4-5.1-4.6-7.9-6.7-1.3-1-2.7-1-4.1-.2-2.9,1.6-4.3,5.6-2.4,8.4,2.6,4,6,7.2,9.9,9.9,2,1.3,3.6.7,4.5-1.5.7-1.6.9-3.5,1.3-5.5ZM464.8,894v.2c-1,0-2.1.1-3.1,0-2.1-.3-3.8.7-5.4,1.9-3.5,2.6-3.2,5.4.6,7.5,5,2.7,14,1.8,18.4-1.8,1.8-1.5,1.9-4.3-.2-5.8-1.1-.8-2.6-1.3-4-1.6-2.1-.3-4.2-.3-6.3-.4ZM166.5,815.9c0,3.5,2.6,6,6.1,5.4,4.6-.9,8.6-3.2,11.2-7.3,1.3-2.1,1-3.8-.5-5.7-2.3-2.8-4.1-3.2-7.3-1.5-2.2,1.2-4.2,2.8-6.4,3.9-2.4,1-3.1,2.8-3.1,5.2ZM734.7,815.3c-.7-1.5-1-3.4-2.1-4.3-2.8-2.1-6-3.8-9-5.4-.7-.4-1.8-.7-2.6-.4-4.3,1.2-5.9,6-3.1,9.4,2.6,3.2,6,5.1,9.9,6.1,3.6,1,6.5-1.5,7-5.4ZM197.9,848.1c4.1,0,7.4-1.4,9.8-4.8,2.2-2.9.9-7.1-2.7-7.7-1.5-.3-3.2-.3-4.6.2-3.5,1.2-6.8,2.6-10.1,4.2-1.7.8-1.9,1.8-1.3,3.6.4,1.5,1.5,2.6,2.9,3,2,.7,4,1,6,1.5ZM702.8,847.6c1.8-.3,3.5-.5,5.2-1,1.8-.4,3.2-1.5,3.8-3.4.6-1.8.4-2.6-1.3-3.7-3.4-2.1-7-3.8-11-4.3-1.6-.2-3.4-.1-4.9.4-2.8,1-3.5,4.6-1.8,7,2.4,3.5,5.6,5.1,9.9,5ZM477.8,851.4c-.4,4.1-.9,8-1.3,12-.3,2.9,1.3,4.6,4.8,5.5,3.5.9,6.5-.1,7.7-2.6,0-.2.1-.4.2-.6,1.5-8.3-3.5-14.5-11.4-14.3ZM647.5,818.1c2.4-4,5.9-6.5,10.2-8.2-.9-2.1-1.5-4-2.4-5.8-.5-1.1-1.2-2.2-2.1-3.1-2.1-2.2-3.4-2.4-5.5-.1-3.5,3.7-4.9,8.2-3.8,13.2.4,1.8,1.5,3.2,3.5,4ZM253.3,818.7c2-1,3-2.4,3.5-4.1,1.2-4.9-.2-9.3-3.5-12.9-2.2-2.4-3.8-2.4-6,.1-2.1,2.5-2.9,5.6-4,8.8,4.3,1.6,7.6,4.3,10.1,8.2ZM437.4,906.2c.4,0,.7,0,1,0,1.6-.4,3-1.1,3.5-2.7.6-1.7-.7-2.6-1.8-3.6-1.5-1.2-2.8-2.5-4.3-3.7-1.5-1.1-3-2.2-4.6-3.1-1.8-1-3.6-.7-5.3.5-1.5,1.1-1.8,1.7-.9,3.4,1,1.8,2.2,3.5,3.6,5.1,2.3,2.5,5.4,3.8,8.8,4.2ZM429.8,854.3c1,3.2,2.1,4.9,4.2,6,1,.5,2.5,1,3.5.7,4.7-1.3,8.1-4.3,10.8-8.5-1.4-1.3-2.6-2.3-3.9-3.5-3.8,4.7-8.8,6.1-14.6,5.3ZM512.4,871.3c-1.1,2.6-1.5,4.8-2.7,6.3-1.2,1.5-3.2,2.4-5.4,3.8,3.9.3,7.3.7,10.7.8,1.4,0,3.1-.1,3.8-1.7.7-1.5-.3-2.9-1.3-3.9-1.5-1.7-3.1-3.3-5.1-5.4ZM461.9,833.4c2.1,3,3.2,6.3,6.9,7.2,1,.3,1.9,1.2,2.9,1.8.7.4,1.3.8,1.9,1.3,1.4-3,1.3-4.9-.4-6.9-2.9-3.4-6.5-4.2-11.3-3.4Z"/>
</svg>